<svg xmlns="http://www.w3.org/2000/svg" width="611.2" height="603" viewBox="0 0 161.8 159.6">
  <filter id="a">
    <feGaussianBlur in="SourceAlpha" stdDeviation="1"/>
    <feOffset dx="1" dy="2"/>
    <feMerge>
      <feMergeNode/>
      <feMergeNode in="SourceGraphic"/>
    </feMerge>
  </filter>
  <path fill="#2a4365" fill-rule="evenodd" d="M136.2 75a39.6 39.6 0 01.2 2.4l.2 2a33.5 33.5 0 00.2 4.4 16 16 0 01-.1 1.8l-.3 2a55.6 55.6 0 01-.3 2l-.7 2.8c-1.2 5-.1 0-.4 1.2l.2-1 .2-1a43.4 43.4 0 00.3-2.3l-.4 2.6a48.5 48.5 0 01-1.8 6.6l-1.2 3.2c-1.1 2.8-2 4.1-2.1 4.5-.5.8.4-.8 1.2-2.6.9-2 .3-.8.2-.6a93.6 93.6 0 00-2 4.1 78 78 0 01-5.3 8.3l-3.4 4-4 4a32 32 0 01-10.3 6.6 50.4 50.4 0 01-5.6 2.2 147.5 147.5 0 01-10.1 2.6 88.8 88.8 0 01-10.3 1.1c-2 .1 2.4 1 4 .8h4.2l-1.5.3-1.8.3h-.7l-3.4.2a50.8 50.8 0 01-5-.2H75l-3.5-.6a79.8 79.8 0 01-10.5-2.5 40 40 0 012.6 1.2l-2-.5a57.7 57.7 0 01-15.8-7.6A59 59 0 0132 114a71.5 71.5 0 01-5-8 37.7 37.7 0 01-2.8-6.5 67 67 0 01-1.3-4l-.6-2.4c-.1 0 .6 3.2 1.8 6.6a57.2 57.2 0 01-2.5-7.4c-.6-2.4-1.1-5.6-1.1-5.6s-.4-1.2-.4-2.7a50 50 0 01.3-11.7c.5-4.2 2-9.6 2-9.6a45.8 45.8 0 00-2.1 9.6l-.4 3.1v-1.9l.2-1.2a92.5 92.5 0 01.6-4.2 61 61 0 013.6-12.2c.6-1.5.3-.7-.2.7a7 7 0 00-.5 2l-.1.6.7-1.8c1-2.7 2-4.7 1.9-4.4-.2.2.3-1 .9-2l1.5-3 2-3.2 1.4-2c.5-.7 1.4-2 0-.2v.1l-1.6 2c-8.8 12.1 7-9.7 1.4-2a57.9 57.9 0 0112-12.2c2-1.7 2.7-2 2.7-2L44.3 30a64 64 0 00-12 11.7l-.6 1-.6.6-.7 1 1.2-1.8.4-.5 1.8-2.3 1.2-1.5a60 60 0 0115.2-12.4h.2a61.1 61.1 0 00-13.7 10.6 27.8 27.8 0 00-2.7 3l1-1.3 1-1.3a60.3 60.3 0 0115.6-12.2l.7-.3.2-.4a58 58 0 00-4.4 2.4l-3.7 2.3-1.4 1c-.3.3-.7.4-4 3.5a61.5 61.5 0 00-15.5 22c3-6.5-3.8 7.6 1-2.8l1-2-1.1 2.5c-2 4-2 4.5-.7 1.2a60.7 60.7 0 016.9-12.4l.5-.7c.3-.5 2.2-3.2 4.8-6l2.7-2.8a37.8 37.8 0 012.2-2l1.6-1.5c1.4-1.3 2.4-2 3.8-3l2-1.3 1.2-.7 1.3-.8c.9-.4-1.4.8-2.4 1.4l-3.2 2a13 13 0 01-2 1.2s.2-.4 2.8-2a48.6 48.6 0 015.3-3.3h-.3l-1.4.8-3 1.8-3.1 2.3-1.7 1.3a54.6 54.6 0 00-12.5 12.4l-1.4 2a24.5 24.5 0 011.4-2c.6-.9 1-1.3 1-1.6 0 0 2.6-3.6 7.7-8.2a65.5 65.5 0 019.8-7.2l2.3-1.3.6-.4h-.1a70.3 70.3 0 00-6 3.6c-.7.5-3 2-5.6 4.4-2.7 2.3-6 5.7-5.2 5-.4.3-1.5 1.4.2-.4 3.5-3.7 6.7-6.2 7-6.5-.6.5 3.3-2.6 0 0-.8.5-1.6 1.2-2.6 2.2L36.2 32c.8-.7-1.3 1.1 1.5-1.5 1.3-1.2 4.8-4.3 9.9-7.4l1.4-.8.9-.5h-.4l-.3.3-4.3 2.6 1-.7 1-.6-1.5 1c-3.4 2.1-4.3 3-4.4 3l1-.7a71.4 71.4 0 016.7-4.6l-2.5 1.6-1.6 1-2 1.4-1.2 1a46.4 46.4 0 016.9-5h-.1l-1.3.8 1-.8-1 .6-4.3 3a54.6 54.6 0 00-11.4 10.6 149 149 0 00-4.8 6.3l-.7 1.2-1.4 2.4-1.4 2.6 1-1.7.9-1.8.7-1.2c.9-1.4 2.4-3.7 2-3.3 0 .2.2-.3.7-1l2-2.6a68.4 68.4 0 014-4.9c-1.3 1.4-3.4 3.5-6.1 7.4a82.3 82.3 0 00-3 4.2L23 48a63.8 63.8 0 00-5.8 16.4c-.6 2.4-1.2 6.2-.8 3.6.3-2 .2-1.5-.2.7l-.4 2.8.3-3 .6-4 1-4.8 1.8-5.2a39 39 0 012.2-5.3c.4-1 .7-1.5.5-1.4l-1.7 3.5a52.8 52.8 0 00-4 12.2l-.4 2c-.4 2.1-.1 1.1-.1 1l-.2 1.3c-.3 2.2-.3 2.2 0 .6.4-2.5.3-2.2-.2 1.7a58.2 58.2 0 00-.3 5.2v2.5c0 1 0 2.3-.2.5V75c0-2 .2-4 0-3a70 70 0 000 11.5l.3 2a716.4 716.4 0 001 6.5c1.3 6.3-.4-2.6.2.2l-.6-3c-4-21.6 3 16-.1-1.2l.5 3c.8 4.2 0 0 .2.4-.3-1.7-.1-.5.2.8l.4 1.8v.5l.3.7.6 2.4a277.7 277.7 0 00.8 3 31.3 31.3 0 00.5 1.6l1.4 3.3.8 2 .5 1.1 1.2 2.2 1.5 2.4 1.3 2 1 1.3 1 1.2 1.7 2.1a36.6 36.6 0 003.4 4c-1.6-2 3.2 3.7-2.2-2.4a66 66 0 01-1.3-1l-.4-.5-1-1-2-2.5-1.1-1.6c.5.7 1.8 2.6 3.5 4.6a242.1 242.1 0 003.5 4.2 31.3 31.3 0 003.4 3.3l1.5 1.3 2 1.5c.4.3 1 1 3 2.4a40.2 40.2 0 004.8 3.2l1.7 1.3.4.3a66.1 66.1 0 01-7-4.3c-1.8-1.2-2.8-2-3.5-2.6l-2.2-1.6-2.4-2-2.6-2.7-.6-.5c-.2-.2 0 .2 2 2l3.3 3.1c.3.4-1-.6-2.1-1.5l.6.6 1 1L39 131l1.6 1.5c.2.3 0 .4-.3 0-.4-.2-.4 0-.3.2a66.5 66.5 0 004.9 3.1c.5.3.7.3.5.1-.3-.3 0-.2.7.2l1.3.6 2 1a13 13 0 003 1.3l2.6 1c1.2.6 1.5.7 1.6.6l1 .3c.8.2.7.2.2 0l-1.2-.5a27 27 0 01-.4-.2c.4 0 .8.3 3.7 1.3l4.3 1.2.6.2s-.2.1 2 .5l4.2.8 3 .4a53.2 53.2 0 01-9.7-1l-4-.6a23.4 23.4 0 006.7 1.3c2 .2 4 .4 6.7.5h1a103.4 103.4 0 015.6.4c1 0 1.3.3.2.3.7.1.9.2-.7.2h-5s.3.3 3.6.4a67.2 67.2 0 0013.6-.8 67.2 67.2 0 0016.8-5l3.6-1.8.8-.3a66.4 66.4 0 005.6-3.4c.8-.8 2-1.5 5.9-4.7 1.9-1.6 4-3.6 6-6 3.3-3.5 5-5.7 2.4-2.5l-2.6 3a75.2 75.2 0 006.8-8.4c.7-1.3.2-.5-.6.6a48.6 48.6 0 01-.7 1c0-.2.3-.5.6-.9l1.9-2.9s1-1.4 1.5-2.4l1.5-3a80.4 80.4 0 002.8-6.8 69.5 69.5 0 00.7-2.2l-1.3 3.8a53 53 0 01-4.5 9.2s-1.5 2.5-3.4 5a73.9 73.9 0 01-6.4 7.6l-2.5 2.2-4.4 3.5-.5.4c.8-.5 1.3-.9.5-.2-.4.3-1.1 1-2 1.4 0 0-2.7 2-5 3.4a56 56 0 01-4 2.2l-2.3 1.1a92 92 0 006.2-3.6l2-1.3c.9-.5 1.9-1 2.6-1.6 1.6-1 .6-.4 0 0-1.5 1-1 .5-.4.1l3.3-2.5 3.2-2.7 2-2 4-4.2 3.2-4 .9-1.2 1-1.5 2-3.4a58.9 58.9 0 004.7-9.8 66.5 66.5 0 004.4-23.4 68.1 68.1 0 00-10-34l.9 1.6c.8 1.6 2 3.7 3.3 7 1 2.6 1.8 4.8 2.2 6.3a85.2 85.2 0 012.4 18.2c-.1.5 0-1-.7-6.7-.3-2.8-.8-5.4-1-5.9a33.6 33.6 0 00-.5-2.3l-.3-1-.2-.6-.3-.6c-.5-2 0-.2 0 .6a5 5 0 01.4 1.4v1.1-.4l-1.1-3.9a37.5 37.5 0 00-1.4-4c.6 2 .4 1.1 0 .3l-.7-1.9a109 109 0 01-1.5-3.6c-.2-.8-.7-2-2-4l-1.3-2.7-.4-.6-1.4-2.2-2.1-3a34.3 34.3 0 00-7.3-8c1 1-2.8-2.4-3.8-3.2a64 64 0 00-15.2-9l-1.7-.7a92.8 92.8 0 019.7 4.8 70.3 70.3 0 019.8 7.3c.3.3 3.9 3.6 6.8 7a50.1 50.1 0 017.3 11.3l-2.4-4a86 86 0 00-3.4-5c-.7-1-2.5-3-5.2-6-2.4-2.4-5-4.5-5-4.5l-1-.8 2.3 2a53 53 0 012.9 2.6l1.8 2a56 56 0 017.6 9.7c.3.5.2.4 0 0-.4-.5-2-2.9-4.3-5.7-2-2.5-3.6-4-4.7-5-4.7-4.4-1.3-.9-2.1-1.7l1.6 1.5a61.4 61.4 0 0111.3 15c0 .5 0 .3-.7-.8a75.2 75.2 0 012.9 6.3 51.8 51.8 0 00-5-8.9 96 96 0 00-5.6-7.3l-2.3-2.7-1.4-1.5a67.6 67.6 0 00-7.7-6.5c-2-1.6-3.7-2.5-4.3-2.9l-3.4-2a68.1 68.1 0 00-26-7.2 60 60 0 00-5.5 0h4.8a69.1 69.1 0 0116.3 3 64.6 64.6 0 0125.8 15.8L127 34l2.6 3s-1.5-1.8-3.5-3.8A72.3 72.3 0 00116 25c-2.2-1.4-2.2-1.2-1.8-1a66.2 66.2 0 011.2 1l-3.4-2a74.2 74.2 0 00-7.8-3.8s-2.3-.9-5-1.7a67.2 67.2 0 00-10.3-2.2l-4-.4a56 56 0 002.4.3l5 .8a62.7 62.7 0 0120 7.4c.2.2-.1 0-1.2-.5l-1.4-.7-1-.5c-3.8-1.7.7.5 2 1.2a40 40 0 015.6 3.4c1 .8-.3 0-2.3-1.3-1.4-.9-1.4-.9 0 0a61 61 0 00-7.5-3.4l-1-.4a26.4 26.4 0 00-.6-.2l1.7.7a56.6 56.6 0 0112.5 7.2s-3-2.3-9-5.2a54.5 54.5 0 00-6.6-2.7l-1.3-.4a36.7 36.7 0 00-3.6-1l-1.8-.5-4.1-.7c-.7 0-1.1 0-3-.3-2-.2-2.5-.2-3 0H81l-2.8.1c-2 .2-1.4.4 0 .5a61.7 61.7 0 01-1.4.2 38.3 38.3 0 00-8 1.4l-3.3 1-4.3 1.5a56.4 56.4 0 00-1.8.7l2.6-.9-2.3 1-.3.2v.2c0 .2-.7.7-1 1.1l-.2.3-.3.2.8-.4.6-.3.5-.3a60.5 60.5 0 002.8-1c1.6-.8 5.3-1.9 5.3-1.9a48.6 48.6 0 0115-2h1.4a50.7 50.7 0 0113.7 2 41.8 41.8 0 012 .6c-.1.1-.7 0-1.8-.2H98l-1-.3h-1a17.6 17.6 0 00-2.4-.6h-2.2a550 550 0 01-4.6-.2 27 27 0 00-3.3.3h-.3l-.4.1c-.3 0-.3 0 0 .1.5.1.4.1-.3.1-1.5 0-1 0-.3.1h.2c-.6 0-.8.2-1.1.6-.2.2-.4.2-1.2.2a48 48 0 00-7.1 1 52 52 0 0112.2-.4c.5.2.3.1-1 0H83l.4.1 1 .1a8.7 8.7 0 001.7 0h2.6l1.5.1 1.6.4c.8.3.4.5-.4.3-1.5-.2-.3 0 1 .3 1.5.4 1.8.5 2 .7h.2l.3.1 1.8.5a60.5 60.5 0 012 .7h1.9a455.8 455.8 0 004 1l1.7.6c1.2.4 3 1.2 5.4 2.6a106.6 106.6 0 019.4 7l-3.3-2.3c-1.6-1.3-.5-.2-.5-.2a24 24 0 002 1.6l1 .8 1 .8 1.3 1.2a41 41 0 017.2 9.5c-.2-.2-.5-.3-.5-.2 0 .1-.2 0-.6-.6a27.8 27.8 0 00-2.3-3c-1.8-2.5-.6-.8-.7-.9l1.9 2.5a55.9 55.9 0 015.7 9.8 21 21 0 01-2-3l1 1.8a33.1 33.1 0 01.7 2 34.3 34.3 0 012.4 6.6c.2.6 0 .6-.3 0l-.5-.5-.5-1.2-.7-1.8-1.2-2.9c8 19.2-10.5-24.4-.3-.6.8 2 1.7 4.2 2.5 6.8a29.5 29.5 0 011.8 8c.2 2 0 1.7 0 1.5v.4c0 .8 0 .7 0 0-.1-.7-.1-.6 0 0v.7l-.1.6zm0 11.1zm-14.3-45.6zM136.2 65zm0-.6l-.4-1.7.4 1a39 39 0 010 .7zm.7 2a123 123 0 00-.1-1.4 68.3 68.3 0 001 3.6c.5 1.4.5 2 .3 1.8-.4-.3-.6-1.3-1.2-4zm-56.3 71.2zm22.6-112.9h-.2l.9.1a16.8 16.8 0 013.7 1.6l-3.7-1.4zm5.2 2zm-80.5 79.6zm35.5 30a17.8 17.8 0 01-.4 0l-2.4-.8zM21.4 88c0-.5-.1-.9 0 0 0 1 0 1 .2 1.2v-.5zm34.9 46l.8.4-2.4-1zM20.6 82l-.1-2c0-.6 0-.9 0 0a32.3 32.3 0 000 3.4V82zm5.8-29.8l-.4.8-.2.3 1.8-3.5zm2-4.5l-1 1.7A22.7 22.7 0 0129 47zm83-22a31 31 0 011 .5zM33.7 39l-1.2 1.4a21.5 21.5 0 012.2-2.5l-1 1zm20-15.5l2-1a37.4 37.4 0 00-3 1.1l-.2.4 1-.5zM20.4 64l-.1.3a16.2 16.2 0 01.2-.7v.4zm1.8-5.7l-.5 1.5c-.3.8-.4 1-.2.3l.7-2zM39 32.8l1.3-1.2 1.6-1.4.9-.7-1 .8a61 61 0 00-3.6 3.1zM26.9 47.5zm-5.6 51.3a77.2 77.2 0 00.5 1.5c-.7-1.9-.7-1.9-.3-.6-.2-.7 1 3.1-.5-1a50 50 0 011.8 4.5l.5 1.2.2.4a39.2 39.2 0 01-1.5-3c-1.3-3.7-1.8-5.8-2.4-7.5-1.8-6 1 4.4.7 3.2l.5 1.5c.2.5-1.2-3.5-2-7.2l-.3-1.8.2 1.5.5 2 .5 2.3.4 1.4-1.2-4.6c-.1-.5-.6-2.8-1-5.8a60 60 0 01-.5-5.7l.2 2c0 .8.2 2.6.7 5.2-2.3-12 4 20.5.6 2.6l-.2-.9.9 3.3.8 3 1 2.6zm-2.1-8.3c0 .5.5 2.6-.2-.3a40.9 40.9 0 01-1-7.6c-.2-2.2-.2-3.7-.1-5.3V77a70.1 70.1 0 001.3 13.5zm13.4-51.7l2.6-3a28.1 28.1 0 00-2.6 3zM102 20l1 .4.5.1a61.8 61.8 0 01-2.6-.9zM28.3 44.4c-1 1.4-3.3 5.5-3.4 5.5a39.8 39.8 0 014.5-7.6l.7-1 2-2.6-2 2.7-2 3zm-9.6 24.8a68.5 68.5 0 00-.5 2.8l-.3 2.6a15.4 15.4 0 00-.2 2.4v.7l-.2 1.2v-2.7a54 54 0 011.7-11.8c1.4-5.8 2.7-8.3 2.6-8.3l-.3 1c-1.2 3.2 0 0 0 0l1.9-4.5s.8-2 1.8-3.9l.6-1 .3-.7a35.2 35.2 0 011-2c1-1.5 0 .2-1 2a66.3 66.3 0 00-7.5 22.1zm0-2.6l-.5 3.7L18 72c0 .4-.1.6 0 0v-1.8l.7-3.5.4-2.2c.2-.7.6-2.6 1.4-5l1.4-4.2 2.2-5c1.2-2.4 2.6-4.6 2.5-4.7l-1 1.8c-1.5 2.5-.7 1 1.5-2.6l2.6-3.8-1.1 1.5-1.7 2.4 2.7-4a57.8 57.8 0 013.5-4.4l1.8-1.9 2-2-1.4 1.5-1 1-1.2 1.6a45.6 45.6 0 00-3.4 4.4l-.4.7a144.4 144.4 0 00-5.2 8.7c-1 2-4 8-5.5 16.2zm.2 26.4v.6s-.5-1.7-1.1-6.4a68.6 68.6 0 01-.4-12.2c0-1-.2 3.8 0 7.6A62.6 62.6 0 0018.9 93zm92.5-69.8l.6.3a33.3 33.3 0 00-2-1zm-4.2-2l.5.1-2.5-1zm-90 54.5c-.1 3-.1 3 0 0a42 42 0 01.2-3.8zm73-59.7zm-38 6c-.2 0-.1 0 0 0zM30.8 39.3l2-2.5a32.2 32.2 0 00-2 2.5zm77-18.3zm-73 13.4l-.5.5c-.3.3-.6.6 0 0l1.6-1.7-1 1.2zM30 40l-.3.4v-.2l3.5-4s-2.3 2.6-3.2 4zm-7.2 12l-.7 1.4-.8 2c-.4.7-.6 1.3-.3.4a50.8 50.8 0 013.4-7.4 86.7 86.7 0 00-1.7 3.6zm-1.4 2.7c.2-.6-1.4 3.3 0-.3l1.2-2.6zm2.7-6l-.2.3a27.7 27.7 0 01.2-.3zm51.3-34a24.7 24.7 0 00-1.1.1l-2.1.2-.8.1h1.5l2.5-.3zM138 49.2a36.5 36.5 0 012.8 6l.5 1.6a67.9 67.9 0 00-3.3-7.6zM30.4 38.6l.7-.8 1-1.4-.5.8zm112.7 23l-1.5-4.7 1.2 3.5.5 1.7.7 3-1-3.4zM25 46.1l-1.1 2c2-3.8-3.7 6.2.5-1.3a66.7 66.7 0 015.7-8.4c1.2-1.5 3.6-4.2 3-3.7l1-1c1.5-1.7 3-3 3.6-3.5l-.7.6c-.8.8-.2 0 2.8-2.4 2.9-2.3 4.5-3.2 4.3-3 .3-.3-.6 0-5.2 4a59.4 59.4 0 00-12.1 13.8zm21-21.8l1.9-1 2.2-1.4a23 23 0 01-1.6.7 52.7 52.7 0 00-4.7 3.2zM18.9 59.6c.2-.6-1 3.5 0-.3a16.5 16.5 0 01.4-.9zm4.7-11.2l-1 2 1.4-2.8c-.8 1.4 3.7-6.6 1.2-2zm-2 4l-.4.7a39 39 0 013.8-7.6c.2-.4-.7 1-1.5 2.8l-2 4.1zM28 117l.4.6-1-1.2-1.2-1.7c-.4-.7.5.5 1.4 1.8zm1.4-77.8c-7.2 9.2 5-6.5.6-.9l2.8-3.2-1.6 2-1.8 2zM15.8 75.2V73v2.3zm7.4 34.1zm12-76.8L34 33.6c-.6.5-1 1 .2-.4a44.5 44.5 0 016.6-5.7l-1 .7c-2.4 2-4.3 4-4.7 4.3zm-9.6 11.8l-.7 1.2a48.8 48.8 0 013.5-5.5c1.6-2 2-2.5 0 0a76.2 76.2 0 00-2.8 4.3zm104.5-8a46.9 46.9 0 00.4.4 21 21 0 00-1.4-1.5l1 1.2zm5.7 7.7l.2.3a21.3 21.3 0 00-.2-.3zm-12-14c2 1.6 1.9 1.6-.1-.2l-1-.8.9.6a10.4 10.4 0 00-1.2-1l-3.1-2.4c5.3 4-9.6-7-.8-.6l1.3 1 4 3.3zM25 113l.2.3a21.5 21.5 0 01-.2-.3zm-3.7-7l.4 1-.4-.7a28 28 0 01-.3-.8 50.6 50.6 0 01.3.5zm117.5-57a145.8 145.8 0 00.8 1.4zM34 125l1.8 1.7A25 25 0 0134 125zM17.5 62.4a49.4 49.4 0 001-4c0-.2.7-2.4 1.8-5.2l2-4.7-1 2.3a88 88 0 00-2.7 7l-.7 2.5a107.3 107.3 0 00-.4 2zm4 44l.4 1.1a19.2 19.2 0 01-1-2l.5 1zm16.7 22.3zm-4.7-95.4l2.3-2.4-.5.5a47.5 47.5 0 00-1.8 2zm9.4 99.4a54.6 54.6 0 00-.8-.5 16 16 0 00.8.5zm96-23.2a66.1 66.1 0 003.2-6.8c1.4-3.2 1.5-3.6.6-1.2l-1 2.4a53.7 53.7 0 01-5.6 10.6s1-1.5 2.8-5zM23.4 111l-1-1.8.2.6 1.2 2zm120.3-12.4l.3-1 .4-1a13 13 0 01-.7 2zM19.4 55l2-4.7L23 47l-.3.5a49.4 49.4 0 00-2.8 6.1c3.4-8.5-5.4 14-.5 1.5zM136 115c.6-.8 1.3-1.9 2.3-3.7 1-1.4 1.6-2.8 1.5-2.6-.5 1.3-2.2 4.3-3.7 6.3-1.2 1.6-.6.8-.1 0zM18 99.2zm5.6-53zM15.5 88zM96 14.8c.5.1.6.2.2 0a57.1 57.1 0 00-2.6-.5zm-24.5-1c.2 0 .8-.3-.4 0l-2.3.3-3.3.6a66.5 66.5 0 00-10.2 3.1 103.9 103.9 0 0113-3.6zM27.5 40l.3-.5.2-.2.7-1a16.6 16.6 0 00-1 1.2 13.6 13.6 0 00-.2.5zM15 84.3zm7 25.1l-1.7-3.7-.3-.7s0 .3.3.8a43 43 0 001.8 3.6zm-7.3-29v-6.6l-.1 3.5v3.1zm52.8 63.4c-1-.2-2-.5-2.1-.4a39.4 39.4 0 01-4.7-1c-.1 0 1.4.6-2-.4l-1.6-.4.8.4 1.4.4a44.4 44.4 0 013 .7l3 .5a7 7 0 002 .3h.8l.4.1zm-52.6-71v-.7.8zm127.8-17.4l-.2-.6-.5-1.5-1.1-2.5.6 1.6zm-118.5-11zm8.4-10.9l1.7-1.9a21.3 21.3 0 00-1.7 2zm28.6-18c1.3-.4-2 .4-5.7 2 2.2-.9 4-1.5 5.7-2zm16.5 130h-1a28.3 28.3 0 001.3 0zM15.2 67.5zM40.6 26l2.2-1.6-.6.4c-1.5 1-1.7 1.3-1.8 1.4zM17.4 59l1.4-4a42.2 42.2 0 00-1.4 4zm99.5-35.8a5.2 5.2 0 00-.3-.2l-.6-.4.6.4zM17.2 99l-.4-1.3-.5-1.6a49.7 49.7 0 00.9 3zm82.6 44zm-5.2 1.3a190.4 190.4 0 00-1.7.5c-4 .7.5-.2 1.7-.5zM22.4 46.8l.4-.9c0 .1 0-.3.9-1.7.8-1.5 2.5-4 1.5-2.4-.7 1.1-.4.7 0 .2l1-1.8c.7-1 1-1.5-.4.3l-1.3 2-1.3 2.3c-1.5 2.8-1.6 3.3-1.3 3zm108.7 76l-.2.3a29.3 29.3 0 00.2-.2zm-100.8 0l-.5-.5-2.6-3a28.4 28.4 0 003 3.6zm26.5 18.8l-1-.3-2.4-1a39.7 39.7 0 002.9 1.2c7.4 2.8-1.4-.6 1.5.5zm-43-68l.2-2 .3-2.8a36.8 36.8 0 01.4-3.3l.5-3 .4-1.8a67.5 67.5 0 00-1.5 8 74 74 0 00-.2 2.8c-.2 3.2 0 1.7 0 2.1zM144 101.7c0 .1-.4 1.3.2-.4l.7-2-.5 1.4zM30 123zm94-95.4zm18.9 77.4l-.1.2-.3 1c-.3.4-.4.7 0 0l1.2-3c.7-2 .2-.6-.3.5zm-72.3 40.5l-2-.3a29.9 29.9 0 003 .5zM13.6 72v-.6c.2-.4.2-.6 0 0a20.4 20.4 0 00-.1 2.6l.2-1.4zm2 25z" filter="url(#a)"/>
</svg>
