<?xml version="1.0" encoding="UTF-8" standalone="no"?>
<svg
   xmlns:dc="http://purl.org/dc/elements/1.1/"
   xmlns:cc="http://creativecommons.org/ns#"
   xmlns:rdf="http://www.w3.org/1999/02/22-rdf-syntax-ns#"
   xmlns:svg="http://www.w3.org/2000/svg"
   xmlns="http://www.w3.org/2000/svg"
   xmlns:sodipodi="http://sodipodi.sourceforge.net/DTD/sodipodi-0.dtd"
   xmlns:inkscape="http://www.inkscape.org/namespaces/inkscape"
   width="1050"
   height="1050"
   viewBox="0 0 277.88085 277.88087"
   version="1.1"
   id="svg15"
   sodipodi:docname="icon.svg"
   inkscape:version="1.0.2 (e86c870879, 2021-01-15)"
   inkscape:export-filename="/home/tobin/workspace/code/geoportal/public/img/icons/apple-touch-icon.png"
   inkscape:export-xdpi="16.457144"
   inkscape:export-ydpi="16.457144">
  <metadata
     id="metadata21">
    <rdf:RDF>
      <cc:Work
         rdf:about="">
        <dc:format>image/svg+xml</dc:format>
        <dc:type
           rdf:resource="http://purl.org/dc/dcmitype/StillImage" />
        <dc:title />
      </cc:Work>
    </rdf:RDF>
  </metadata>
  <defs
     id="defs19" />
  <sodipodi:namedview
     pagecolor="#ffffff"
     bordercolor="#666666"
     borderopacity="1"
     objecttolerance="10"
     gridtolerance="10"
     guidetolerance="10"
     inkscape:pageopacity="0"
     inkscape:pageshadow="2"
     inkscape:window-width="1534"
     inkscape:window-height="1201"
     id="namedview17"
     showgrid="false"
     fit-margin-top="40"
     fit-margin-left="40"
     fit-margin-right="40"
     fit-margin-bottom="40"
     inkscape:zoom="0.4609375"
     inkscape:cx="708.55687"
     inkscape:cy="492.52159"
     inkscape:window-x="773"
     inkscape:window-y="47"
     inkscape:window-maximized="0"
     inkscape:current-layer="svg15"
     inkscape:document-rotation="0" />
  <filter
     id="dropShadow">
    <feGaussianBlur
       in="SourceAlpha"
       stdDeviation="3"
       id="feGaussianBlur2" />
    <feOffset
       dx="2"
       dy="4"
       id="feOffset4" />
    <feMerge
       id="feMerge10">
      <feMergeNode
         id="feMergeNode6" />
      <feMergeNode
         in="SourceGraphic"
         id="feMergeNode8" />
    </feMerge>
  </filter>
  <path
     id="path13"
     style="fill:#dd6b2f;fill-opacity:1;fill-rule:evenodd;stroke-width:2.02597"
     d="m 249.87801,129.1467 c 5.45638,38.94365 -14.42325,78.68859 -44.77251,102.45898 -18.11821,13.51802 -40.72672,18.93362 -62.84764,20.89939 10.46946,5.04803 -12.42444,2.96776 -18.04184,2.39403 -14.54506,-2.43891 -29.282891,-5.556 -42.915376,-11.16322 -30.602919,-15.44387 -54.396975,-44.53149 -61.978163,-78.1217 2.48381,12.68964 -5.097436,-11.64212 -4.356615,-16.15882 -1.501774,-14.27968 0.380388,-28.68287 3.503513,-42.62271 -1.249478,6.27979 -4.493715,21.19055 -2.178232,6.53681 C 19.091793,96.848609 27.868895,82.290049 35.599442,67.703145 37.691565,62.487429 49.715085,49.461422 57.581504,43.05392 68.142193,33.494375 49.249309,49.145578 46.773598,53.142069 42.831077,57.679005 34.566833,67.090198 42.591633,56.559205 50.932369,46.747723 61.235026,38.792734 71.83104,31.57225 63.082783,35.643851 49.259346,51.193896 46.514792,51.508221 50.774653,43.477581 71.816023,32.442861 70.477278,30.792711 48.312857,44.182069 31.496052,65.341585 21.210604,88.923749 31.034763,62.415891 50.237148,39.742862 74.095371,24.735253 70.523956,28.407292 62.119771,30.403245 70.656145,25.758528 55.595728,35.006149 41.85694,46.762989 31.666082,61.292357 41.792398,44.661662 58.050978,33.197469 73.953224,22.583162 64.669552,26.101541 50.816095,40.896474 47.202266,42.107627 51.579513,36.824511 69.310811,24.145675 67.75868,25.607666 65.122943,27.519578 59.945705,30.101863 65.981061,26.164673 59.468793,30.676218 62.133675,28.63706 66.82247,24.843616 46.945966,36.026562 32.521522,54.594589 21.271288,74.034018 23.484852,67.126706 36.867903,51.950625 35.025041,51.808439 19.805673,70.532735 10.870077,93.663213 6.4158487,117.20315 5.7415265,105.8718 14.714606,87.022784 15.004704,81.815786 7.3338327,98.398977 4.9138903,116.86282 4.6380901,134.97697 c -0.6683766,-6.5205 -0.3282074,13.53062 0.540833,17.42501 1.1846233,8.2285 2.8800531,13.40647 0.5955417,2.31481 0.6085466,2.72109 4.4738632,22.74224 8.4376532,31.67412 5.353615,14.23987 13.563208,27.39729 23.998426,38.46696 -4.172649,-4.67976 -13.231203,-13.86769 -4.725886,-3.54694 10.02578,12.52175 23.436055,21.59091 36.116745,31.16533 -11.322754,-5.52339 -20.439201,-14.43981 -30.222421,-22.19022 18.834576,23.5572 48.655069,33.94412 77.394188,39.0373 5.21999,1.66785 -23.646333,-2.09156 -6.56697,0.59581 13.74553,-1.29278 23.80424,5.54296 37.08583,3.41991 51.14644,-3.09761 99.60875,-37.50711 117.54197,-85.80651 -12.35374,31.55464 -38.20171,56.75561 -68.54917,71.20954 59.1564,-27.58915 93.9377,-101.97154 71.06543,-164.278272 -1.7221,-6.796609 -11.92094,-26.224703 -10.93554,-24.32029 10.15998,17.591512 13.63741,38.040242 15.34443,58.020052 -5.30352,-48.465955 -34.11072,-96.80528 -80.62023,-115.45909 26.64794,12.128188 49.87313,32.813231 62.79104,59.309784 -7.61585,-15.411207 -19.51569,-28.192621 -32.21409,-39.568313 7.00215,4.398084 21.28699,22.921044 21.07807,22.391 -2.81722,-4.173305 -18.31107,-18.446673 -7.43161,-7.471296 7.3443,6.792733 18.8092,26.816867 18.61739,29.249552 C 231.88643,34.26923 186.20774,3.8128773 137.88379,4.1322016 175.69061,4.2271652 213.04392,22.297318 236.5066,51.957159 214.08607,25.479408 180.32756,9.7546701 145.94569,7.183193 c 18.56303,1.5633986 36.82566,6.988984 53.10917,16.063887 -4.10381,-0.927603 13.73648,8.562233 1.93176,2.325463 -5.7795,-3.079978 -11.00592,-4.034431 -2.15886,-0.507243 5.91096,2.677843 14.24711,9.441289 3.94883,2.7822 C 170.85113,9.7973083 130.55789,9.217055 97.185606,23.714801 107.24956,26.580808 117.94371,15.328438 129.43,17.446925 c 15.86162,-1.646803 32.15439,-0.394094 47.31045,4.728461 -16.52243,-4.367974 -34.03049,-2.632233 -50.36271,1.716786 23.64964,-1.930686 47.31399,4.396906 69.25505,12.522178 15.26572,8.600846 29.46616,20.524432 38.46894,35.610542 -3.22389,-0.139418 10.34523,16.116702 11.06413,23.690196 4.75604,20.505812 -12.08386,-23.248115 -5.28244,-6.527193 5.41786,12.617495 11.17444,25.898945 9.99459,39.958805 z m 0,-21.47529 c -0.57089,-2.80824 -0.73052,-3.59344 0,0 z m 1.41818,4.05193 c 5.31579,5.24107 -1.2649,9.13529 0,0 z M 183.02096,27.240346 c 3.15573,0.06888 8.44461,3.683743 2.335,1.169701 z M 102.3873,253.33876 c -4.738601,-1.32181 -2.839978,-0.79221 0,0 z M 17.29651,155.48432 c 0.306114,1.66581 0.657067,3.57565 0,0 z m 70.706403,93.19471 c -1.862818,-0.60164 -2.140137,-0.6912 0,0 z M 15.675733,143.32849 c -0.17846,-2.30847 -0.302682,-3.91537 0,0 z m 11.750634,-60.373932 1.047586,-2.095163 z m 4.254539,-9.116872 -0.73757,1.21066 z m 168.155614,-44.571367 1.88019,0.935863 z M 42.013361,56.211736 41.688347,56.540908 Z M 82.53279,24.809181 84.878464,23.62044 Z m -67.262251,81.849229 0.04533,-0.2263 z m 3.646749,-11.548022 c -0.763356,2.089634 -1.39652,3.822876 -0.258229,0.706883 z M 52.953605,43.650715 c 6.479555,-5.444581 5.488183,-5.075231 0,0 z M 17.093914,177.36484 c 4.575139,15.10058 -3.94058,-11.23747 -2.423663,-4.28201 -0.225364,-1.24071 -3.262052,-12.50811 -1.667889,-5.70591 -2.646191,-6.21985 -4.2223459,-28.01957 -1.659805,-9.76753 1.463749,6.70882 3.636445,13.23168 5.751357,19.75545 z m -4.25454,-16.81559 c -2.987785,-5.83375 -2.5044,-25.89528 -1.421221,-8.69756 0.389803,2.91212 0.870308,5.81174 1.421221,8.69756 z M 39.987389,55.806542 c 2.927607,-2.913538 2.831004,-3.73274 0,0 z M 180.5898,17.515685 c 1.24671,0.415363 0.77144,0.25702 0,0 z M 31.275712,67.151981 c -8.983777,13.10304 7.046744,-11.816577 3.839566,-5.945455 -1.265845,1.990862 -2.565239,3.960057 -3.839566,5.945455 z M 11.826388,117.39607 c -0.08758,4.98871 -3.3579739,18.95372 -1.804141,5.86806 1.876978,-18.28371 8.651532,-35.706779 17.330441,-51.780548 -7.467949,14.37186 -13.744648,29.687838 -15.5263,45.912488 z m 0,-5.26753 C 14.789367,95.493276 21.088373,79.735036 30.226974,65.518991 32.431158,59.613777 48.549885,42.868906 37.604094,56.258937 24.81349,72.544635 16.27973,91.963008 11.826388,112.12854 Z m 0.405195,53.48564 c -2.66483,-5.28016 -3.5032651,-30.11008 -2.273525,-12.81551 0.522594,4.30921 1.288539,8.58822 2.273525,12.81551 z M 199.63393,24.20139 198.69665,23.71423 Z m -8.50908,-4.25454 -0.49002,-0.196012 z M 8.7874311,130.56488 8.9249652,127.86868 Z M 36.34064,56.819528 c 3.329937,-3.783279 2.082856,-3.107453 0,0 z m 8.103886,-9.92726 c -1.547667,0.353539 5.429144,-4.660817 0,0 z m -9.724663,11.345439 c 3.914547,-4.761798 0.882927,-1.074024 0,0 z M 20.13287,82.549363 c -4.01015,9.414055 1.376642,-4.741812 0.04556,-0.111936 z m -2.83636,5.470122 c 1.017354,-2.624007 1.752118,-4.519153 0,0 z m 5.470122,-12.155827 -0.405193,0.607791 z M 126.69896,6.9806334 c -5.53664,-0.00832 -3.84405,1.0480198 0,0 z m 127.0284,69.8960106 c 4.06768,6.740263 5.41239,13.051247 1.18105,2.401581 z M 35.530252,55.401348 c 2.053457,-2.332694 3.132609,-3.906392 0,0 z m 228.326968,46.597332 0.62843,2.28941 z M 24.792605,70.596133 C 32.108591,56.502634 42.690545,44.205756 55.280126,34.562209 42.97619,44.530714 32.670984,56.873198 24.792605,70.596133 Z M 67.338001,26.429958 c 4.752804,-2.473555 5.785584,-3.994315 0,0 z m -55.106418,71.516781 0.247408,-0.950366 z m 9.522065,-22.690872 c 1.354234,-2.868336 4.697748,-8.335224 1.335103,-2.315072 z m -4.051943,8.103884 c 4.7388,-11.431198 4.74638,-9.564847 0,0 z M 30.66792,214.03492 c -2.771009,-3.62788 -2.173833,-2.65217 0,0 z M 33.50428,56.414333 33.838787,55.979124 Z M 5.951071,129.5519 c 0.1152133,-1.94068 0.3474549,-5.85272 0,0 z M 45.254914,43.042923 c 4.927334,-5.595241 8.975943,-7.617262 1.363632,-1.370319 z M 25.805589,66.949384 27.198856,64.81423 Z M 237.5196,50.741614 236.57165,49.665245 Z m 11.54803,15.599979 0.4052,0.607791 z M 224.75597,37.977994 c -3.57006,-3.702397 -12.33061,-9.872137 -3.55968,-3.171341 l 1.80194,1.560867 z M 24.590007,206.13362 l 0.405194,0.6078 z m -7.496093,-14.18179 c 5.537711,3.63087 -1.013079,2.4265 0,0 z M 255.14554,76.268853 c 1.01062,1.897816 2.58774,4.859461 0,0 z M 43.026345,230.24269 c 2.149306,2.1826 3.449232,3.50267 0,0 z M 9.395223,103.82206 c 0.152859,-5.806278 9.792289,-28.417801 3.272946,-12.487133 -1.444259,4.057548 -2.626221,8.223249 -3.272946,12.487133 z m 8.103884,89.14275 c 4.336499,7.41658 -2.752032,-2.97481 0,0 z M 41.810763,44.866297 43.219072,43.34699 Z m 19.04413,201.381573 -0.957847,-0.59603 z M 255.34814,199.24533 c 1.97733,-4.64513 7.982,-15.56689 3.18598,-4.90203 -1.40813,3.64797 -8.19174,13.54095 -3.18598,4.90203 z m -233.999687,2.83636 c -1.353553,-6.25503 -2.004906,-0.52615 0,0 z m 243.724347,-25.12205 0.88253,-2.63383 z M 13.244567,88.627277 c 2.856125,-5.604981 5.816902,-14.739518 1.500849,-4.034398 -0.125479,0.357595 -3.358079,8.476399 -1.500849,4.034398 z M 249.47283,210.18557 c 2.75614,-5.39574 6.53002,-9.08168 1.13952,-1.53734 z M 168.63657,7.1832314 c -2.1917,-0.4667181 -3.91268,-0.8331978 -0.7011,-0.1492973 z M 119.00028,4.9546626 C 113.2611,4.4406214 93.721963,10.599073 98.079498,9.5304695 104.94006,7.5435952 111.9155,5.903427 119.00028,4.9546626 Z M 29.654935,58.237707 c 1.016215,-1.473873 3.508226,-5.088181 0,0 z M 18.71469,198.84013 c -2.071767,-4.80421 -4.208995,-7.55026 0,0 z M 3.7225023,140.08694 c 0.5614282,-8.99576 -0.8559525,-8.61928 0,0 z M 110.69378,268.53354 c -6.5291,-1.83804 -18.47302,-2.92918 -5.1645,-0.44357 1.68258,0.39525 3.43176,0.72049 5.1645,0.44357 z M 4.1276969,124.68957 V 123.6533 Z M 263.04683,89.437666 c -0.63632,-2.931836 -3.46825,-8.279091 -1.02858,-2.292033 z M 39.987389,45.068894 c 2.03278,-2.279391 3.272611,-3.669636 0,0 z M 97.930172,8.6014108 c -5.3324,1.8694892 -1.187345,0.4162731 0,0 z M 131.3587,271.7751 l -1.01782,0.006 z M 56.195159,29.671512 c 3.417344,-1.817868 2.466004,-2.525371 0,0 z M 9.1926245,96.731156 c 1.5868325,-3.947613 2.1101375,-7.176005 0,0 z M 210.77676,24.20139 209.44782,23.31498 Z M 8.7874311,177.56744 c -1.5094694,-4.76864 -0.9112499,-2.87876 0,0 z m 156.8101889,91.7765 c -4.1142,2.71239 -3.06034,-0.90357 0,0 z M 19.322481,72.014312 c 4.579305,-7.082776 4.70872,-10.451187 0.190072,-1.249488 -1.08413,-1.195491 -1.210375,3.374841 -0.190072,1.249488 z m 220.223079,153.973838 -0.38958,0.60151 z m -204.217906,0 c -4.976169,-5.93191 -3.984217,-3.58696 0,0 z m 53.688241,38.08826 c -8.193269,-2.97658 9.447208,3.72275 0,0 z M 265.6806,183.24015 266.69114,180.5158 Z M 225.16117,33.115663 h 0.2026 z m 38.29085,156.810197 c 0.94505,-2.2148 1.60936,-3.77169 0,0 z M 116.9743,271.97769 c -2.84337,-0.35008 -3.64738,-0.44908 0,0 z"
     sodipodi:nodetypes="cccccccccccccccccccccccccccccccccccccccccccccccccccccccccccccccccccccccccccccccccccccccccccccccccccccscccccccccccccccccccccccccccccccccccccccccccccccccccccccccccccccccccccccccccccccccccccccccccccccccccccccccccccccccccccccccccccccccccccsccccccccccccccccccccccccccccccccccccccccccccccccccccccccc" />
</svg>
