<?xml version="1.0" encoding="UTF-8" standalone="no"?>
<!-- Created with Inkscape (http://www.inkscape.org/) -->

<svg
   xmlns:dc="http://purl.org/dc/elements/1.1/"
   xmlns:cc="http://creativecommons.org/ns#"
   xmlns:rdf="http://www.w3.org/1999/02/22-rdf-syntax-ns#"
   xmlns:svg="http://www.w3.org/2000/svg"
   xmlns="http://www.w3.org/2000/svg"
   xmlns:xlink="http://www.w3.org/1999/xlink"
   xmlns:sodipodi="http://sodipodi.sourceforge.net/DTD/sodipodi-0.dtd"
   xmlns:inkscape="http://www.inkscape.org/namespaces/inkscape"
   width="144"
   height="144"
   id="svg2"
   version="1.1"
   inkscape:version="0.48.3.1 r9886"
   sodipodi:docname="apple-touch-icon.svg"
   inkscape:export-filename="/home/gandalf/Dropbox/code/geoportal/apple-touch-icon-144x144.png"
   inkscape:export-xdpi="90"
   inkscape:export-ydpi="90">
  <defs
     id="defs4">
    <linearGradient
       id="linearGradient3995">
      <stop
         style="stop-color:#ffffff;stop-opacity:0;"
         offset="0"
         id="stop3997" />
      <stop
         style="stop-color:#00ebff;stop-opacity:1;"
         offset="1"
         id="stop3999" />
    </linearGradient>
    <linearGradient
       id="linearGradient3985">
      <stop
         style="stop-color:#0f707e;stop-opacity:1;"
         offset="0"
         id="stop3987" />
      <stop
         style="stop-color:#000035;stop-opacity:1;"
         offset="1"
         id="stop3989" />
    </linearGradient>
    <inkscape:path-effect
       fuse_tolerance="0"
       vertical_pattern="false"
       prop_units="false"
       tang_offset="0"
       normal_offset="0"
       spacing="0"
       scale_y_rel="false"
       prop_scale="3"
       copytype="single_stretched"
       pattern="m -69.336406,126.92166 a 1.4930875,1.4930875 0 0 1 -2.98617,0 1.4930875,1.4930875 0 1 1 2.98617,0 z"
       is_visible="true"
       id="path-effect3965"
       effect="skeletal" />
    <linearGradient
       id="linearGradient3941">
      <stop
         style="stop-color:#bb7414;stop-opacity:1;"
         offset="0"
         id="stop3943" />
      <stop
         id="stop3949"
         offset="0.5"
         style="stop-color:#fdfbf8;stop-opacity:1;" />
      <stop
         style="stop-color:#eb8904;stop-opacity:1;"
         offset="1"
         id="stop3945" />
    </linearGradient>
    <inkscape:path-effect
       effect="skeletal"
       id="path-effect3933"
       is_visible="true"
       pattern="M 0,5 C 0,2.24 2.24,0 5,0 7.76,0 10,2.24 10,5 10,7.76 7.76,10 5,10 2.24,10 0,7.76 0,5 z"
       copytype="single_stretched"
       prop_scale="1"
       scale_y_rel="false"
       spacing="0"
       normal_offset="0"
       tang_offset="0"
       prop_units="false"
       vertical_pattern="false"
       fuse_tolerance="0" />
    <inkscape:path-effect
       effect="spiro"
       id="path-effect3931"
       is_visible="true" />
    <inkscape:path-effect
       effect="spiro"
       id="path-effect3927"
       is_visible="true" />
    <inkscape:path-effect
       effect="skeletal"
       id="path-effect3923"
       is_visible="true"
       pattern="M 0,5 C 0,2.24 2.24,0 5,0 7.76,0 10,2.24 10,5 10,7.76 7.76,10 5,10 2.24,10 0,7.76 0,5 z"
       copytype="single_stretched"
       prop_scale="1"
       scale_y_rel="false"
       spacing="0"
       normal_offset="0"
       tang_offset="0"
       prop_units="false"
       vertical_pattern="false"
       fuse_tolerance="0" />
    <inkscape:path-effect
       effect="spiro"
       id="path-effect3921"
       is_visible="true" />
    <inkscape:path-effect
       effect="skeletal"
       id="path-effect3913"
       is_visible="true"
       pattern="M 0,5 C 0,2.24 2.24,0 5,0 7.76,0 10,2.24 10,5 10,7.76 7.76,10 5,10 2.24,10 0,7.76 0,5 z"
       copytype="single_stretched"
       prop_scale="1"
       scale_y_rel="false"
       spacing="0"
       normal_offset="0"
       tang_offset="0"
       prop_units="false"
       vertical_pattern="false"
       fuse_tolerance="0" />
    <inkscape:path-effect
       effect="skeletal"
       id="path-effect3813"
       is_visible="true"
       pattern="m -71.336406,124.92166 a 1.4930875,1.4930875 0 0 1 -2.98617,0 1.4930875,1.4930875 0 1 1 2.98617,0 z"
       copytype="single_stretched"
       prop_scale="3"
       scale_y_rel="false"
       spacing="0"
       normal_offset="0"
       tang_offset="0"
       prop_units="false"
       vertical_pattern="false"
       fuse_tolerance="0" />
    <linearGradient
       id="linearGradient3785">
      <stop
         style="stop-color:#ffffff;stop-opacity:1;"
         offset="0"
         id="stop3787" />
      <stop
         style="stop-color:#ffffff;stop-opacity:0;"
         offset="1"
         id="stop3789" />
    </linearGradient>
    <linearGradient
       id="linearGradient3773">
      <stop
         style="stop-color:#ffffff;stop-opacity:0.33725491;"
         offset="0"
         id="stop3775" />
      <stop
         id="stop3783"
         offset="0.62"
         style="stop-color:#ffffff;stop-opacity:0.29411766;" />
      <stop
         id="stop3781"
         offset="0.63"
         style="stop-color:#000000;stop-opacity:0.23529412;" />
      <stop
         style="stop-color:#ffffff;stop-opacity:0;"
         offset="1"
         id="stop3777" />
    </linearGradient>
    <radialGradient
       inkscape:collect="always"
       xlink:href="#linearGradient3773"
       id="radialGradient3779"
       cx="10.451619"
       cy="656.01196"
       fx="10.451619"
       fy="656.01196"
       r="72"
       gradientUnits="userSpaceOnUse"
       gradientTransform="matrix(0,1.6844002,-2.0092227,0,1582.8483,615.84504)" />
    <linearGradient
       inkscape:collect="always"
       xlink:href="#linearGradient3785"
       id="linearGradient3791"
       x1="144.3318"
       y1="652.69397"
       x2="144.66359"
       y2="687.8645"
       gradientUnits="userSpaceOnUse"
       gradientTransform="translate(193.76959,-18.580645)" />
    <radialGradient
       inkscape:collect="always"
       xlink:href="#linearGradient3941"
       id="radialGradient3947"
       cx="-84.965302"
       cy="811.16681"
       fx="-84.965302"
       fy="811.16681"
       r="41.916451"
       gradientTransform="matrix(1,0,0,0.97608611,-23.557606,13.425803)"
       gradientUnits="userSpaceOnUse" />
    <filter
       inkscape:collect="always"
       id="filter3975">
      <feGaussianBlur
         inkscape:collect="always"
         stdDeviation="1.9465175"
         id="feGaussianBlur3977" />
    </filter>
    <linearGradient
       inkscape:collect="always"
       xlink:href="#linearGradient3985"
       id="linearGradient3991"
       x1="70.341011"
       y1="796.12842"
       x2="70.341011"
       y2="652.36218"
       gradientUnits="userSpaceOnUse" />
    <radialGradient
       inkscape:collect="always"
       xlink:href="#linearGradient3995"
       id="radialGradient4001"
       cx="42.36317"
       cy="-61.457499"
       fx="42.36317"
       fy="-61.457499"
       r="57.404479"
       gradientTransform="matrix(1,0,0,1.001534,0,0.09427497)"
       gradientUnits="userSpaceOnUse" />
    <filter
       id="filter4003"
       inkscape:label="Simple blur"
       inkscape:menu="ABCs"
       inkscape:menu-tooltip="Simple Gaussian blur, same as the blur slider in Fill and Stroke dialog"
       color-interpolation-filters="sRGB">
      <feGaussianBlur
         id="feGaussianBlur4005"
         stdDeviation="0.20000000000000001" />
    </filter>
    <filter
       inkscape:collect="always"
       id="filter4011">
      <feGaussianBlur
         inkscape:collect="always"
         stdDeviation="1.7461547"
         id="feGaussianBlur4013" />
    </filter>
    <radialGradient
       inkscape:collect="always"
       xlink:href="#linearGradient3941"
       id="radialGradient4015"
       gradientUnits="userSpaceOnUse"
       gradientTransform="matrix(1,0,0,0.97608611,-23.557606,13.425803)"
       cx="-84.965302"
       cy="811.16681"
       fx="-84.965302"
       fy="811.16681"
       r="41.916451" />
    <radialGradient
       inkscape:collect="always"
       xlink:href="#linearGradient3773"
       id="radialGradient4019"
       gradientUnits="userSpaceOnUse"
       gradientTransform="matrix(0,1.7905072,-2.0092227,0,1389.0787,633.31668)"
       cx="10.451619"
       cy="656.01196"
       fx="10.451619"
       fy="656.01196"
       r="72" />
    <linearGradient
       inkscape:collect="always"
       xlink:href="#linearGradient3785"
       id="linearGradient4021"
       gradientUnits="userSpaceOnUse"
       gradientTransform="translate(-2.2851563e-6,-1.7558594e-5)"
       x1="144.3318"
       y1="652.69397"
       x2="144.66359"
       y2="687.8645" />
    <filter
       inkscape:collect="always"
       id="filter4037">
      <feGaussianBlur
         inkscape:collect="always"
         stdDeviation="0.062708256"
         id="feGaussianBlur4039" />
    </filter>
    <radialGradient
       inkscape:collect="always"
       xlink:href="#linearGradient3941"
       id="radialGradient4045"
       gradientUnits="userSpaceOnUse"
       gradientTransform="matrix(1,0,0,0.97608611,-23.557606,13.425803)"
       cx="-84.965302"
       cy="811.16681"
       fx="-84.965302"
       fy="811.16681"
       r="41.916451" />
  </defs>
  <sodipodi:namedview
     id="base"
     pagecolor="#ffffff"
     bordercolor="#666666"
     borderopacity="1.0"
     inkscape:pageopacity="0.0"
     inkscape:pageshadow="2"
     inkscape:zoom="3.0138889"
     inkscape:cx="56.119139"
     inkscape:cy="32.184332"
     inkscape:document-units="px"
     inkscape:current-layer="layer1"
     showgrid="false"
     fit-margin-top="0"
     fit-margin-left="0"
     fit-margin-right="0"
     fit-margin-bottom="0"
     inkscape:window-width="1920"
     inkscape:window-height="1056"
     inkscape:window-x="1918"
     inkscape:window-y="-3"
     inkscape:window-maximized="1" />
  <metadata
     id="metadata7">
    <rdf:RDF>
      <cc:Work
         rdf:about="">
        <dc:format>image/svg+xml</dc:format>
        <dc:type
           rdf:resource="http://purl.org/dc/dcmitype/StillImage" />
        <dc:title></dc:title>
      </cc:Work>
    </rdf:RDF>
  </metadata>
  <g
     inkscape:label="Layer 1"
     inkscape:groupmode="layer"
     id="layer1"
     transform="translate(0,-652.36218)">
    <rect
       style="fill:url(#linearGradient3991);fill-opacity:1;stroke:none"
       id="rect3983"
       width="144"
       height="144"
       x="0"
       y="652.36218"
       rx="20"
       ry="20" />
    <path
       sodipodi:type="star"
       style="opacity:0.50232562000000003;fill:url(#radialGradient4001);fill-opacity:1;stroke:none;filter:url(#filter4011)"
       id="path3993"
       sodipodi:sides="350"
       sodipodi:cx="42.470047"
       sodipodi:cy="-61.382488"
       sodipodi:r1="56.896214"
       sodipodi:r2="17.068865"
       sodipodi:arg1="0.6738302"
       sodipodi:arg2="0.68280618"
       inkscape:flatsided="false"
       inkscape:rounded="0"
       inkscape:randomized="0.015"
       d="M 87.689375,-26.685127 56.431579,-50.219496 86.553379,-25.41972 56.104443,-50.041811 85.637492,-24.05533 55.219134,-50.377463 84.18929,-23.172075 54.729938,-50.288499 84.66854,-22.001342 54.808702,-49.764224 83.845723,-22.381476 54.513495,-50.073716 82.397455,-20.953989 54.524371,-48.703311 82.294645,-20.334282 55.099896,-48.899605 81.750852,-19.934518 54.366692,-48.902175 79.905894,-19.568664 53.167865,-48.252755 80.520468,-18.332462 54.336265,-48.46548 78.641189,-18.410346 54.194427,-48.44314 78.200568,-16.991398 53.680935,-48.729596 77.318438,-15.94094 52.859692,-48.049563 77.094624,-15.382302 53.309871,-48.191881 75.689523,-15.272958 51.773733,-48.044335 75.736346,-13.998573 51.665103,-47.795978 73.993339,-13.444448 51.186915,-46.380361 73.518761,-13.301331 52.13464,-46.718387 72.205583,-13.424721 51.096346,-46.955766 71.578745,-13.158135 51.487647,-46.945097 70.021875,-12.050358 51.598226,-46.98134 69.150128,-10.889391 50.493202,-46.036843 69.147797,-11.702493 49.955823,-46.701521 67.36983,-10.154259 49.323774,-45.690126 66.371629,-9.3248995 49.087767,-46.298768 65.659324,-9.8161728 49.605405,-45.464693 64.880858,-9.8839682 48.906179,-45.126453 64.971582,-8.2822501 48.960807,-44.86347 63.14422,-8.6537861 47.981002,-45.564062 62.702041,-7.3484384 47.661432,-45.757385 60.750124,-8.0047503 47.83225,-44.739804 60.036662,-7.4434569 48.16552,-45.385129 59.534899,-7.698671 47.380055,-45.729602 58.291008,-7.4346493 47.086989,-44.904805 57.521537,-6.9581916 46.700206,-44.48921 57.054997,-6.4691536 46.126083,-45.040145 56.123302,-6.7004104 46.306655,-43.959731 54.818788,-5.1573186 45.54736,-44.992745 53.051461,-6.2720942 46.309684,-44.949021 52.71089,-4.6358311 45.179895,-44.206568 51.906421,-5.6160244 45.849644,-43.857208 50.824171,-5.7827169 45.5642,-43.689398 49.552996,-4.4540378 44.247357,-44.716053 48.866897,-5.5755349 44.638356,-45.027798 47.478732,-4.4889925 43.136002,-44.599345 47.266313,-4.4126434 43.341686,-45.162887 45.929551,-5.3745906 43.638853,-44.560161 43.822834,-4.2289809 43.751605,-44.776688 43.421834,-4.985708 42.341196,-44.55701 41.899209,-5.1154284 42.453428,-43.6387 41.406518,-4.0566684 42.565549,-43.859859 41.00742,-3.9649627 42.09323,-44.755592 39.577944,-4.3127464 42.205423,-43.841908 37.564546,-4.2020784 40.794948,-44.198896 37.442848,-4.6070336 41.093398,-43.840993 35.709115,-4.6500744 39.775604,-43.982151 34.92931,-4.097899 40.166932,-45.115285 33.658885,-5.9020847 40.650881,-44.704121 32.666624,-5.5380344 38.844166,-45.156464 31.954557,-4.9431187 39.419823,-44.676825 31.868015,-6.2070458 38.475226,-45.509311 30.191048,-6.5272575 39.422543,-44.009596 28.795271,-6.4274235 38.757784,-44.609802 27.955299,-7.1051907 37.416038,-44.734838 27.579489,-7.2634399 36.935996,-44.289535 26.809412,-7.1353553 36.641365,-44.925709 25.65764,-6.8628319 36.533942,-45.166979 25.062996,-6.9895692 37.642618,-44.727736 22.642492,-7.649415 36.105801,-44.842325 22.580346,-8.1510107 35.786971,-46.213757 22.136051,-8.2772144 36.514469,-45.250001 19.870282,-9.0192667 36.567461,-45.559257 20.144395,-9.4618539 35.960078,-45.240137 19.456388,-10.286767 34.770416,-45.217121 17.036346,-9.3383332 34.535428,-45.353484 16.128344,-11.411392 33.902317,-46.295071 16.402975,-10.425615 34.224086,-47.206954 14.785589,-11.779071 34.057675,-45.961584 14.004734,-12.68475 34.168118,-46.863703 12.537816,-11.755812 32.760082,-47.181408 11.909756,-13.645087 33.520045,-47.692841 12.303112,-13.510414 33.530103,-46.886968 10.30439,-14.765388 33.142693,-46.507985 10.358134,-13.94101 33.032583,-48.087235 8.6967613,-16.078848 31.49648,-47.915979 7.3832648,-15.989503 31.946426,-48.226488 7.3047099,-16.578877 32.558079,-47.349007 5.7458164,-18.046245 32.043788,-48.376094 6.2564533,-17.469352 31.900991,-48.529945 5.3136683,-18.593997 30.424553,-48.230024 4.7340305,-19.380842 30.256457,-48.125978 2.9792741,-19.357829 31.228428,-48.500585 3.4650882,-20.651151 30.0986,-48.965019 2.5124677,-21.932771 30.199325,-48.700604 2.0940301,-22.634384 29.905221,-48.903866 0.42338441,-23.496581 30.657775,-49.953809 0.22412857,-22.762661 29.49281,-49.706619 -0.28843526,-24.817513 28.791993,-51.211509 -1.9587161,-25.718937 28.371327,-51.112412 -1.298238,-26.686111 28.505195,-50.417977 -2.5635447,-26.092238 28.921068,-51.574714 -2.4343797,-27.908132 28.186495,-51.799509 -4.2305165,-27.595474 27.916322,-52.447101 -5.2179725,-29.374617 28.110634,-51.621529 -4.7165482,-30.542562 27.909093,-52.36123 -6.0513567,-30.795105 27.327466,-53.1843 -5.8969226,-32.142787 27.116769,-53.091261 -6.5180605,-32.097607 28.401242,-53.365561 -7.29432,-32.970021 26.736718,-53.684173 -8.1957005,-34.14889 28.014095,-52.977769 -7.3346363,-36.06005 27.371313,-54.114799 -9.1656898,-36.383939 27.10143,-54.376829 -9.3242304,-37.890921 27.482326,-54.477585 -9.4266868,-37.855441 26.619554,-54.958662 l -37.041511,15.91193 36.645593,-15.911346 -36.814293,15.814465 36.973717,-15.21719 -37.850911,13.951924 38.477211,-14.957681 -38.45134,13.715461 37.15779,-14.66814 -36.305041,14.143259 36.154878,-12.962067 -37.717081,11.836709 38.308217,-13.266996 -38.106575,12.168349 38.3928,-12.815222 -38.89902,11.116724 37.945422,-11.47028 -37.71632,10.080528 38.180549,-9.308563 -38.476797,9.125799 38.72997,-10.048617 -38.939035,8.986791 37.856959,-8.80287 -38.80333,8.616488 40.079362,-9.787975 -39.259598,8.259776 37.6793,-8.497086 -38.323019,7.581052 38.915105,-7.293935 -39.59147,5.95578 40.064619,-6.575128 -39.558961,5.305992 39.651202,-5.397982 -40.700914,3.765156 39.45801,-4.456711 -38.741241,3.757561 39.272143,-3.443167 -39.170375,2.173635 40.074825,-2.12216 -40.761646,1.264249 39.578316,-2.580905 -39.943332,2.168904 40.256052,-1.38751 -39.791152,-0.245041 40.661471,-1.074289 -40.723014,0.883486 40.444022,-1.078665 -40.353748,-0.235443 40.632386,-0.164381 -40.388565,-0.607358 39.609909,0.412832 -40.076512,-0.939517 39.763493,1.648587 -39.189712,-4.160357 40.370957,3.217848 -41.300627,-3.160405 40.487894,1.974839 -40.407116,-3.18378 40.998456,3.687208 -39.919485,-4.124336 40.129914,3.260617 -40.6981,-5.228599 40.697711,5.13502 -39.221542,-6.311562 38.099948,6.666516 -39.133231,-7.816562 39.217475,7.260318 -38.39224,-7.256524 38.35588,6.404205 -39.085985,-7.142127 39.608906,7.940582 -39.341066,-9.233639 40.329472,9.040788 -39.141706,-9.586149 38.212273,8.268139 -37.82737,-10.303282 38.222098,9.745318 -38.360546,-10.422514 37.607602,9.997817 -37.010433,-11.691027 37.661331,12.767393 -37.68317,-13.806778 37.952989,12.188164 -36.975608,-11.737441 37.032665,12.827443 -37.000444,-14.215751 36.678116,12.758414 -37.381829,-14.63728 38.461459,14.533926 -37.401309,-15.623774 37.333136,16.032238 L -9.2415268,-84.348694 27.460095,-68.293901 -9.0167184,-84.166257 26.615428,-67.781203 -8.6414849,-85.294384 26.418175,-68.348365 -8.4858165,-86.09991 26.595812,-68.272133 -8.2702915,-87.337894 27.328732,-68.545527 -7.2423401,-87.861191 27.850297,-69.375806 -7.8651789,-88.733281 27.71609,-69.806468 -6.9994884,-90.463042 27.460693,-70.153461 -6.1683395,-91.852506 28.438589,-70.379336 -6.3242306,-92.746988 27.40603,-70.242702 -4.9001096,-92.192566 28.545114,-70.906567 -3.6047164,-93.183207 29.210527,-70.882079 -4.1416628,-94.094832 29.480137,-71.660661 -4.0532898,-95.634663 28.599548,-71.884679 -2.2654155,-95.235183 29.798385,-71.800826 -2.61635,-97.730249 29.754832,-72.328076 -1.4820834,-97.24723 30.17577,-73.088362 -0.65821338,-97.69257 29.260419,-71.981115 -0.73289123,-98.896034 29.65757,-73.046909 1.1711881,-99.743823 29.672608,-72.446899 1.9940043,-101.07058 29.96603,-72.473856 1.7353869,-100.79118 29.956939,-73.507812 3.453066,-102.19872 31.086543,-73.458973 4.1826491,-102.58224 30.11459,-73.497943 4.3207211,-102.9481 31.311688,-74.105823 4.9912849,-104.2016 31.850146,-74.082093 5.8383641,-105.65512 31.991984,-74.104432 7.2191959,-106.14151 32.505532,-75.146873 7.1611151,-106.41764 31.245014,-74.536989 9.0654365,-107.67021 32.501749,-75.912563 8.6698774,-107.00796 32.330973,-74.542217 10.329969,-108.09335 32.43963,-76.308466 10.458106,-107.85964 32.827559,-74.950691 10.840667,-108.79059 33.676952,-75.868166 12.245835,-109.77524 32.91637,-76.229627 12.872673,-110.04183 l 21.4513,34.589369 -19.892674,-35.549689 19.782095,33.879046 -19.002338,-33.931966 18.492493,35.482191 -18.399901,-35.735601 18.845262,33.905557 -17.385899,-34.187987 18.019705,35.030934 -17.113521,-36.648124 17.347772,37.10931 -16.543449,-37.53709 17.732669,36.514021 -16.952474,-36.487761 15.852824,37.257566 -14.330408,-37.898696 15.984424,37.783167 -15.51721,-37.836047 14.882173,37.806584 -14.348032,-38.702084 15.696289,38.425008 -13.834632,-38.409078 12.633343,37.525446 -11.92161,-38.045206 13.549893,38.807175 -12.864124,-38.872165 12.034719,38.297587 -10.882817,-39.160447 11.083894,39.443695 -10.314423,-38.213275 10.794952,36.83709 -8.711814,-38.1555 9.28418,38.55898 -8.262197,-39.20523 7.989636,39.232862 -8.392009,-39.069072 9.243293,38.99404 -7.475993,-39.77514 8.5126,39.00136 -8.426695,-39.04738 7.665564,40.143028 -5.246226,-39.950678 6.377137,38.829723 -5.29313,-38.515573 4.900402,39.773245 -3.723001,-40.330325 4.009372,39.784043 -3.229472,-39.245153 4.637349,38.448853 -4.611171,-38.967363 4.222605,40.37701 -2.301515,-40.11691 2.095859,39.162561 -0.851115,-38.988451 2.352824,38.984566 -1.954776,-38.759736 1.751763,38.335882 -1.166702,-39.228262 0.96227,39.985415 0.468338,-40.643535 -0.580571,39.725225 0.981217,-38.347035 0.521532,39.487244 1.768514,-39.521174 -1.205962,39.161408 0.838292,-39.454008 -1.042475,39.648368 3.055872,-39.759028 -3.352311,39.927022 3.47228,-39.480532 -3.678686,38.392573 5.067437,-39.484543 -3.74967,41.143593 4.437458,-40.776723 -4.828758,40.391965 6.191173,-39.695825 -5.058496,38.64428 6.049027,-38.96679 -6.533596,40.073019 7.245664,-38.961049 -7.146663,38.467905 9.194785,-38.605225 -8.342205,38.649875 8.404302,-39.248715 -7.552716,40.243723 8.856476,-39.424503 -8.18996,38.465276 9.12195,-38.706556 -9.488847,38.684138 9.956646,-37.927048 -9.568621,38.400796 11.955324,-37.462376 -11.660694,38.098549 11.10558,-38.371079 L 47.825458,-77.113935 61.033155,-114.4915 48.170786,-77.333372 61.837061,-114.70916 47.998933,-77.555233 61.900963,-114.06011 48.225746,-76.971637 64.050388,-114.08136 49.29888,-77.189097 64.172272,-113.55527 48.477456,-77.801626 65.695333,-113.9902 49.945288,-76.411125 66.385096,-113.01783 49.336074,-77.032982 66.421837,-112.39333 49.479046,-75.977568 68.004497,-112.04066 50.294406,-77.210532 69.663312,-111.8553 49.880648,-76.89749 69.665828,-111.42089 50.048815,-76.288519 70.446711,-110.32622 51.643502,-75.533855 71.913629,-109.54827 51.254364,-76.045525 72.449672,-110.15372 51.61516,-76.545552 73.764958,-108.43405 52.281517,-75.51059 74.148812,-108.09813 52.670656,-75.931112 75.892214,-108.28212 52.77901,-74.499317 75.754684,-106.93212 52.608253,-74.481579 76.976163,-106.10242 52.06629,-74.958905 77.174815,-105.9687 53.628332,-75.198565 78.641719,-105.10017 54.142624,-74.171478 78.315089,-104.29038 54.193431,-74.616469 80.780754,-104.55242 54.056729,-74.170094 81.013653,-103.34115 54.223096,-74.2326 81.153567,-102.38734 54.958011,-73.857992 82.376369,-102.84244 54.288936,-74.181395 83.32726,-101.51928 54.280255,-73.468979 83.745698,-100.81767 54.574331,-73.454712 83.709457,-99.95547 55.436647,-73.192604 84.847139,-98.386398 54.986715,-72.840954 85.267686,-98.826268 55.687559,-72.853955 87.030012,-96.948014 56.109983,-72.805598 86.369533,-95.98084 55.974357,-71.940601 87.63484,-96.574713 55.466468,-71.571699 87.47754,-95.600205 56.293058,-70.559069 89.183444,-94.657364 56.56323,-71.618363 90.169116,-93.21467 56.368918,-70.737049 89.761465,-92.818321 56.57046,-69.997347 91.094544,-92.524238 57.24586,-69.945873 90.848093,-90.257506 57.364541,-70.826749 91.497312,-89.839288 57.78517,-69.182011 92.365616,-89.69693 57.742807,-68.8634 93.176763,-88.969447 58.082084,-70.02119 92.497949,-87.525951 57.10824,-68.243779 94.236985,-86.283011 57.286105,-68.769585 94.305266,-85.416411 58.705869,-67.733538 94.497982,-84.81151 57.859971,-67.58891 95.493225,-83.809213 58.257673,-67.253045 95.569936,-82.604288 58.188537,-67.020944 94.834017,-82.110617 59.269096,-67.911068 96.513276,-81.015852 58.763715,-67.93522 96.992594,-80.529951 58.821889,-66.30148 96.755893,-78.485542 58.324526,-67.349675 96.646268,-78.305946 59.651414,-65.931207 96.476073,-76.741398 58.898126,-65.57765 96.831342,-76.194526 58.525914,-65.56178 l 38.695478,-9.325697 -38.854905,9.287925 39.09205,-7.762701 -38.103748,8.350376 39.050146,-7.975 -38.619264,7.628595 39.414369,-6.888231 -39.540957,7.125541 38.661824,-6.340722 -39.345928,6.972656 39.836475,-5.839736 -40.243985,6.552987 39.738381,-4.905862 -38.123708,5.186847 39.265383,-4.851061 -39.823139,4.607326 39.014353,-2.989125 -39.361221,4.250402 39.353254,-3.563471 -38.642834,2.72416 39.32787,-2.202699 -39.851427,3.519355 40.188364,-1.863864 -40.593129,1.812525 40.037968,-0.820355 -39.109356,1.40963 39.261159,-0.578447 -39.074184,-0.01421 38.98391,1.328318 -39.260792,-0.781039 39.018701,1.511239 -39.854941,-0.717872 40.227797,2.205147 -40.00674,-1.617177 39.553084,2.155402 -38.93721,-2.468393 39.868637,4.265292 -40.670774,-3.998777 40.588239,5.060262 -40.241124,-4.778588 39.162126,5.026722 -38.696168,-4.218049 39.172364,5.58719 -39.079957,-4.705775 39.404449,5.110721 -40.728309,-5.587613 40.054678,6.548664 -39.554496,-6.457311 38.727531,8.201943 -38.600912,-8.41613 39.331017,9.154053 -39.76192,-7.457786 39.495809,8.709303 -38.869345,-9.304288 37.6535,9.386251 -38.521242,-8.897616 38.042537,9.808474 -38.347005,-8.61013 38.485453,10.994212 -37.732482,-12.087406 37.227329,12.861565 -37.970243,-11.311994 37.99211,12.540374 -38.2602,-12.670186 38.989678,13.737355 L 58.103845,-55.94626 95.604014,-41.119832 58.427957,-55.85936 96.309484,-40.800398 59.053401,-54.574565 95.339595,-40.777055 57.506733,-54.006198 94.312822,-38.318257 58.726317,-54.253671 93.995997,-37.581643 57.772108,-53.658324 93.714565,-37.036117 58.153367,-53.411372 93.557112,-36.56704 57.885498,-53.93899 93.341587,-35.329057 57.150821,-53.813051 92.223375,-33.739254 56.721272,-53.901822 92.260059,-34.067619 56.673175,-53.381485 92.070811,-32.014914 57.018859,-52.205116 91.2115,-31.655832 57.74785,-51.979242 89.660532,-30.572355 57.073522,-52.115876 89.853037,-30.060272 55.934411,-51.641006 88.647904,-28.429249 56.975912,-51.476499 89.186607,-29.077056 56.706275,-50.886911 89.00619,-26.80717 55.879978,-50.662894 87.336711,-27.431767 56.388054,-50.557752 z"
       transform="matrix(1.5377755,0,0,1.5354202,5.6478107,815.78784)"
       inkscape:transform-center-x="6.5474473"
       inkscape:transform-center-y="-15.932328" />
    <g
       id="g3979"
       transform="matrix(1.4700475,0,0,1.4700475,230.92552,-460.25199)">
      <path
         style="fill:#000000;fill-opacity:1;stroke:none;filter:url(#filter3975)"
         d="m -106.04533,766.66651 c 0.0676,0.41487 -1.41919,1.12705 -4.29845,2.28291 -1.43963,0.57792 -3.22352,1.27157 -5.28761,2.1499 -2.06408,0.87833 -4.40944,1.93987 -6.92121,3.31294 -1.77342,0.97312 -3.63152,2.10003 -5.46702,3.43995 -1.83551,1.33992 -3.64888,2.89269 -5.27845,4.73693 0,0 -1e-5,0 -1e-5,10e-6 -2.42322,2.71281 -4.47922,6.14107 -5.71746,10.05441 -1.24472,3.85853 -1.70135,8.26857 -1.61612,12.94792 0.0916,4.17793 1.00318,8.50627 2.737,12.61669 1.73382,4.11042 4.28891,7.99953 7.57793,11.20571 3.06282,3.01159 6.80258,5.45601 10.89177,7.13961 4.08918,1.6836 8.52419,2.60481 12.93061,2.59707 4.41925,0.012 8.862237,-0.91022 12.953714,-2.59281 4.091477,-1.68259 7.827862,-4.12395 10.886974,-7.12556 3.308626,-3.21868 5.871871,-7.12108 7.609253,-11.23616 1.737383,-4.11509 2.648058,-8.43952 2.745348,-12.60454 0.131617,-4.65904 -0.930015,-9.16397 -2.687233,-13.0354 -1.757219,-3.87143 -4.208591,-7.11052 -6.937881,-9.57494 -3.153165,-2.90137 -6.564471,-4.88083 -9.705923,-6.30942 -3.141452,-1.42859 -6.019942,-2.30812 -8.381782,-2.93345 -2.36184,-0.62533 -4.21504,-0.99806 -5.46435,-1.31172 -1.24932,-0.31366 -1.89994,-0.56976 -1.91293,-0.83734 -0.0131,-0.26895 0.61811,-0.55085 1.91616,-0.76808 1.29804,-0.21722 3.26849,-0.37016 5.874034,-0.22031 2.605547,0.14985 5.854805,0.60364 9.541274,1.75575 3.686468,1.15211 7.817781,3.00579 11.892074,6.07892 3.553565,2.73054 6.85143,6.44889 9.319201,11.06381 2.467771,4.61492 4.101249,10.12854 4.232866,16.09218 0.09729,5.15111 -0.803318,10.51825 -2.784308,15.67207 -1.98099,5.15383 -5.04247,10.09042 -9.143269,14.28117 -3.820673,3.87817 -8.459293,7.02677 -13.577548,9.19566 -5.118254,2.1689 -10.712544,3.35614 -16.375674,3.36813 -5.6467,-0.008 -11.23522,-1.18417 -16.35781,-3.34675 -5.12259,-2.16259 -9.77562,-5.30942 -13.61372,-9.19874 -4.08993,-4.17278 -7.15753,-9.09508 -9.14976,-14.24981 -1.99224,-5.15473 -2.90905,-10.53795 -2.81748,-15.72174 0.0852,-5.34173 0.95354,-10.58903 2.74011,-15.30779 1.85742,-4.84608 4.71211,-8.90699 7.95717,-12.01558 1e-5,0 1e-5,0 1e-5,-10e-6 2.17765,-2.06582 4.45471,-3.70249 6.68646,-5.03205 2.23174,-1.32957 4.41872,-2.35209 6.47003,-3.1647 2.90636,-1.15531 5.54623,-1.92891 7.84336,-2.4806 2.29713,-0.5517 4.25273,-0.88 5.8307,-1.07455 3.15592,-0.38911 4.79186,-0.26727 4.85995,0.15031 z"
         id="path3951"
         inkscape:connector-curvature="0"
         sodipodi:nodetypes="csssc"
         inkscape:path-effect="#path-effect3965"
         inkscape:original-d="m -107.38936,771.58102 c 21.007827,0 38.933054,13.00265 38.933054,34.01047 0,21.00784 -17.030215,38.03805 -38.038044,38.03805 -21.00782,0 -38.03804,-17.03021 -38.03804,-38.03805 0,-21.00782 11.21264,-33.11546 38.48554,-38.93304" />
      <path
         inkscape:original-d="m -109.38936,769.58102 c 21.007827,0 38.933054,13.00265 38.933054,34.01047 0,21.00784 -17.030215,38.03805 -38.038044,38.03805 -21.00782,0 -38.03804,-17.03021 -38.03804,-38.03805 0,-21.00782 11.21264,-33.11546 38.48554,-38.93304"
         inkscape:path-effect="#path-effect3813"
         sodipodi:nodetypes="csssc"
         inkscape:connector-curvature="0"
         id="path3797"
         d="m -108.04533,764.66651 c 0.0676,0.41487 -1.41919,1.12705 -4.29845,2.28291 -1.43963,0.57792 -3.22352,1.27157 -5.28761,2.1499 -2.06408,0.87833 -4.40944,1.93987 -6.92121,3.31294 -1.77342,0.97312 -3.63152,2.10003 -5.46702,3.43995 -1.83551,1.33992 -3.64888,2.89269 -5.27845,4.73693 0,0 -1e-5,0 -1e-5,10e-6 -2.42322,2.71281 -4.47922,6.14107 -5.71746,10.05441 -1.24472,3.85853 -1.70135,8.26857 -1.61612,12.94792 0.0916,4.17793 1.00318,8.50627 2.737,12.61669 1.73382,4.11042 4.28891,7.99953 7.57793,11.20571 3.06282,3.01159 6.80258,5.45601 10.89177,7.13961 4.08918,1.6836 8.52419,2.60481 12.93061,2.59707 4.41925,0.012 8.862237,-0.91022 12.953714,-2.59281 4.091477,-1.68259 7.827862,-4.12395 10.886974,-7.12556 3.308626,-3.21868 5.871871,-7.12108 7.609253,-11.23616 1.737383,-4.11509 2.648058,-8.43952 2.745348,-12.60454 0.131617,-4.65904 -0.930015,-9.16397 -2.687233,-13.0354 -1.757219,-3.87143 -4.208591,-7.11052 -6.937881,-9.57494 -3.153165,-2.90137 -6.564471,-4.88083 -9.705923,-6.30942 -3.141452,-1.42859 -6.019942,-2.30812 -8.381782,-2.93345 -2.36184,-0.62533 -4.21504,-0.99806 -5.46435,-1.31172 -1.24932,-0.31366 -1.89994,-0.56976 -1.91293,-0.83734 -0.0131,-0.26895 0.61811,-0.55085 1.91616,-0.76808 1.29804,-0.21722 3.26849,-0.37016 5.87403,-0.22031 2.605551,0.14985 5.854809,0.60364 9.541278,1.75575 3.686468,1.15211 7.817781,3.00579 11.892074,6.07892 3.553565,2.73054 6.85143,6.44889 9.319201,11.06381 2.467771,4.61492 4.101249,10.12854 4.232866,16.09218 0.09729,5.15111 -0.803318,10.51825 -2.784308,15.67207 -1.98099,5.15383 -5.04247,10.09042 -9.143269,14.28117 -3.820673,3.87817 -8.459293,7.02677 -13.577548,9.19566 -5.118254,2.1689 -10.712544,3.35614 -16.375674,3.36813 -5.6467,-0.008 -11.23522,-1.18417 -16.35781,-3.34675 -5.12259,-2.16259 -9.77562,-5.30942 -13.61372,-9.19874 -4.08993,-4.17278 -7.15753,-9.09508 -9.14976,-14.24981 -1.99224,-5.15473 -2.90905,-10.53795 -2.81748,-15.72174 0.0852,-5.34173 0.95354,-10.58903 2.74011,-15.30779 1.85742,-4.84608 4.71211,-8.90699 7.95717,-12.01558 1e-5,0 1e-5,0 1e-5,-10e-6 2.17765,-2.06582 4.45471,-3.70249 6.68646,-5.03205 2.23174,-1.32957 4.41872,-2.35209 6.47003,-3.1647 2.90636,-1.15531 5.54623,-1.92891 7.84336,-2.4806 2.29713,-0.5517 4.25273,-0.88 5.8307,-1.07455 3.15592,-0.38911 4.79186,-0.26727 4.85995,0.15031 z"
         style="fill:url(#radialGradient4045);fill-opacity:1;stroke:none" />
    </g>
  </g>
</svg>
