<svg xmlns="http://www.w3.org/2000/svg" viewBox="0 0 144 144"><path fill-rule="evenodd" d="M129 67a41 41 0 010 3v2a34 34 0 000 4 16 16 0 010 2v2a57 57 0 010 2l-1 3v-1a45 45 0 000-2v3a50 50 0 01-2 6l-1 4-2 4 1-2v-1a96 96 0 00-3 6 48 48 0 01-8 11l-4 4-5 4a33 33 0 01-6 3 52 52 0 01-5 2 152 152 0 01-11 3 91 91 0 01-10 1l4 1a147 147 0 013 0h-2-5a52 52 0 01-5 0h-5l-9-3h-1l2 1h-2a59 59 0 01-16-8 61 61 0 01-14-14l-5-8-2-3a39 39 0 01-1-4l-2-4v-2l2 6c1 4 1 4-1-1l-2-6-1-6v-3a51 51 0 010-12l2-10a47 47 0 00-2 10l-1 3v-1l1-2a95 95 0 011-10l3-7v1l-1 2v1l1-2 2-5 1-2 1-3 2-3 2-2c0-1 1-2 0 0l-2 2c-9 12 7-10 1-2a60 60 0 0113-13l3-2-3 2-7 7-5 5-1 1-1 1 1-1 1-1 2-2 1-2a62 62 0 0115-13 63 63 0 00-14 11l-2 3 1-1 1-1c-4 3 4-5 5-6l11-7 1-1-5 3-4 2-1 1-4 4a63 63 0 00-16 22l1-2 1-2-1 2c-2 4-2 5-1 1a62 62 0 017-12l1-1 5-6 2-3a39 39 0 013-2l1-2 4-3 2-1 1-1 2-1-3 2-3 2-2 1 3-2a50 50 0 015-3h-1l-3 2-4 3-1 1-3 2a56 56 0 00-10 11l-2 2a25 25 0 012-2l1-2 8-8a67 67 0 0110-8l2-1h1a72 72 0 00-6 3l-6 5-6 5 1-1 7-6c-1 0 3-3 0 0l-3 2-2 2 2-2 10-7 1-1 1-1-1 1-4 2h1l1-1-1 1-5 3 1-1a73 73 0 017-4l-3 1-1 1-2 2-2 1a48 48 0 017-5l-1 1 1-1h-1l-4 3a56 56 0 00-12 11 153 153 0 00-5 7l-1 1-1 3-2 2 1-2 1-1 1-2 2-3 1-1 2-3a70 70 0 014-5l-6 8a85 85 0 00-3 4l-3 4a66 66 0 00-6 17v4c0-2 0-2-1 1v-1l1-4 1-5 2-5 2-6 1-1-2 4a54 54 0 00-4 12l-1 2v3c0 2 0 2 0 0v2a60 60 0 00-1 5v3c0 1 0 2 0 0v-1-2-3a72 72 0 000 12l1 2v3l1 4c1 6-1-3 0 0l-1-3c-4-22 3 16 0-2l1 4c0 4 0-1 0 0v1l1 2v1l1 2a286 286 0 001 5l1 3 1 3 1 1 1 2 1 2 2 2 1 2 1 1 2 2a38 38 0 003 4l-2-2a68 68 0 01-3-3l-2-2-1-2a54 54 0 008 10l-1-1c-1-1-2-2-1 0l4 3 2 2 2 1 3 3a41 41 0 005 3l2 1v1a68 68 0 01-7-5l-4-2-2-2-2-2-3-3h-1l2 2 4 3-2-2v1l1 1 4 3 2 1h-1v1a68 68 0 005 3h1c-1 0 0 0 0 0l2 1 2 1a13 13 0 003 1l2 1 2 1h1c1 0 1 0 0 0h-1a28 28 0 010-1l4 2 4 1h1l2 1h4l3 1a55 55 0 01-10-1l-4-1h-1a70 70 0 004 1h2l2 1h8a106 106 0 016 1h-6 3a69 69 0 0014 0 69 69 0 0018-6l3-1 1-1a68 68 0 006-3l6-5 6-6 3-3-3 3a77 77 0 007-8c1-2 0-1-1 0a50 50 0 010 1v-1l2-3 2-2 1-3a83 83 0 003-7 72 72 0 001-2l-1 3a55 55 0 01-5 10l-3 5a76 76 0 01-7 8l-3 2-4 4h-1 1l-2 1-5 4-4 2-3 1h1l6-3 2-2 2-1c2-2 1-1 0-1v1l3-3 4-3 2-2 4-4 3-4 1-1 1-2 2-3a61 61 0 005-10l3-10a68 68 0 000-25 71 71 0 00-9-25l1 2 3 7 3 7a88 88 0 012 18l-1-6-1-6a35 35 0 000-3v-1h-1v-1c-1-2 0 0 0 0v2l1 1h-1l-1-4a39 39 0 00-1-4c1 1 0 1 0 0l-1-2a112 112 0 01-3-8l-2-3-2-3-2-3a35 35 0 00-7-8l-4-3a66 66 0 00-16-9l-2-1a95 95 0 0114 7l7 5 6 8a52 52 0 018 11l-3-4a88 88 0 00-3-5l-5-6-5-5-1-1 2 2 3 3 2 2a58 58 0 017 10c1 0 1 0 0 0l-4-6-5-5-2-2 2 2 4 5a63 63 0 017 10v-1c-2-2-1-1 0 1a77 77 0 01-1-1 71 71 0 00-7-10l-3-3-1-1a70 70 0 00-8-7l-4-3a55 55 0 00-15-6 93 93 0 00-7-2 70 70 0 00-14-1h5a71 71 0 0116 3 66 66 0 0127 16l1 2 3 3-4-4a74 74 0 00-11-8c1 0 1 0 0 0l-3-3a76 76 0 00-8-3l-5-2a69 69 0 00-11-2l-4-1a58 58 0 003 1h5l7 2a65 65 0 0113 6l-1-1h-1l-1-1 2 1 5 4-2-1c-1-1-1-1 0 0 3 1 1 0 0 0a63 63 0 00-8-4h-1 2a58 58 0 0112 8l-9-6-7-2-1-1a38 38 0 00-4-1h-2l-4-1h-3l-3-1h-6l-3 1c-2 0-1 0 0 0a63 63 0 01-1 0 39 39 0 00-8 2l-4 1-4 1a58 58 0 00-2 1l3-1-3 1v1l-1 1h-1 2v-1a62 62 0 003-1l6-2a50 50 0 0115-2h2a52 52 0 0114 2 43 43 0 012 1h-2l-1-1h-1a18 18 0 00-3 0h-2a566 566 0 01-12 1 49 49 0 00-7 1 53 53 0 0112 0h-2 2a9 9 0 001 0h6v1h1l2 1h1 1a62 62 0 013 1h1a469 469 0 005 1l1 1 6 3a110 110 0 016 4h-1a25 25 0 003 2l1 1h1l1 2a42 42 0 017 9h-1a29 29 0 00-2-4c-2-2-1 0-1 0l2 2a57 57 0 016 10 22 22 0 01-2-3l1 2a34 34 0 011 2l1 2 1 5-1-1v-1l-1-2-1-3c8 20-11-25-1 0a92 92 0 014 12 77 77 0 011 6zm0 12zm-15-47zm15 25zm0-1l-1-2 1 2zm0 2a127 127 0 002 4l-2-4zm-57 74zM95 15l1 1a17 17 0 013 1l-3-1-1-1zm5 2zM17 99zm37 31l-3-1 3 1zM11 80v0zm36 48s1 0 0 0l-2-1 2 1zM10 74v-2s0-1 0 0a33 33 0 000 4v-2zm6-30l-1 1 2-4-1 3zm2-5l-1 2a23 23 0 012-3l-1 1zm85-23h1a32 32 0 010 1l-1-1zM23 30l-1 2a22 22 0 012-3l-1 1zm21-16l2-1a38 38 0 00-3 1v1l1-1zM10 56a17 17 0 010-1v1zm2-6l-1 1v1l1-2zm17-26l1-2 2-1 1-1-1 1-4 3h1zM16 39zm-5 53a79 79 0 000 1c-1-2-1-2 0 0l-1-2a51 51 0 012 5l1 1v0l-2-2-2-8 1 3v2l-2-7v-2 1l1 2v4l-1-5-1-6v-5 2l1 5c-3-12 4 21 0 3v-2l1 4 1 3 1 3zm-2-9c0 1 0 3-1 0a42 42 0 01-1-8v-5-1 7l2 7zm13-53l3-3a29 29 0 00-3 3zm72-20l1 1a64 64 0 01-2-1h1zM18 36l-4 5a41 41 0 015-7l1-2 2-2-2 3-2 3zM8 61a70 70 0 000 3l-1 3a16 16 0 000 2v-1a56 56 0 012-12l2-8v1c-1 3 0 0 0 0l2-5 2-4v-1l1-1a36 36 0 011-2l-1 2a68 68 0 00-8 23zm0-3l-1 4v2s0 1 0 0v-2l1-3v-3l2-5 1-4 2-5 3-5-1 2 2-3 2-4-1 2-2 2 3-4a59 59 0 014-5l2-1 2-3-2 2-1 1-1 2a47 47 0 00-4 4v1a148 148 0 00-5 9L8 58zm0 28l-1-6a71 71 0 010-13v8a64 64 0 001 11zm95-72h1a34 34 0 00-2-1l1 1zm-4-2c1 0 1 0 0 0l-2-1 2 1zM6 68c0 3 0 3 0 0a43 43 0 011-4l-1 4zM82 6zm-40 7zM20 30l3-2a33 33 0 00-3 2zm80-18zM25 25l-1 1s-1 1 0 0l2-2-1 1zm-5 6l-1 1v-1l4-4-3 4zm-8 12l-1 2v2h-1a52 52 0 014-7l-1 1-1 2zm-1 3s-2 4 0 0l1-3-1 3zm3-6h-1a28 28 0 011 0zM66 5a25 25 0 00-1 0h-2l-1 1 2-1h2zm65 36v-1a38 38 0 013 7v1l-2-4-1-3zM20 30l1-1 1-2-1 1-1 2zm116 23l-2-5 2 4v2l1 3-1-4zM15 37l-2 2c3-3-3 7 1-1a69 69 0 016-8l3-4 1-1 4-4-1 1 3-3 4-3-5 4a61 61 0 00-13 14l-1 3zm21-22l2-1 2-1v-1a24 24 0 01-1 1 54 54 0 00-5 4l2-2zM8 51s-1 4 0 0a17 17 0 011-1l-1 1zm5-11l-1 2 1-3c0 1 4-7 2-2l-2 3zm-2 4v1a40 40 0 013-8l-1 3-2 4zm7 66v1l-1-1-1-2 1 2h1zm1-80c-7 10 5-6 1-1l2-3-1 2-2 2zM5 67v-2 2zm8 35zm12-79l-1 2v-1a46 46 0 017-6l-1 1-5 4zM15 36l-1 1a50 50 0 014-6c2-2 2-2 0 0a78 78 0 00-3 5zm108-9a48 48 0 000 1l-1-2 1 1zm5 8l1 1a22 22 0 00-1-1zm-12-14c2 2 2 1 0 0l-1-1h1a11 11 0 00-1-1l-4-2c6 4-9-7 0-1l1 1 4 4zM15 106v1a22 22 0 010-1zm-4-7v0l-1-1a52 52 0 011 1zm121-59a150 150 0 000 2v-2zM24 118l2 2a26 26 0 01-2-2zM7 54a51 51 0 001-4l2-5 2-5-1 2a90 90 0 00-3 7l-1 3a110 110 0 000 2zm4 46v1a20 20 0 01-1-3l1 2zm17 22zm-5-98l3-2h-1a49 49 0 00-2 2zm10 103a56 56 0 00-1-1 16 16 0 001 1zm99-24a68 68 0 003-7l1-2-1 3-3 6-3 5 3-5zm-119 1l-1-2v1l1 2v-1zm124-13v-1-1a13 13 0 010 2zM9 47l2-5 1-4v1a51 51 0 00-3 6c4-9-5 14 0 2zm120 61l2-4 2-2-4 6c-1 2-1 1 0 0zM7 92zm6-55zM5 80zM88 5a59 59 0 00-3 0h3zM62 4c1 0 1 0 0 0h-2l-4 1a68 68 0 00-10 3 107 107 0 0113-3l3-1zM17 31h1v-1a17 17 0 00-1 1zM4 77zm8 26l-2-4-1-1 1 1a44 44 0 002 4zM4 73v-4-3 7zm54 65l-2-1a40 40 0 01-5-1h-4 3a46 46 0 013 1l3 1h3c1 0 1 0 0 0h-1zM4 65v-1 1zm132-18c-1 0 1 3-1-1v-1l-1-3v2l2 3zM14 36zm8-12l2-1a22 22 0 00-2 1zM52 6l-6 2 6-2zm17 133h-1a29 29 0 001 0zM5 60zm26-43l2-2h-1l-2 2h1zM7 51l1-5a43 43 0 00-1 5zm102-37l-1-1 1 1zM7 92l-1-2v-1a51 51 0 001 3zm84 45zm-5 1a196 196 0 00-2 1c-4 0 1 0 2-1zM12 38v-1l1-2 2-2c-1 1-1 1 0 0l1-2-1 1-1 2-1 2-2 3 1-1zm112 78l-1 1a30 30 0 001-1zm-104 0h-1l-2-3a29 29 0 003 3zm27 20l-1-1-2-1h-1l4 2c7 2-2-1 1 0h-1zM3 66v-2-3a38 38 0 011-4v-3l1-2a69 69 0 00-2 10v4zm134 29v-1l1-2-1 2v1zM20 116zm96-98zm20 80l-1 1c0 1 0 1 0 0l2-3c0-2 0 0-1 1v1zm-75 42l-2-1a31 31 0 004 1h-2zM3 64v-1a21 21 0 000 3v-1-1zm2 26z"/></svg>