<svg xmlns="http://www.w3.org/2000/svg" width="144" height="144" viewBox="0 0 38.109 38.109"><path d="M34.034 17.657c.738 5.275-1.954 10.657-6.064 13.877-2.454 1.83-5.516 2.564-8.512 2.83 1.418.684-1.683.402-2.443.325-1.97-.33-3.966-.753-5.813-1.512-4.144-2.092-7.367-6.031-8.394-10.58.337 1.718-.69-1.577-.59-2.19-.203-1.933.052-3.884.475-5.772-.17.85-.609 2.87-.295.886.38-2.238 1.568-4.21 2.615-6.185.283-.707 1.912-2.47 2.977-3.339 1.43-1.294-1.129.825-1.464 1.367-.534.614-1.653 1.889-.566.463 1.13-1.33 2.525-2.407 3.96-3.385-1.185.552-3.057 2.658-3.429 2.7.577-1.087 3.427-2.582 3.245-2.805C6.735 6.15 4.457 9.016 3.064 12.21c1.33-3.59 3.931-6.661 7.162-8.694-.483.498-1.621.768-.465.139C7.72 4.907 5.86 6.5 4.48 8.468c1.37-2.253 3.573-3.805 5.726-5.243-1.257.476-3.133 2.48-3.623 2.644.593-.715 2.994-2.432 2.784-2.234-.357.259-1.058.608-.24.075-.882.611-.522.335.113-.179-2.691 1.515-4.645 4.03-6.169 6.662.3-.935 2.113-2.99 1.863-3.01C2.874 9.72 1.664 12.852 1.06 16.04c-.091-1.535 1.124-4.088 1.164-4.793-1.04 2.246-1.367 4.747-1.404 7.2-.09-.883-.045 1.832.073 2.36.16 1.114.39 1.816.08.313.083.369.606 3.08 1.143 4.29a15.646 15.646 0 003.25 5.21c-.565-.634-1.792-1.878-.64-.48 1.358 1.695 3.174 2.924 4.892 4.22-1.534-.748-2.768-1.955-4.093-3.005 2.55 3.19 6.59 4.597 10.482 5.287.707.226-3.203-.283-.89.08 1.862-.174 3.224.751 5.023.464 6.927-.42 13.49-5.08 15.92-11.621-1.674 4.273-5.175 7.686-9.285 9.644 8.012-3.737 12.723-13.81 9.625-22.249-.233-.92-1.615-3.552-1.481-3.294 1.376 2.383 1.847 5.152 2.078 7.858-.718-6.564-4.62-13.11-10.919-15.637 3.61 1.643 6.755 4.444 8.504 8.033C33.551 7.832 31.94 6.1 30.22 4.56c.949.596 2.883 3.105 2.855 3.033-.381-.565-2.48-2.498-1.006-1.012.994.92 2.547 3.632 2.521 3.962C31.597 4.808 25.41.683 18.866.726c5.12.013 10.179 2.46 13.357 6.477-3.037-3.586-7.609-5.715-12.266-6.064 2.515.212 4.988.947 7.193 2.176-.555-.126 1.86 1.16.262.315-.783-.417-1.49-.547-.292-.069.8.363 1.93 1.279.534.377-4.323-2.445-9.78-2.523-14.3-.56 1.363.388 2.811-1.136 4.367-.849 2.148-.223 4.355-.053 6.407.64-2.238-.59-4.609-.356-6.82.233 3.202-.261 6.407.596 9.379 1.696 2.067 1.165 3.99 2.78 5.21 4.823-.437-.019 1.401 2.183 1.498 3.209.644 2.777-1.636-3.149-.715-.884.734 1.708 1.513 3.507 1.354 5.411zm0-2.908c-.078-.38-.1-.487 0 0zm.192.549c.72.71-.172 1.237 0 0zM24.979 3.856c.427.009 1.143.499.316.158zm-10.92 30.621c-.643-.179-.385-.107 0 0zM2.533 21.224c.041.226.089.485 0 0zm9.576 12.622c-.252-.081-.29-.093 0 0zM2.314 19.578c-.024-.313-.04-.53 0 0zm1.592-8.177l.142-.283zm.576-1.234l-.1.164zM27.256 4.13l.255.127zM5.881 7.78l-.044.044zm5.488-4.254l.318-.16zM2.26 14.612l.007-.031zm.494-1.564c-.103.283-.189.517-.034.095zm4.61-6.97c.878-.737.743-.687 0 0zm-4.856 18.11c.62 2.045-.534-1.522-.329-.58-.03-.168-.442-1.694-.226-.773-.358-.842-.571-3.795-.224-1.323.198.909.492 1.792.779 2.676zM1.93 21.91c-.404-.79-.339-3.507-.192-1.178.053.395.118.787.192 1.178zM5.607 7.725c.397-.395.384-.506 0 0zM24.65 2.539c.168.056.104.034 0 0zM4.427 9.26c-1.216 1.775.955-1.6.52-.805-.171.27-.347.536-.52.805zm-2.634 6.805c-.012.676-.455 2.567-.244.795.254-2.477 1.171-4.836 2.347-7.013-1.011 1.946-1.862 4.02-2.103 6.218zm0-.713A17.26 17.26 0 014.285 9.04c.299-.8 2.482-3.068 1-1.254-1.733 2.205-2.889 4.835-3.492 7.567zm.055 7.243c-.36-.715-.474-4.078-.308-1.735.07.583.175 1.163.308 1.735zm25.38-19.152l-.126-.066zm-1.152-.576l-.066-.027zM1.382 17.849l.018-.365zm3.731-9.987c.451-.513.282-.421 0 0zm1.098-1.345c-.21.048.735-.631 0 0zM4.894 8.054c.53-.645.12-.146 0 0zm-1.976 3.292c-.543 1.275.187-.642.006-.015zm-.384.741c.138-.355.237-.612 0 0zm.74-1.646l-.054.082zm14.077-9.33c-.75 0-.52.143 0 0zm17.204 9.467c.55.913.733 1.768.16.325zM5.003 7.67c.279-.316.425-.53 0 0zm30.924 6.31l.085.31zM3.549 9.729c.991-1.91 2.424-3.575 4.13-4.88a17.478 17.478 0 00-4.13 4.88zm5.762-5.982c.644-.335.784-.541 0 0zm-7.463 9.686l.034-.129zm1.29-3.073c.183-.389.636-1.13.18-.314zm-.55 1.097c.643-1.548.644-1.295 0 0zm1.757 17.698c-.375-.491-.294-.36 0 0zm.384-21.347l.045-.06zM.997 17.712c.016-.263.047-.792 0 0zM6.321 5.996c.667-.758 1.215-1.032.184-.186zM3.686 9.234l.19-.29zM32.36 7.039l-.129-.146zm1.564 2.112l.055.083zM30.63 5.31c-.483-.501-1.67-1.337-.482-.43l.244.212zM3.521 28.084l.056.082zm-1.014-1.92c.75.491-.138.328 0 0zm32.24-15.668c.137.257.35.658 0 0zM6.019 31.349c.29.296.467.475 0 0zM1.464 14.228c.02-.787 1.326-3.85.443-1.692a9.153 9.153 0 00-.443 1.692zM2.56 26.3c.588 1.004-.372-.403 0 0zM5.854 6.243l.19-.206zm2.58 27.274l-.13-.08zm26.34-6.366c.268-.629 1.081-2.108.432-.664-.19.494-1.11 1.834-.432.664zm-31.691.384c-.184-.847-.272-.071 0 0zm33.008-3.402l.12-.357zM1.985 12.17c.387-.76.788-1.997.203-.547-.017.049-.454 1.148-.203.547zM33.98 28.633c.373-.731.884-1.23.154-.208zM23.03 1.139c-.297-.063-.53-.113-.095-.02zM16.308.837c-.777-.07-3.423.765-2.833.62.929-.269 1.874-.491 2.833-.62zm-12.1 7.217c.137-.2.475-.69 0 0zM2.726 27.096c-.28-.65-.57-1.022 0 0zM.696 19.14c.076-1.218-.116-1.167 0 0zm14.487 17.396c-.884-.249-2.502-.397-.7-.06.229.054.466.098.7.06zM.75 17.054v-.14zm35.067-4.775c-.086-.397-.47-1.12-.14-.31zM5.607 6.27c.275-.308.443-.497 0 0zm7.848-4.939c-.723.254-.161.057 0 0zm4.527 35.643l-.138.001zM7.802 4.185c.463-.246.334-.342 0 0zm-6.366 9.082c.215-.534.286-.972 0 0zm27.302-9.823l-.18-.12zM1.382 24.215c-.205-.646-.124-.39 0 0zm21.237 12.43c-.557.367-.414-.122 0 0zM2.809 9.92c.62-.96.637-1.416.025-.17-.147-.161-.164.457-.026.17zm29.825 20.853l-.053.081zm-27.658 0c-.674-.803-.54-.486 0 0zm7.271 5.158c-1.11-.403 1.28.505 0 0zm23.927-10.948l.137-.369zM30.686 4.651h.027zm5.186 21.238c.128-.3.218-.51 0 0zM16.034 37.002c-.385-.048-.494-.061 0 0z" fill-rule="evenodd"/></svg>