<svg xmlns="http://www.w3.org/2000/svg" width="144" height="144"><defs><filter id="a"><feGaussianBlur stdDeviation="1.947"/></filter></defs><path d="M-106.045 766.667c.135.83-6.46 2.253-16.508 7.745-3.454 1.896-7.542 4.552-10.745 8.177a27.712 27.712 0 0 0-5.718 10.055c-1.255 3.893-1.702 8.224-1.616 12.947.183 8.352 3.678 17.352 10.315 23.823 6.144 6.041 14.96 9.752 23.823 9.737 8.89.024 17.705-3.7 23.84-9.719 6.68-6.498 10.16-15.518 10.355-23.84.268-9.49-4.226-17.735-9.625-22.61-6.155-5.664-13.698-8.082-18.088-9.244-4.766-1.262-7.347-1.52-7.377-2.149-.021-.428 2.534-1.29 7.79-.988 4.88.28 13.42 1.79 21.433 7.834 7.05 5.417 13.285 15.035 13.552 27.156.195 10.32-3.643 21.488-11.927 29.954-7.679 7.794-18.544 12.54-29.953 12.564-11.374-.016-22.257-4.728-29.972-12.546-8.26-8.427-12.15-19.582-11.967-29.972.086-5.385.94-10.554 2.74-15.307a33.029 33.029 0 0 1 7.957-12.016c4.3-4.079 9.146-6.608 13.157-8.197 11.793-4.688 18.492-3.657 18.534-3.404z" transform="matrix(1.46487 0 0 1.46646 228.825 -1111.721)" filter="url(#a)"/></svg>