<?xml version="1.0" encoding="UTF-8" standalone="no"?>
<svg
   xmlns:dc="http://purl.org/dc/elements/1.1/"
   xmlns:cc="http://creativecommons.org/ns#"
   xmlns:rdf="http://www.w3.org/1999/02/22-rdf-syntax-ns#"
   xmlns:svg="http://www.w3.org/2000/svg"
   xmlns="http://www.w3.org/2000/svg"
   xmlns:sodipodi="http://sodipodi.sourceforge.net/DTD/sodipodi-0.dtd"
   xmlns:inkscape="http://www.inkscape.org/namespaces/inkscape"
   width="611.2"
   height="603"
   viewBox="0 0 161.8 159.6"
   version="1.1"
   id="svg15"
   sodipodi:docname="logo.svg"
   inkscape:version="1.0.1 (3bc2e813f5, 2020-09-07, custom)">
  <metadata
     id="metadata21">
    <rdf:RDF>
      <cc:Work
         rdf:about="">
        <dc:format>image/svg+xml</dc:format>
        <dc:type
           rdf:resource="http://purl.org/dc/dcmitype/StillImage" />
      </cc:Work>
    </rdf:RDF>
  </metadata>
  <defs
     id="defs19">
    <filter
       style="color-interpolation-filters:sRGB;"
       inkscape:label="Drop Shadow"
       id="filter929">
      <feFlood
         flood-opacity="0.498039"
         flood-color="rgb(0,0,0)"
         result="flood"
         id="feFlood919" />
      <feComposite
         in="flood"
         in2="SourceGraphic"
         operator="in"
         result="composite1"
         id="feComposite921" />
      <feGaussianBlur
         in="composite1"
         stdDeviation="3"
         result="blur"
         id="feGaussianBlur923" />
      <feOffset
         dx="6"
         dy="6"
         result="offset"
         id="feOffset925" />
      <feComposite
         in="SourceGraphic"
         in2="offset"
         operator="over"
         result="composite2"
         id="feComposite927" />
    </filter>
  </defs>
  <sodipodi:namedview
     pagecolor="#ffffff"
     bordercolor="#666666"
     borderopacity="1"
     objecttolerance="10"
     gridtolerance="10"
     guidetolerance="10"
     inkscape:pageopacity="0"
     inkscape:pageshadow="2"
     inkscape:window-width="1842"
     inkscape:window-height="1232"
     id="namedview17"
     showgrid="false"
     inkscape:zoom="0.73642298"
     inkscape:cx="609.76933"
     inkscape:cy="202.08028"
     inkscape:window-x="772"
     inkscape:window-y="86"
     inkscape:window-maximized="0"
     inkscape:current-layer="svg15" />
  <filter
     id="a">
    <feGaussianBlur
       in="SourceAlpha"
       stdDeviation="1"
       id="feGaussianBlur2" />
    <feOffset
       dx="1"
       dy="2"
       id="feOffset4" />
    <feMerge
       id="feMerge10">
      <feMergeNode
         id="feMergeNode6" />
      <feMergeNode
         in="SourceGraphic"
         id="feMergeNode8" />
    </feMerge>
  </filter>
  <path
     id="path13"
     d="m 136.65987,74.697265 c 2.6964,18.167742 -6.37706,36.389865 -19.43615,48.567415 -9.21661,7.84395 -21.370939,11.22836 -33.232269,12.2077 -0.38853,1.59921 3.74999,1.33356 -0.81402,1.80779 -15.9665,-0.13084 -32.729352,-4.58281 -44.235249,-16.22695 -7.931687,-7.61881 -13.745026,-17.50643 -16.182308,-28.255955 1.546211,8.050375 -2.786464,-7.352066 -2.250439,-10.104878 -0.474103,-6.834232 0.382341,-13.740069 2.350439,-20.295122 -1.170807,3.067206 -2.78329,12.570075 -1.580883,4.38178 1.816105,-8.373876 5.887035,-16.031943 10.289101,-23.305167 -3.322996,3.692633 3.70251,-5.577495 5.309298,-6.756927 2.400878,-2.532789 11.659995,-10.340129 4.265774,-4.228383 -2.698558,2.270118 -7.675447,8.233149 -8.395322,8.82936 C 37.574584,34.846966 43.727152,29.3139 50.859874,25.497265 45.626199,27.339452 37.978582,36.066341 36.336657,36.430628 39.156354,32.350601 49.504173,26.310672 49.452419,25.441877 37.989974,32.022245 29.043758,42.644485 23.959874,54.797265 c -0.02004,-0.64855 -0.841707,0.646518 0.801902,-2.213111 -2.240457,4.553308 2.600473,-6.15767 3.872095,-7.626103 5.547061,-9.154291 13.276781,-17.034926 22.526003,-22.460787 -1.847177,1.55071 -7.400546,4.018718 -2.491238,0.974299 -7.777116,4.581058 -14.653004,10.737002 -19.889681,18.101083 5.462529,-8.459682 13.524789,-14.905025 22.180919,-19.875382 -5.33419,1.804345 -14.050681,10.570068 -15.112839,11.045427 3.401109,-3.432813 5.37148,-5.696196 10.714625,-9.011518 -2.81017,1.78245 -2.738728,1.584774 -0.04797,-0.241111 -2.088965,1.41211 -3.744185,2.498029 -0.617404,-0.0199 -9.702707,5.977298 -17.345335,14.944166 -22.536412,25.027103 1.534568,-4.518867 8.795063,-13.020904 8.705445,-13.715644 -8.52166,9.722316 -13.483183,22.143122 -15.616501,34.794158 -0.391293,-6.206685 4.309786,-16.381095 4.774328,-19.278395 -4.186645,8.635844 -5.556361,18.3458 -5.619135,27.86059 -0.223161,-8.164424 -0.72065,4.6096 0.202345,6.84016 0.980155,5.786101 1.985608,11.250972 4.247932,17.242286 1.69896,6.64458 10.123482,17.76051 11.590301,19.27466 -2.372262,-2.44902 -5.353404,-5.67375 -1.493575,-0.98995 5.207298,6.20587 11.822121,10.99881 18.456106,15.55714 -5.973916,-2.8414 -10.883895,-7.39501 -15.942414,-11.5671 9.231431,11.47608 23.788045,16.55672 37.791075,19.19513 2.11778,1.06737 -11.52246,-1.307 -3.35877,0.38023 7.21987,-0.6018 14.1007,2.82013 21.28841,1.50013 17.807429,-1.78842 34.820959,-10.97808 45.832759,-25.12534 1.51003,-1.7215 6.569,-8.49747 8.07558,-13.01995 2.31328,-5.10603 -2.46205,5.41092 -3.95985,6.95294 -6.82744,10.38838 -16.69728,18.62591 -27.83778,24.05589 28.07568,-13.50493 45.356,-48.245781 35.49254,-78.468094 -1.0725,-4.797375 -5.94249,-14.246751 -6.67612,-15.253892 5.61038,9.721646 8.06995,21.010426 8.24732,32.165051 -1.48727,-23.703051 -14.60425,-47.56622 -36.40247,-58.229066 -2.01907,-1.025407 -6.57927,-2.912308 -1.87938,-0.791826 12.46532,6.065951 23.28243,15.971334 29.38185,28.520892 -4.32487,-7.743554 -9.92067,-14.891866 -17,-20.3 5.27045,3.701119 9.04789,9.056062 13.1097,13.962189 -1.32743,-2.384421 -9.19243,-9.973451 -3.90504,-4.200857 3.57096,3.513427 8.61659,13.402669 8.64855,14.491259 C 128.74601,28.172443 104.94518,12.057542 79.951341,12.960788 99.078861,12.680643 118.3449,21.457912 130.05987,36.697265 119.16418,23.901151 102.92709,16.093637 86.255971,14.696256 c 9.25386,1.064788 18.456519,3.617273 26.503899,8.401008 -5.83544,-2.898149 5.80162,3.781082 -0.45986,0.491886 -3.37828,-1.536276 -5.40362,-2.254982 -0.85553,-0.229662 2.99341,1.584539 6.7371,4.373549 1.49454,1.130694 -15.961909,-8.545094 -35.914919,-8.979584 -52.315569,-1.371146 4.65896,0.880199 10.32351,-3.97916 15.84788,-3.357284 8.03176,-0.99606 16.2828,-0.248676 23.988539,2.235512 -7.277179,-1.816932 -15.323569,-1.734091 -22.437019,0.628506 10.738,-0.310946 21.36228,2.570383 31.359199,6.223629 7.67419,3.861186 13.95039,10.153252 19.25742,16.775135 1.02627,5.072659 6.24873,9.560876 5.65783,15.455118 -1.55041,-3.043158 -3.48808,-8.077873 -1.05244,-2.178983 2.03112,5.004269 3.71026,10.329845 3.41501,15.796596 z m 0,-10.6 c -1.48424,-1.232742 0.81534,-1.166468 0,0 z m 0.7,2 c 1.81607,2.388098 -0.0266,3.684875 0,0 z m -33.7,-41.700001 c 2.80418,0.499476 3.46257,1.947294 0,0 z M 63.859871,135.99726 c -2.33972,-0.28254 -1.63788,-0.82542 0,0 z m -41.999997,-48.299995 0.06898,0.39051 z m 34.899997,45.999995 c -0.78365,0.10009 -1.996483,-1.22972 0,0 z M 21.059874,81.697265 c 0.577307,-2.167103 -0.800394,-1.298721 0,0 z m 5.8,-29.8 c 0.301595,-0.603189 0.157188,-0.314375 0,0 z m 2,-4.5 c -1.69834,1.141973 0.01712,1.458556 0,0 z m 82.999996,-22 1.0431,0.519616 z m -77.699996,13.3 c 0.452519,-0.542419 0.317629,-0.380731 0,0 z m 20,-15.500001 c 3.914607,-0.900706 -1.426136,-0.338446 0,0 z m -33.3,40.500001 0.02095,-0.121059 z m 1.8,-5.7 c 0.105058,1.407755 -1.227284,1.469543 0,0 z m 16.8,-25.5 c 3.041895,-2.553534 1.899626,-1.949756 0,0 z m -17.7,66 c 2.019791,6.625855 -0.294257,-0.578322 -1.354357,-2.60279 0.723993,2.998985 -2.038279,-7.293689 -2.156064,-9.9078 -0.247528,-4.64221 1.028944,7.154492 1.689281,6.52709 0.554314,2.009057 1.003915,4.058321 1.82114,5.9835 z m -2.1,-8.3 C 18.235941,88.185754 18.3884,77.49571 18.791934,84.76991 c 0.184804,1.823555 0.454939,3.640663 0.86794,5.427355 z m 13.4,-51.7 c 1.545425,-1.53679 1.40644,-1.941508 0,0 z M 102.45987,19.697264 102.8414,19.8305 Z M 28.759874,44.097265 c -4.803612,7.159972 4.981874,-8.364172 0.201781,-0.412397 l -0.166428,0.340143 z m -9.6,24.8 c -0.175367,2.570648 -1.573931,9.079794 -0.889775,2.802472 0.976019,-8.711781 4.056985,-17.068496 8.152465,-24.776257 -3.621064,6.844533 -6.386359,14.242735 -7.26269,21.973785 z m 0,-2.6 c -0.928439,5.679764 0.807965,-5.533129 1.852485,-7.247238 2.921456,-9.357359 7.894296,-18.117342 14.700201,-25.196951 -7.882396,9.351241 -14.09802,20.375346 -16.552686,32.444189 z m 0.2,26.4 c -1.605896,-3.415454 -1.364582,-11.742566 -1.569392,-12.535439 0.09038,4.216534 0.547228,8.438332 1.569392,12.535439 z m 92.499996,-69.800001 -0.41115,-0.214095 z m -4.2,-2 -1.17672,-0.571126 z M 17.659874,75.397265 c 0.03702,-0.703452 0.02571,-0.48857 0,0 z m 13.6,-36.4 c 1.55271,-1.756823 1.260086,-1.839001 0,0 z m 4,-4.9 0.306612,-0.352856 z m -4.8,5.6 c 0.7981,-1.22447 2.90508,-3.276956 0.830146,-0.898929 z m -7.2,12 c -2.508874,5.451196 1.348829,-3.652492 0.178849,-0.424992 l -0.146882,0.349029 z m -1.4,2.7 c -0.166759,-1.666666 1.47258,-1.440354 0,0 z m 2.7,-6 -0.2,0.3 z M 75.859871,14.397264 c -2.63317,-0.11372 -1.71264,0.761879 0,0 z m 62.599999,34.500001 c 2.32407,4.303973 2.16755,4.90235 0,0 z m -107.599996,-10.6 0.917983,-1.129544 z m 112.699996,23 c -0.78191,-2.674862 1.06523,4.004737 0,0 z m -118.099996,-15.5 c 2.16986,-4.379423 6.13171,-9.671695 10.153021,-13.482753 1.432499,-1.549595 6.629195,-5.695256 2.224031,-1.925045 -4.889168,4.454603 -9.086777,9.669278 -12.377052,15.407798 z m 21,-21.800001 c 5.089199,-3.126841 -2.938812,1.693797 0,0 z m -27.1,35.300001 c -1.160885,3.455273 1.500089,-4.815633 0,0 z m 4.7,-11.2 c 1.046792,-2.096811 2.062699,-3.486312 0,0 z m -2,4 c 1.224549,-3.740225 2.610977,-5.071775 0.32967,-0.778757 z m 6.4,64.599995 c -1.58224,-0.70883 -0.500112,-2.07535 0,0 z m 1.4,-77.799995 c 0.898387,-1.128183 1.276385,-1.602869 0,0 z m -13.6,36 c 0,-1.428428 0,-2.072714 0,0 z m 19.4,-42.7 c 2.495497,-3.10452 4.513559,-3.898857 0.605767,-0.68612 z m -9.6,11.8 c 1.545293,-2.447631 2.37822,-3.733156 0,0 z m 104.499996,-8 -0.50047,-0.588345 z m 5.7,7.7 0.2,0.3 z m -12,-14 c -2.33648,-2.399442 -6.74657,-5.370457 -1.78552,-1.585651 0.60612,0.516042 1.20214,1.044009 1.78552,1.585651 z m -98.799996,82.999995 0.2,0.3 z m -3.7,-7 c 1.795743,1.55399 -0.365871,1.13763 0,0 z M 139.25987,48.697265 c 0.62608,1.096762 1.18145,2.069658 0,0 z M 34.459874,124.69726 c 0.598584,0.57302 2.286053,2.18841 0,0 z m -16.5,-62.599995 c 0.157466,-3.221284 5.491444,-15.583882 1.883862,-6.857502 -0.819666,2.226449 -1.504155,4.511899 -1.883862,6.857502 z m 4,43.999995 c 2.253532,3.72872 -1.366493,-1.28643 0,0 z m 12,-73.099995 c 0.81879,-0.855743 1.314716,-1.374051 0,0 z m 9.4,99.399995 -0.656522,-0.40851 z m 95.999996,-23.2 c 1.10371,-2.10724 3.99336,-8.27704 1.68738,-2.8278 -0.81902,2.05241 -4.91635,8.46951 -1.68738,2.8278 z m -115.499996,1.5 c -0.437687,-0.76226 -1.524172,-2.65443 0,0 z M 144.15987,98.297265 c 0.21672,-1.95549 0.8794,-1.114992 0,0 z m -124.299996,-43.6 c 1.778959,-3.774241 2.832401,-7.155864 0.553307,-1.387795 z M 136.45987,114.69726 c 1.51701,-2.90461 3.04922,-4.05911 0.34698,-0.33823 -0.0232,0.11266 -1.76267,2.36272 -0.34698,0.33823 z M 96.459871,14.497264 l -1.33101,-0.28327 z m -24.5,-1 c -3.32998,-0.179694 -10.5377,2.040977 -11.16571,2.403955 3.64697,-1.10205 7.36578,-2.032967 11.16571,-2.403955 z M 27.959874,39.697265 c 0.615535,-0.941263 1.429773,-2.186378 0,0 z m -5.5,69.399995 c -1.212229,-2.53051 -1.110132,-2.57354 0,0 z m -7.3,-28.999995 c 0.204983,-4.042206 -0.326518,-4.747653 0,0 z m 52.799997,63.399995 c -3.0862,-0.86738 -10.30234,-1.63774 -3.19087,-0.37864 1.04895,0.18075 2.10709,0.63754 3.19087,0.37864 z M 15.359874,72.497265 v -0.405924 z m 127.799996,-17.4 c -1.37141,-4.052454 -1.22601,-2.620554 0,0 z m -110.099996,-21.9 c 0.564152,-0.631435 2.083941,-2.332481 0,0 z M 61.659871,15.197264 c -3.03319,0.965122 -4.30119,1.421689 0,0 z m 16.5,129.999996 -0.77112,0.003 z M 41.059874,25.697265 c 1.076629,-0.79426 1.807212,-1.333233 0,0 z m -23.2,33 c 0.425438,-1.311462 0.668225,-2.059885 0,0 z m 99.499996,-35.800001 -0.7715,-0.514591 z M 17.659874,98.697265 c -0.353582,-2.133857 -0.762255,-1.370644 0,0 z m 77.399997,45.299995 c -1.91648,1.17769 -1.61716,-0.33669 0,0 z M 22.859874,46.497265 c 1.907008,-3.112503 2.646492,-5.655683 0.322034,-1.102541 0.03143,-0.09213 -1.680982,3.186558 -0.322034,1.102541 z m 108.699996,75.999995 -0.19228,0.2969 z m -100.799996,0 c -1.453921,-2.15722 -2.592669,-1.89914 0,0 z m 26.499997,18.8 0.25098,0.10165 z M 14.259874,73.297265 c 0.05635,-2.724366 1.831072,-13.894845 0.466622,-6.052536 -0.277639,2.005564 -0.438246,4.027847 -0.466622,6.052536 z m 130.199996,28.099995 0.0625,-0.15626 z m -1.1,3.3 0.0107,-0.0278 z m -72.299999,40.5 c -1.3386,-0.17674 -2.20233,-0.29078 0,0 z m -56.999997,-73.499995 -0.04533,0.784683 z"
     style="fill:#2a4365;fill-opacity:1;filter:url(#filter929)" />
</svg>
