<?xml version="1.0" encoding="UTF-8" standalone="no"?>
<svg
   width="512"
   height="512"
   viewBox="0 0 135.50933 135.50933"
   version="1.1"
   id="svg14"
   sodipodi:docname="logo.svg"
   inkscape:version="1.2.1 (9c6d41e410, 2022-07-14)"
   inkscape:export-filename="logo.png"
   inkscape:export-xdpi="103.33455"
   inkscape:export-ydpi="103.33455"
   xmlns:inkscape="http://www.inkscape.org/namespaces/inkscape"
   xmlns:sodipodi="http://sodipodi.sourceforge.net/DTD/sodipodi-0.dtd"
   xmlns:xlink="http://www.w3.org/1999/xlink"
   xmlns="http://www.w3.org/2000/svg"
   xmlns:svg="http://www.w3.org/2000/svg">
  <sodipodi:namedview
     id="namedview16"
     pagecolor="#ffffff"
     bordercolor="#666666"
     borderopacity="1.0"
     inkscape:showpageshadow="2"
     inkscape:pageopacity="0.0"
     inkscape:pagecheckerboard="0"
     inkscape:deskcolor="#d1d1d1"
     showgrid="false"
     inkscape:zoom="0.39333333"
     inkscape:cx="382.62712"
     inkscape:cy="387.71187"
     inkscape:window-width="1468"
     inkscape:window-height="1133"
     inkscape:window-x="736"
     inkscape:window-y="139"
     inkscape:window-maximized="0"
     inkscape:current-layer="svg14" />
  <defs
     id="defs10">
    <linearGradient
       id="a">
      <stop
         style="stop-color:#24cffb;stop-opacity:1"
         offset="0"
         id="stop2" />
      <stop
         style="stop-color:#c636af;stop-opacity:1"
         offset=".5"
         id="stop4" />
      <stop
         style="stop-color:#f58a28;stop-opacity:1"
         offset="1"
         id="stop6" />
    </linearGradient>
    <linearGradient
       xlink:href="#a"
       id="b"
       x1="15.3"
       y1="32"
       x2="145.10001"
       y2="133.39999"
       gradientUnits="userSpaceOnUse"
       gradientTransform="matrix(0.68068057,0,0,0.68068057,13.630332,13.787709)" />
  </defs>
  <rect
     style="fill:#1e293b;fill-opacity:1;stroke-width:2.77796;stroke-linecap:round;stroke-miterlimit:10;paint-order:fill markers stroke"
     id="rect2111"
     width="135.50932"
     height="135.50932"
     x="3.4399413e-06"
     y="3.4399413e-06"
     ry="0" />
  <circle
     style="fill:#1e293b;fill-opacity:1;stroke-width:1.86786;stroke-linecap:round;stroke-miterlimit:10;paint-order:fill markers stroke"
     id="path228"
     cx="245.03319"
     cy="278.51544"
     r="54.124332" />
  <path
     d="m 111.64834,64.158073 c 2.72272,14.294291 -4.76477,29.269267 -15.655659,39.479467 -7.487483,6.12613 -17.017012,8.84885 -26.54654,9.52953 -0.680681,1.36137 2.722721,1.36137 -0.680681,2.04204 C 55.832529,114.52844 42.218916,111.12502 32.689389,101.5955 26.563263,95.469383 21.798499,87.301213 19.756458,78.452364 l -2.042043,-8.168166 2.042043,-16.336335 c -0.680681,2.722724 -2.042043,10.21021 -1.361362,3.403404 A 63.303295,63.303295 0 0 1 31.328028,32.846766 c 2.042042,-2.042042 9.529529,-8.168168 3.403403,-3.403404 l -6.806806,7.487487 c 4.084083,-5.445444 8.848847,-9.529527 14.974972,-12.932931 -4.764764,1.361361 -10.890889,8.848848 -12.25225,8.848848 C 33.37007,29.443362 41.538236,24.678598 41.538236,23.997918 32.008708,29.443362 25.201903,37.61153 21.11782,47.821739 l 0.680679,-2.042042 2.722723,-6.126125 C 29.285986,32.166086 35.412111,26.03996 42.899597,21.275196 l -2.04204,1.361362 c -6.126126,3.403402 -11.571571,8.168166 -16.336335,14.294291 4.764764,-6.806806 10.890889,-12.252251 18.378375,-16.336334 -4.764764,2.042043 -11.571569,8.848847 -12.25225,9.529528 2.722723,-2.722721 4.084084,-4.764764 8.168167,-7.487485 -2.042042,1.36136 -2.042042,1.36136 0,0 -1.361361,0.680679 -2.722722,2.04204 0,0 -8.168167,4.764764 -14.294292,11.571569 -18.378375,19.739736 l 6.806805,-10.890889 a 57.177168,57.177168 0 0 0 -12.25225,28.588584 c -0.680681,-5.445445 3.403402,-13.613611 3.403402,-15.655653 -3.403402,6.806806 -4.084083,14.974972 -4.084083,22.462459 v 5.445445 a 55.135128,55.135128 0 0 0 12.932931,29.94993 c -2.042041,-2.04203 -4.764764,-4.764757 -1.361361,-0.68067 4.084083,4.76476 9.529528,8.84884 14.974974,12.25225 -4.764765,-2.04205 -8.848849,-6.12612 -12.932932,-9.52954 7.487486,9.52954 19.059055,13.61362 30.630626,15.65567 1.361361,0.68068 -9.529528,-0.68069 -2.722722,0.68068 5.445444,-0.68068 11.571569,2.04204 17.017014,0.68067 A 54.454447,54.454447 0 0 0 116.4131,90.704618 l -3.4034,5.445445 c -5.44545,8.848847 -12.93293,14.974957 -22.46246,19.739727 23.14313,-10.89088 36.75675,-39.479466 29.26926,-63.983967 l -5.44544,-12.252251 c 4.08408,8.168167 6.12612,17.017015 6.12612,25.865861 A 56.496489,56.496489 0 0 0 100.07677,24.678598 c 4.08408,2.722724 6.8068,7.487488 10.21021,10.89089 -0.68068,-1.361361 -7.48749,-8.168166 -2.72273,-3.403402 2.72273,3.403402 6.80681,10.890888 6.80681,12.25225 A 53.093085,53.093085 0 0 0 66.042737,13.787709 c 15.655654,0 31.311314,6.806806 40.840833,19.059057 A 52.412404,52.412404 0 0 0 71.488181,15.149071 c 7.487488,0.680681 14.294294,2.722722 21.101103,6.806806 -4.764764,-2.042042 4.764767,3.403402 0,0.680681 l -1.361366,-0.680681 c 2.722722,1.36136 5.445443,4.084083 1.361366,1.36136 a 47.64764,47.64764 0 0 0 -42.2022,-1.36136 c 4.084083,0.680681 8.168167,-3.403404 12.932931,-2.722723 6.126126,-0.680681 12.932931,0 19.059057,2.042042 -5.445445,-1.361361 -12.25225,-1.361361 -17.697695,0.680681 8.848847,-0.680681 17.017014,2.042041 25.185176,4.764764 6.126128,3.403402 11.571567,8.168167 15.655657,13.613612 0.68068,4.084083 4.76477,7.487486 4.76477,12.932929 -1.36138,-2.722721 -3.40341,-6.806804 -1.36138,-2.04204 2.04205,4.084083 3.40342,8.168166 2.72274,12.932931 z m 0,-8.848848 c -0.68069,-0.680681 0.68068,-0.680681 0,0 z m 0.68068,1.361362 c 1.36135,2.042041 0,3.403402 0,0 z M 85.101794,23.317237 c 2.722726,0 2.722726,1.361361 0,0 z M 53.109806,113.84775 c -2.042041,0 -1.361361,-0.68068 0,0 z M 19.075777,74.368281 v 0.680681 z M 47.664361,111.8057 c -0.680681,0 -2.04204,-0.68068 0,0 z M 18.395096,69.603517 c 0.680681,-1.361361 -0.680681,-0.68068 0,0 z m 4.764764,-23.82382 c 0,-0.680681 0,-0.680681 0,0 z m 1.361362,-4.084084 c -1.361362,1.361361 0,1.361361 0,0 z m 67.387375,-17.697695 0.680687,0.68068 z m -62.622611,10.89089 c 0,-0.680681 0,-0.680681 0,0 z M 44.94164,21.955877 c 3.403402,-0.680681 -0.680681,0 0,0 z M 18.395096,55.309225 v -0.680681 z m 1.361362,-4.764764 c 0,1.361362 -0.680681,1.361362 0,0 z M 33.37007,29.443362 c 2.722722,-2.04204 1.361361,-1.36136 0,0 z M 19.075777,83.217128 c 1.361362,5.445448 0,0 -1.361362,-2.04204 l -1.36136,-8.168168 c 0,-3.403403 0.68068,6.126125 1.36136,5.445444 z m -2.042042,-6.806804 c -0.68068,-1.361362 -0.68068,-10.21021 -0.68068,-4.084084 z m 10.89089,-41.521516 c 1.361361,-1.361362 1.361361,-2.042042 0,0 z M 84.421113,19.233154 Z M 24.521222,38.972891 c -3.403402,6.126125 4.084084,-6.806805 0.680681,0 z m -7.487487,20.420417 c 0,2.042042 -1.36136,7.487487 -0.68068,2.042042 0.68068,-6.806806 3.403403,-13.613611 6.806805,-19.739737 -3.403402,5.445446 -5.445445,11.571569 -6.126125,17.697695 z m 0,-2.042041 1.361361,-6.126125 C 21.11782,43.737655 24.521222,36.250169 30.647347,30.804724 A 55.135128,55.135128 0 0 0 17.033735,57.351267 Z m 0,21.101097 c -1.36136,-2.722721 -1.36136,-9.529527 -1.36136,-10.210208 z M 91.908597,21.955877 H 91.227918 Z M 88.505198,20.594515 87.82452,19.913835 Z M 15.672375,64.838754 c 0,-0.680681 0,-0.680681 0,0 z M 26.563263,34.888808 c 1.361362,-1.361362 1.361362,-1.361362 0,0 z m 3.403403,-4.084084 z m -4.084083,4.764764 0.68068,-0.68068 z m -5.445444,9.529528 c -2.042043,4.764764 0.680681,-2.722722 0,0 z m -1.361362,2.722723 c 0,-1.361361 1.361362,-1.361361 0,0 z m 2.042043,-5.445445 v 0.68068 z M 62.639334,15.149071 c -2.042041,0 -1.361361,0.680681 0,0 z m 51.051036,27.907903 c 1.36137,3.403404 1.36137,4.084085 0,0 z m -87.127107,-8.848847 0.680681,-0.680681 z m 91.211197,19.059055 c -0.68067,-2.04204 0.68068,3.403405 0,0 z M 21.798499,40.334253 29.966666,29.443362 c 1.361362,-1.36136 5.445445,-4.764764 2.042042,-1.36136 -4.084083,3.403403 -7.487486,7.487486 -10.210209,12.252251 z M 38.815514,22.636558 c 4.084083,-2.722723 -2.042042,1.36136 0,0 z M 17.033735,51.225142 c -0.68068,3.403402 1.361361,-3.403403 0,0 z m 4.084085,-8.848848 c 0.680679,-2.042041 1.36136,-2.722722 0,0 z m -2.042043,3.403403 c 1.361362,-3.403403 2.042043,-4.084084 0.680681,-0.680681 z m 5.445445,52.412406 c -1.361362,-0.68069 -0.680681,-2.04204 0,0 z m 1.361361,-63.303295 c 0.68068,-0.680681 0.68068,-1.361362 0,0 z m -11.57157,29.269265 c 0,-1.361361 0,-1.361361 0,0 z m 15.655653,-34.714711 0.680681,-0.680681 z m -7.487486,9.529529 c 1.361361,-2.042042 2.042042,-2.722722 0,0 z m 84.40439,-6.126125 v -0.68068 z m 4.76477,6.126125 z m -9.52953,-11.571569 c -2.04204,-2.042043 -5.445449,-4.084085 -1.36136,-1.361362 z m -80.320311,67.387373 0.680681,0.680688 z m -2.722722,-5.445442 c 1.361362,1.361365 0,0.680678 0,0 z M 114.37106,43.056974 c 0,0.680681 0.68068,1.361362 0,0 z M 29.285986,104.31821 c 0.68068,0.6807 2.042042,2.04205 0,0 z m -13.613611,-50.370347 2.04204,-5.445444 z m 3.403402,35.39539 c 2.042043,3.4034 -0.680681,-0.680677 0,0 z m 9.529529,-59.21921 c 0.68068,-0.680681 1.36136,-1.361362 0,0 z m 8.168166,81.000977 -0.68068,-0.68068 z M 114.37106,92.065975 c 0.68068,-2.042044 2.72273,-6.806804 1.36135,-2.042044 z M 20.437139,93.42734 c 0,-0.680687 -0.680681,-2.042043 0,0 z M 117.77446,83.217128 c 0.68068,-1.361359 0.68068,-0.680679 0,0 z M 17.714415,47.821739 c 1.361362,-3.403403 2.042043,-6.126126 0,-1.361361 z m 93.933925,49.009004 c 1.36136,-2.722725 2.72272,-3.403403 0.68068,-0.68068 z M 79.656349,15.149071 H 78.294988 Z M 59.916612,14.46839 Z M 23.840541,35.569488 c 0.680681,-0.68068 1.361362,-2.042042 0,0 z m -4.084083,56.496487 c -1.361362,-2.042044 -1.361362,-2.042044 0,0 z M 13.630332,68.242156 c 0,-3.403402 0,-3.403402 0,0 z m 42.882877,51.731724 c -2.722722,-0.68069 -8.168167,-1.36137 -2.722722,0 z M 13.630332,62.116031 Z M 117.09379,47.821739 c -0.68069,-2.722723 -0.68069,-2.042042 0,0 z M 27.924625,30.124043 c 0.680681,-0.680681 2.042041,-2.042041 0,0 z m 23.14314,-14.294291 c -2.042042,0.68068 -3.403404,0.68068 0,0 z M 64.681377,121.33523 H 64.000696 Z M 34.731431,23.997918 c 0.68068,-0.680681 1.361361,-0.680681 0,0 z M 15.672375,51.225142 c 0.68068,-1.361362 0.68068,-2.042043 0,0 z M 96.673361,21.955877 95.992681,21.275196 Z M 15.672375,83.217128 c 0,-1.361359 -0.680681,-0.680679 0,0 z m 62.622613,37.437432 c -1.361361,0.68067 -1.361361,-0.68068 0,0 z M 19.756458,41.014932 c 2.042041,-2.722722 2.042041,-4.764763 0.680681,-0.680679 0,0 -1.361362,2.722721 -0.680681,0.680679 z m 87.807792,61.941928 z m -81.000987,0 c -1.36136,-2.04204 -2.042041,-1.36136 0,0 z m 21.101098,14.97497 z M 118.45514,85.939852 v -0.680681 z m -1.36135,2.722724 z M 59.235931,121.33523 c -1.36136,0 -2.042041,0 0,0 z"
     fill="#2a4365"
     style="fill:url(#b);fill-opacity:1;stroke-width:0.680681"
     id="path12" />
</svg>
