<?xml version="1.0" encoding="UTF-8" standalone="no"?>
<svg
   xmlns:dc="http://purl.org/dc/elements/1.1/"
   xmlns:cc="http://creativecommons.org/ns#"
   xmlns:rdf="http://www.w3.org/1999/02/22-rdf-syntax-ns#"
   xmlns:svg="http://www.w3.org/2000/svg"
   xmlns="http://www.w3.org/2000/svg"
   xmlns:sodipodi="http://sodipodi.sourceforge.net/DTD/sodipodi-0.dtd"
   xmlns:inkscape="http://www.inkscape.org/namespaces/inkscape"
   width="144"
   height="144"
   viewBox="0 0 38.109374 38.109376"
   version="1.1"
   id="svg15"
   sodipodi:docname="safari-pinned-tab.svg"
   inkscape:version="1.0.1 (3bc2e813f5, 2020-09-07, custom)"
   inkscape:export-filename="/home/tobin/workspace/code/geoportal-next/public/img/icons/msapplication-icon-144x144.png"
   inkscape:export-xdpi="13.165714"
   inkscape:export-ydpi="13.165714">
  <metadata
     id="metadata21">
    <rdf:RDF>
      <cc:Work
         rdf:about="">
        <dc:format>image/svg+xml</dc:format>
        <dc:type
           rdf:resource="http://purl.org/dc/dcmitype/StillImage" />
        <dc:title></dc:title>
      </cc:Work>
    </rdf:RDF>
  </metadata>
  <defs
     id="defs19" />
  <sodipodi:namedview
     pagecolor="#ffffff"
     bordercolor="#666666"
     borderopacity="1"
     objecttolerance="10"
     gridtolerance="10"
     guidetolerance="10"
     inkscape:pageopacity="0"
     inkscape:pageshadow="2"
     inkscape:window-width="1496"
     inkscape:window-height="1201"
     id="namedview17"
     showgrid="false"
     fit-margin-top="40"
     fit-margin-left="40"
     fit-margin-right="40"
     fit-margin-bottom="40"
     inkscape:zoom="2.6074563"
     inkscape:cx="75.633999"
     inkscape:cy="100.13629"
     inkscape:window-x="914"
     inkscape:window-y="113"
     inkscape:window-maximized="0"
     inkscape:current-layer="svg15"
     inkscape:document-rotation="0" />
  <filter
     id="dropShadow">
    <feGaussianBlur
       in="SourceAlpha"
       stdDeviation="3"
       id="feGaussianBlur2" />
    <feOffset
       dx="2"
       dy="4"
       id="feOffset4" />
    <feMerge
       id="feMerge10">
      <feMergeNode
         id="feMergeNode6" />
      <feMergeNode
         in="SourceGraphic"
         id="feMergeNode8" />
    </feMerge>
  </filter>
  <path
     id="path13"
     style="fill:#000000;fill-opacity:1;fill-rule:evenodd;stroke-width:0.274386"
     d="m 34.033511,17.657346 c 0.738981,5.27431 -1.953405,10.657143 -6.063739,13.876472 -2.453829,1.830806 -5.5158,2.564264 -8.511734,2.830497 1.417926,0.683677 -1.682697,0.401937 -2.443486,0.324234 C 15.04465,34.358237 13.048641,33.936075 11.202333,33.176665 7.057644,31.085033 3.8351098,27.145568 2.808356,22.596298 3.1447494,24.314912 2.1179878,21.019554 2.2183204,20.407837 2.0149285,18.473877 2.2698384,16.52319 2.6928167,14.635255 2.5235943,15.485755 2.084213,17.505185 2.3978091,15.520565 2.7771129,13.283073 3.9658347,11.311343 5.0128168,9.3357741 5.2961623,8.6293861 6.9245607,6.8652171 7.9899444,5.9974203 9.4202254,4.7027289 6.8614786,6.8224401 6.5261821,7.3637031 5.9922291,7.9781601 4.872966,9.2527601 5.9598001,7.8265011 7.0894229,6.4976884 8.4847574,5.4203091 9.9198224,4.442407 8.7350074,4.9938419 6.862838,7.0998531 6.4911309,7.1424241 7.0680627,6.0547986 9.9177884,4.5603177 9.7364764,4.3368306 6.7346508,6.1502105 4.4570766,9.0159371 3.0640729,12.209774 4.3946021,8.6196981 6.995266,5.5489891 10.22649,3.5164423 9.7427984,4.0137628 8.6045824,4.2840835 9.7607014,3.655029 7.7210024,4.9074751 5.8602974,6.4997559 4.4801045,8.4675321 5.8515562,6.2151639 8.0535274,4.6625176 10.207239,3.2249751 8.9499104,3.7014847 7.0736754,5.7052279 6.5842385,5.8692597 7.1770684,5.1537439 9.5784964,3.4365932 9.3682844,3.6345971 9.0113154,3.8935357 8.3101384,4.243266 9.1275334,3.710035 8.2455484,4.3210535 8.6064654,4.0448813 9.2414894,3.5311184 6.5495267,5.0456742 4.5959605,7.5604241 3.0722916,10.193192 3.3720843,9.2577041 5.1846101,7.2023401 4.9350231,7.1830831 2.8737969,9.7189981 1.6636096,12.85166 1.0603538,16.039778 c -0.0913264,-1.534655 1.1239374,-4.08746 1.1632266,-4.792667 -1.0389,2.245935 -1.36664347,4.746575 -1.40399627,7.199854 -0.090521,-0.8831 -0.044451,1.832512 0.073247,2.359946 0.16043877,1.114422 0.39005827,1.815698 0.080657,0.313505 0.082418,0.368529 0.60591507,3.080082 1.14274867,4.289766 0.7250637,1.928569 1.8369252,3.710536 3.2502129,5.209751 -0.5651203,-0.633801 -1.7919603,-1.878163 -0.6400476,-0.480378 1.3578356,1.695876 3.1740483,2.924152 4.8914503,4.220858 -1.53349,-0.748057 -2.7681713,-1.955647 -4.093156,-3.005319 2.55085,3.190455 6.5895716,4.597202 10.4818376,5.286994 0.706966,0.225884 -3.202527,-0.28327 -0.889394,0.08069 1.861618,-0.175087 3.223914,0.750707 5.022698,0.463173 6.926989,-0.419523 13.490453,-5.079753 15.919229,-11.621154 -1.673122,4.273584 -5.173827,7.686663 -9.283917,9.644222 8.011812,-3.73652 12.722397,-13.810456 9.624705,-22.248932 C 36.166623,12.039592 34.785349,9.4083591 34.918806,9.6662831 36.294817,12.048779 36.765781,14.818241 36.99697,17.524195 36.278691,10.960239 32.377205,4.4134308 26.078216,1.8870629 c 3.609049,1.6425741 6.754539,4.4440409 8.504068,8.0325862 -1.031448,-2.087208 -2.643096,-3.8182513 -4.362896,-5.3589115 0.948332,0.5956519 2.882991,3.1042985 2.854696,3.0325125 -0.381549,-0.56521 -2.479949,-2.4983149 -1.006496,-1.0118711 0.994671,0.9199701 2.547413,3.631927 2.521435,3.961396 C 31.596832,4.8076709 25.410365,0.68283253 18.865639,0.72608003 23.985983,0.73894143 29.044907,3.186262 32.222562,7.2032251 29.18605,3.6172265 24.613986,1.4875558 19.957497,1.1392893 c 2.514074,0.2117379 4.987462,0.9465489 7.19281,2.1756032 -0.555797,-0.1256294 1.860392,1.159621 0.261627,0.3149477 C 26.629191,3.2127052 25.921353,3.0834394 27.11955,3.561142 27.920097,3.9238141 29.049099,4.8398175 27.654357,3.9379477 23.330551,1.4933304 17.87346,1.4147442 13.353704,3.378238 c 1.363006,0.388156 2.811361,-1.1358022 4.367001,-0.8488862 2.148209,-0.2230338 4.354811,-0.053374 6.407463,0.6403964 -2.237706,-0.591574 -4.6089,-0.3564949 -6.820845,0.2325119 3.202976,-0.2614813 6.407943,0.5954924 9.379518,1.6959339 2.067504,1.1648506 3.990732,2.7797141 5.210018,4.8228931 -0.436625,-0.01888 1.401101,2.1827559 1.498464,3.2084679 0.644132,2.777193 -1.63657,-3.1485949 -0.715424,-0.884007 0.733765,1.708843 1.513404,3.507609 1.353612,5.411798 z m 0,-2.908494 c -0.07732,-0.380332 -0.09894,-0.486675 0,0 z m 0.19207,0.548771 c 0.719941,0.709822 -0.171311,1.237233 0,0 z M 24.978765,3.8557181 c 0.427395,0.00933 1.143691,0.4989056 0.316239,0.1584178 z M 14.058192,34.477225 c -0.64177,-0.179018 -0.384631,-0.107292 0,0 z M 2.5339698,21.224366 c 0.041458,0.225608 0.08899,0.484266 0,0 z m 9.5760812,12.621772 c -0.25229,-0.08148 -0.289848,-0.09361 0,0 z M 2.3144608,19.578048 c -0.02417,-0.312646 -0.040993,-0.530275 0,0 z M 3.9059011,11.40134 4.0477803,11.117583 Z m 0.576211,-1.234738 -0.099892,0.163965 z M 27.256171,4.1301046 27.510813,4.2568527 Z M 5.8814822,7.7794411 5.8374641,7.8240231 Z M 11.369208,3.5264547 11.686893,3.3654583 Z m -9.1096244,11.0852023 0.00614,-0.03065 z M 2.753479,13.047658 c -0.1033847,0.283008 -0.1891369,0.517749 -0.034973,0.09574 z M 7.3631674,6.0782469 c 0.877555,-0.7373836 0.743289,-0.6873609 0,0 z M 2.5065314,24.187742 C 3.1261627,26.23288 1.9728412,22.665801 2.178284,23.60781 2.1477619,23.439775 1.7364899,21.913782 1.9523944,22.835034 1.5940091,21.992652 1.3805434,19.040219 1.7275997,21.512174 c 0.198242,0.908605 0.4924998,1.792025 0.7789317,2.675568 z M 1.9303202,21.910332 C 1.5256713,21.120241 1.5911382,18.40322 1.737838,20.732383 c 0.052793,0.394401 0.1178696,0.78711 0.1924822,1.177949 z M 5.6070958,7.7245641 c 0.3964988,-0.394593 0.3834154,-0.505541 0,0 z M 24.649502,2.5386643 c 0.168848,0.056255 0.10448,0.034809 0,0 z M 4.4272349,9.2611271 C 3.2105223,11.03573 5.3816066,7.6607561 4.9472443,8.4559081 4.7758053,8.7255391 4.5998227,8.9922361 4.4272349,9.2611271 Z M 1.793127,16.065906 C 1.781266,16.741549 1.3383418,18.632892 1.5487842,16.860643 1.8029917,14.3844 2.7204995,12.024717 3.8959225,9.8477751 2.8845051,11.79422 2.034424,13.86853 1.793127,16.065906 Z m 0,-0.713405 C 2.1944164,13.099514 3.0475186,10.965306 4.2851997,9.0399641 4.5837221,8.2401951 6.7667525,5.9723631 5.2843157,7.7858341 3.5520277,9.9914781 2.3962628,12.621394 1.793127,15.352501 Z m 0.054877,7.243797 C 1.4870947,21.881182 1.3735417,18.518357 1.5400908,20.860637 c 0.070777,0.583615 0.1745126,1.16314 0.3079132,1.735661 z M 27.228733,3.4441389 27.101793,3.3781607 Z M 26.076311,2.8679277 26.009945,2.841381 Z M 1.3815477,17.849416 1.4001745,17.484258 Z M 5.1132005,7.8617571 c 0.4509881,-0.512386 0.2820904,-0.420856 0,0 z M 6.2107456,6.5172648 c -0.2096074,0.047881 0.735293,-0.6312351 0,0 z M 4.8936915,8.0538281 c 0.5301644,-0.644912 0.1195787,-0.14546 0,0 z M 2.9181106,11.346463 c -0.5431123,1.274987 0.1864447,-0.642205 0.00617,-0.01516 z m -0.3841408,0.740842 c 0.1377848,-0.35538 0.2372971,-0.612048 0,0 z m 0.7408428,-1.646317 -0.054877,0.08232 z M 17.350828,1.1118557 c -0.749852,-0.00113 -0.520617,0.141938 0,0 z m 17.204017,9.4663253 c 0.550904,0.912864 0.733024,1.767588 0.159955,0.325257 z M 5.0034461,7.6696871 c 0.2781087,-0.315927 0.4242631,-0.52906 0,0 z m 30.9233309,6.3108829 0.08511,0.310064 z M 3.5491991,9.7275841 C 4.5400354,7.8188391 5.9731962,6.1534186 7.6782584,4.8473504 6.0118824,6.1974291 4.6162028,7.8690261 3.5491991,9.7275841 Z M 9.3113104,3.7459637 c 0.643693,-0.3350045 0.7835666,-0.5409677 0,0 z m -7.463306,9.6858333 0.033507,-0.128712 z M 3.1376197,10.358672 C 3.3210296,9.9702011 3.7738565,9.2297961 3.3184386,10.045132 Z m -0.5487725,1.097545 c 0.6417966,-1.5481779 0.6428232,-1.295409 0,0 z M 4.344919,29.154133 c -0.37529,-0.49134 -0.2944118,-0.359195 0,0 z M 4.7290597,7.8068801 4.7743637,7.7479401 Z M 0.99740693,17.712224 c 0.015604,-0.262835 0.047057,-0.79266 0,0 z M 6.3205,5.995931 C 6.9878307,5.2381427 7.5361514,4.9642915 6.5051827,5.8103426 Z M 3.686392,9.2336891 3.8750883,8.9445151 Z m 28.673365,-2.19509 -0.128385,-0.145778 z m 1.564,2.112774 0.05488,0.08232 z M 30.631122,5.3099652 C 30.147613,4.8085333 28.961133,3.9729381 30.149019,4.8804565 l 0.244044,0.2113951 z M 3.5217604,28.084025 l 0.054877,0.08232 z m -1.015229,-1.920703 c 0.7499966,0.491745 -0.1372058,0.328632 0,0 z M 34.746916,10.495865 c 0.136872,0.25703 0.350469,0.658139 0,0 z M 6.0186751,31.349223 c 0.29109,0.295599 0.4671447,0.474382 0,0 z M 1.4638636,14.227518 c 0.020702,-0.78637 1.326213,-3.848748 0.4432696,-1.691188 -0.1956024,0.549532 -0.3556808,1.113711 -0.4432696,1.691188 z m 1.0975448,12.072997 c 0.5873113,1.00446 -0.3727198,-0.402892 0,0 z M 5.8540434,6.2428786 6.044777,6.0371121 Z m 2.579231,27.2739964 -0.129726,-0.08072 z M 34.774355,27.151113 c 0.267798,-0.62911 1.081037,-2.108293 0.431491,-0.663903 -0.190709,0.49406 -1.109444,1.83391 -0.431491,0.663903 z M 3.0827424,27.535254 c -0.1833177,-0.847146 -0.2715333,-0.07126 0,0 z m 33.0086656,-3.40239 0.119525,-0.356712 z M 1.9851973,12.169621 c 0.3868176,-0.759107 0.7878087,-1.996238 0.2032666,-0.546396 -0.016994,0.04843 -0.4547995,1.147996 -0.2032666,0.546396 z M 33.978635,28.632798 c 0.373277,-0.730769 0.88439,-1.229972 0.154331,-0.208209 z M 23.030624,1.1392945 c -0.296832,-0.06321 -0.529912,-0.1128437 -0.09495,-0.02022 z M 16.308161,0.83746953 C 15.530879,0.76785073 12.884607,1.601917 13.474767,1.4571913 14.403924,1.1881001 15.348638,0.96596493 16.308161,0.83746953 Z M 4.2077259,8.0538281 c 0.1376305,-0.199614 0.4751346,-0.689115 0,0 z M 2.7260402,27.096235 c -0.2805885,-0.650655 -0.5700428,-1.022565 0,0 z M 0.69558203,19.139031 c 0.076037,-1.218336 -0.1159254,-1.167347 0,0 z M 15.183175,36.535122 c -0.884264,-0.248934 -2.501882,-0.396712 -0.699451,-0.06007 0.22788,0.05353 0.464779,0.09758 0.699451,0.06007 z M 0.75045933,17.053697 V 16.91335 Z M 35.817022,12.279376 c -0.08618,-0.397072 -0.46972,-1.121274 -0.139305,-0.31042 z M 5.6070958,6.2703172 c 0.2753084,-0.308708 0.4432242,-0.4969951 0,0 z M 13.454544,1.3313648 c -0.722191,0.2531931 -0.160808,0.056378 0,0 z m 4.527373,35.6427752 -0.137848,8.13e-4 z M 7.8021854,4.1849817 c 0.462826,-0.2462019 0.333982,-0.3420222 0,0 z M 1.4364248,13.267166 c 0.2149117,-0.534643 0.2857853,-0.971879 0,0 z M 28.737856,3.4441389 28.557871,3.3240885 Z M 1.3815477,24.215181 c -0.2044341,-0.645838 -0.1234146,-0.389884 0,0 z M 22.619045,36.644878 c -0.557204,0.367351 -0.414475,-0.122375 0,0 z M 2.808356,9.9196541 C 3.4285516,8.9604021 3.4460788,8.5042041 2.834098,9.7504301 2.6872695,9.5885201 2.6701716,10.2075 2.808356,9.9196541 Z m 29.825785,20.8533569 -0.05276,0.08147 z m -27.6581337,0 c -0.6739445,-0.803384 -0.5396001,-0.485797 0,0 z m 7.2712367,5.158462 c -1.109651,-0.403132 1.279477,0.504188 0,0 z M 36.173725,24.983461 36.310587,24.61449 Z M 30.686,4.6514383 h 0.02744 z m 5.185899,21.2374977 c 0.127992,-0.29996 0.217963,-0.510817 0,0 z M 16.033774,37.001578 c -0.38509,-0.04741 -0.493981,-0.06082 0,0 z"
     sodipodi:nodetypes="cccccccccccccccccccccccccccccccccccccccccccccccccccccccccccccccccccccccccccccccccccccccccccccccccccccscccccccccccccccccccccccccccccccccccccccccccccccccccccccccccccccccccccccccccccccccccccccccccccccccccccccccccccccccccccccccccccccccccccsccccccccccccccccccccccccccccccccccccccccccccccccccccccccc" />
</svg>
