<svg xmlns="http://www.w3.org/2000/svg" width="611.2" height="603" viewBox="0 0 161.8 159.6">
  <defs>
    <filter id="a" color-interpolation-filters="sRGB">
      <feFlood flood-opacity=".498" flood-color="#000" result="flood"/>
      <feComposite in="flood" in2="SourceGraphic" operator="in" result="composite1"/>
      <feGaussianBlur in="composite1" stdDeviation="3" result="blur"/>
      <feOffset dx="6" dy="6" result="offset"/>
      <feComposite in="SourceGraphic" in2="offset" result="composite2"/>
    </filter>
  </defs>
  <path d="M136.66 74.697c2.696 18.168-6.377 36.39-19.436 48.568-9.217 7.844-21.371 11.228-33.233 12.207-.388 1.6 3.75 1.334-.814 1.808-15.966-.13-32.729-4.583-44.235-16.227-7.932-7.619-13.745-17.506-16.182-28.256 1.546 8.05-2.787-7.352-2.25-10.105-.475-6.834.382-13.74 2.35-20.295-1.17 3.067-2.783 12.57-1.581 4.382 1.816-8.374 5.887-16.032 10.29-23.305-3.324 3.693 3.702-5.578 5.308-6.757 2.401-2.533 11.66-10.34 4.266-4.228-2.698 2.27-7.675 8.233-8.395 8.829 4.827-6.471 10.98-12.004 18.112-15.82-5.234 1.841-12.881 10.568-14.523 10.933 2.82-4.08 13.167-10.12 13.115-10.99C37.99 32.023 29.044 42.645 23.96 54.798c-.02-.648-.842.647.802-2.213-2.24 4.553 2.6-6.158 3.872-7.626 5.547-9.154 13.277-17.035 22.526-22.46-1.847 1.55-7.4 4.018-2.491.974-7.777 4.58-14.653 10.737-19.89 18.1 5.462-8.459 13.525-14.904 22.18-19.875-5.333 1.805-14.05 10.57-15.112 11.046 3.401-3.433 5.372-5.697 10.715-9.012-2.81 1.783-2.74 1.585-.048-.24-2.09 1.411-3.744 2.497-.618-.02-9.702 5.976-17.345 14.943-22.536 25.026 1.534-4.519 8.795-13.02 8.705-13.715-8.521 9.722-13.483 22.143-15.616 34.794-.391-6.207 4.31-16.381 4.774-19.279-4.186 8.636-5.556 18.346-5.619 27.861-.223-8.164-.72 4.61.202 6.84.98 5.786 1.986 11.251 4.248 17.242 1.7 6.645 10.124 17.76 11.59 19.275-2.372-2.449-5.353-5.674-1.493-.99 5.207 6.206 11.822 10.999 18.456 15.557-5.974-2.841-10.884-7.395-15.942-11.567 9.231 11.476 23.788 16.557 37.79 19.195 2.119 1.068-11.522-1.307-3.358.38 7.22-.601 14.1 2.82 21.288 1.5 17.808-1.788 34.821-10.977 45.833-25.125 1.51-1.721 6.57-8.497 8.076-13.02 2.313-5.106-2.462 5.411-3.96 6.953-6.828 10.389-16.697 18.626-27.838 24.056 28.076-13.505 45.356-48.246 35.493-78.468-1.073-4.797-5.943-14.247-6.676-15.254 5.61 9.722 8.07 21.01 8.247 32.165-1.487-23.703-14.604-47.566-36.403-58.229-2.019-1.025-6.579-2.912-1.879-.792 12.465 6.066 23.282 15.972 29.382 28.521-4.325-7.743-9.92-14.892-17-20.3 5.27 3.701 9.048 9.056 13.11 13.962-1.328-2.384-9.193-9.973-3.905-4.2 3.57 3.513 8.616 13.402 8.648 14.49-10.767-22.177-34.568-38.291-59.562-37.388 19.128-.28 38.394 8.497 50.109 23.736-10.896-12.796-27.133-20.603-43.804-22 9.254 1.064 18.456 3.617 26.504 8.4-5.836-2.898 5.801 3.781-.46.492-3.378-1.536-5.404-2.255-.856-.23 2.994 1.585 6.738 4.374 1.495 1.131-15.962-8.545-35.915-8.98-52.316-1.371 4.66.88 10.324-3.98 15.848-3.357 8.032-.996 16.283-.249 23.989 2.235-7.277-1.817-15.324-1.734-22.437.629 10.738-.311 21.362 2.57 31.36 6.223 7.673 3.862 13.95 10.154 19.256 16.776 1.027 5.072 6.25 9.56 5.658 15.455-1.55-3.044-3.488-8.078-1.052-2.18 2.031 5.005 3.71 10.33 3.415 15.797zm0-10.6c-1.484-1.232.815-1.166 0 0zm.7 2c1.816 2.388-.027 3.685 0 0zm-33.7-41.7c2.804.5 3.462 1.948 0 0zm-39.8 111.6c-2.34-.282-1.638-.825 0 0zm-42-48.3l.069.39zm34.9 46c-.784.1-1.997-1.23 0 0zm-35.7-52c.577-2.167-.8-1.298 0 0zm5.8-29.8c.301-.603.157-.314 0 0zm2-4.5c-1.698 1.142.017 1.459 0 0zm83-22l1.043.52zm-77.7 13.3c.452-.542.318-.38 0 0zm20-15.5c3.914-.9-1.426-.338 0 0zm-33.3 40.5l.02-.12zm1.8-5.7c.105 1.408-1.227 1.47 0 0zm16.8-25.5c3.042-2.553 1.9-1.95 0 0zm-17.7 66c2.02 6.626-.294-.578-1.354-2.603.724 3-2.039-7.293-2.157-9.907-.247-4.643 1.03 7.154 1.69 6.527.554 2.009 1.004 4.058 1.82 5.983zm-2.1-8.3c-1.424-2.011-1.272-12.701-.868-5.427.185 1.823.455 3.64.868 5.427zm13.4-51.7c1.545-1.537 1.406-1.941 0 0zm69.4-18.8l.381.134zm-73.7 24.4c-4.804 7.16 4.982-8.364.202-.412l-.167.34zm-9.6 24.8c-.175 2.57-1.574 9.08-.89 2.803.976-8.712 4.057-17.069 8.153-24.777-3.622 6.845-6.387 14.243-7.263 21.974zm0-2.6c-.929 5.68.808-5.533 1.852-7.247 2.922-9.357 7.895-18.117 14.7-25.197-7.882 9.351-14.097 20.375-16.552 32.444zm.2 26.4c-1.606-3.415-1.365-11.742-1.57-12.535.09 4.216.548 8.438 1.57 12.535zm92.5-69.8l-.411-.214zm-4.2-2l-1.177-.57zm-90 54.5c.037-.703.026-.488 0 0zm13.6-36.4c1.553-1.757 1.26-1.839 0 0zm4-4.9l.306-.353zm-4.8 5.6c.798-1.224 2.905-3.277.83-.899zm-7.2 12c-2.509 5.451 1.349-3.652.179-.425l-.147.35zm-1.4 2.7c-.167-1.666 1.472-1.44 0 0zm2.7-6l-.2.3zm51.3-34c-2.633-.113-1.713.762 0 0zm62.6 34.5c2.324 4.304 2.167 4.903 0 0zm-107.6-10.6l.918-1.13zm112.7 23c-.782-2.675 1.065 4.005 0 0zm-118.1-15.5c2.17-4.38 6.132-9.671 10.153-13.482 1.432-1.55 6.63-5.696 2.224-1.926A63.877 63.877 0 0025.46 45.797zm21-21.8c5.09-3.127-2.939 1.694 0 0zm-27.1 35.3c-1.161 3.456 1.5-4.815 0 0zm4.7-11.2c1.047-2.097 2.063-3.486 0 0zm-2 4c1.224-3.74 2.61-5.072.33-.778zm6.4 64.6c-1.582-.709-.5-2.075 0 0zm1.4-77.8c.898-1.128 1.276-1.603 0 0zm-13.6 36c0-1.428 0-2.072 0 0zm19.4-42.7c2.495-3.104 4.513-3.899.606-.686zm-9.6 11.8c1.545-2.447 2.378-3.733 0 0zm104.5-8l-.5-.588zm5.7 7.7l.2.3zm-12-14c-2.337-2.4-6.747-5.37-1.786-1.585a55.518 55.518 0 011.786 1.585zm-98.8 83l.2.3zm-3.7-7c1.796 1.554-.366 1.138 0 0zm117.5-57c.626 1.097 1.181 2.07 0 0zm-104.8 76c.598.573 2.286 2.189 0 0zm-16.5-62.6c.157-3.221 5.491-15.584 1.884-6.857-.82 2.226-1.504 4.512-1.884 6.857zm4 44c2.253 3.729-1.367-1.286 0 0zm12-73.1c.819-.855 1.315-1.374 0 0zm9.4 99.4l-.657-.408zm96-23.2c1.104-2.107 3.993-8.277 1.687-2.828-.819 2.053-4.916 8.47-1.687 2.828zm-115.5 1.5c-.438-.762-1.524-2.654 0 0zm120.3-12.4c.217-1.955.88-1.115 0 0zm-124.3-43.6c1.779-3.774 2.832-7.156.553-1.388zm116.6 60c1.517-2.904 3.05-4.059.347-.338-.023.113-1.763 2.363-.347.338zm-40-100.2l-1.331-.283zm-24.5-1c-3.33-.18-10.538 2.041-11.166 2.404 3.647-1.102 7.366-2.033 11.166-2.404zm-44 26.2c.615-.941 1.43-2.186 0 0zm-5.5 69.4c-1.212-2.53-1.11-2.573 0 0zm-7.3-29c.205-4.042-.327-4.747 0 0zm52.8 63.4c-3.086-.867-10.302-1.637-3.191-.378 1.049.18 2.107.637 3.19.378zm-52.6-71v-.406zm127.8-17.4c-1.372-4.052-1.226-2.62 0 0zm-110.1-21.9c.564-.631 2.084-2.332 0 0zm28.6-18c-3.033.965-4.301 1.422 0 0zm16.5 130l-.771.003zm-37.1-119.5c1.077-.794 1.807-1.333 0 0zm-23.2 33c.425-1.311.668-2.06 0 0zm99.5-35.8l-.772-.514zm-99.7 75.8c-.354-2.134-.762-1.37 0 0zm77.4 45.3c-1.917 1.178-1.617-.336 0 0zm-72.2-97.5c1.907-3.112 2.646-5.655.322-1.102.031-.092-1.681 3.186-.322 1.102zm108.7 76l-.192.297zm-100.8 0c-1.454-2.157-2.593-1.899 0 0zm26.5 18.8l.25.102zm-43-68c.056-2.724 1.83-13.895.466-6.052a49.182 49.182 0 00-.466 6.052zm130.2 28.1l.062-.156zm-1.1 3.3l.01-.028zm-72.3 40.5c-1.339-.176-2.202-.29 0 0zm-57-73.5l-.045.785z" fill="#2a4365" filter="url(#a)"/>
</svg>
