<svg width="600" height="600" viewBox="0 0 158.8 158.8" xmlns:xlink="http://www.w3.org/1999/xlink" xmlns="http://www.w3.org/2000/svg"><defs><linearGradient id="a"><stop style="stop-color:#24cffb;stop-opacity:1" offset="0"/><stop style="stop-color:#c636af;stop-opacity:1" offset=".5"/><stop style="stop-color:#f58a28;stop-opacity:1" offset="1"/></linearGradient><linearGradient xlink:href="#a" id="b" x1="15.3" y1="32" x2="145.1" y2="133.4" gradientUnits="userSpaceOnUse"/></defs><path d="M144 74c4 21-7 43-23 58-11 9-25 13-39 14-1 2 4 2-1 3-19-1-39-6-53-20-9-9-16-21-19-34L6 83l3-24c-1 4-3 15-2 5a93 93 0 0 1 19-36c3-3 14-12 5-5L21 34c6-8 13-14 22-19-7 2-16 13-18 13 4-5 16-12 16-13-14 8-24 20-30 35l1-3 4-9c7-11 16-20 27-27l-3 2c-9 5-17 12-24 21 7-10 16-18 27-24-7 3-17 13-18 14 4-4 6-7 12-11-3 2-3 2 0 0-2 1-4 3 0 0-12 7-21 17-27 29l10-16A84 84 0 0 0 2 68c-1-8 5-20 5-23-5 10-6 22-6 33v8a81 81 0 0 0 19 44c-3-3-7-7-2-1 6 7 14 13 22 18-7-3-13-9-19-14 11 14 28 20 45 23 2 1-14-1-4 1 8-1 17 3 25 1a80 80 0 0 0 64-45l-5 8c-8 13-19 22-33 29 34-16 54-58 43-94l-8-18c6 12 9 25 9 38a83 83 0 0 0-30-60c6 4 10 11 15 16-1-2-11-12-4-5 4 5 10 16 10 18A78 78 0 0 0 77 0c23 0 46 10 60 28A77 77 0 0 0 85 2c11 1 21 4 31 10-7-3 7 5 0 1l-2-1c4 2 8 6 2 2a70 70 0 0 0-62-2c6 1 12-5 19-4 9-1 19 0 28 3-8-2-18-2-26 1 13-1 25 3 37 7 9 5 17 12 23 20 1 6 7 11 7 19-2-4-5-10-2-3 3 6 5 12 4 19zm0-13c-1-1 1-1 0 0zm1 2c2 3 0 5 0 0zm-40-49c4 0 4 2 0 0zM58 147c-3 0-2-1 0 0zM8 89v1zm42 55c-1 0-3-1 0 0zM7 82c1-2-1-1 0 0zm7-35c0-1 0-1 0 0zm2-6c-2 2 0 2 0 0zm99-26 1 1zM23 31c0-1 0-1 0 0zm23-19c5-1-1 0 0 0zM7 61v-1Zm2-7c0 2-1 2 0 0zm20-31c4-3 2-2 0 0zM8 102c2 8 0 0-2-3L4 87c0-5 1 9 2 8l2 7zM5 92c-1-2-1-15-1-6l1 6zm16-61c2-2 2-3 0 0zm83-23zM16 37c-5 9 6-10 1 0h-1zM5 67c0 3-2 11-1 3 1-10 5-20 10-29-5 8-8 17-9 26Zm0-3 2-9c4-11 9-22 18-30A81 81 0 0 0 5 64Zm0 31c-2-4-2-14-2-15l2 15zm110-83h-1Zm-5-2-1-1ZM3 75c0-1 0-1 0 0zm16-44c2-2 2-2 0 0zm5-6zm-6 7 1-1zm-8 14c-3 7 1-4 0 0Zm-2 4c0-2 2-2 0 0zm3-8v1zM72 2c-3 0-2 1 0 0zm75 41c2 5 2 6 0 0zM19 30l1-1Zm134 28c-1-3 1 5 0 0zM12 39l12-16c2-2 8-7 3-2-6 5-11 11-15 18zm25-26c6-4-3 2 0 0zM5 55c-1 5 2-5 0 0zm6-13c1-3 2-4 0 0zm-3 5c2-5 3-6 1-1zm8 77c-2-1-1-3 0 0zm2-93c1-1 1-2 0 0zM1 74c0-2 0-2 0 0zm23-51 1-1zM13 37c2-3 3-4 0 0zm124-9v-1zm7 9zm-14-17c-3-3-8-6-2-2l2 2zM12 119l1 1zm-4-8c2 2 0 1 0 0zm140-68c0 1 1 2 0 0zM23 133c1 1 3 3 0 0zM3 59l3-8-3 8zm5 52c3 5-1-1 0 0zm14-87c1-1 2-2 0 0zm12 119-1-1Zm114-28c1-3 4-10 2-3l-2 3zm-138 2c0-1-1-3 0 0zm143-15c1-2 1-1 0 0zM6 50c2-5 3-9 0-2Zm138 72c2-4 4-5 1-1l-1 1zM97 2h-2ZM68 1ZM15 32c1-1 2-3 0 0zm-6 83c-2-3-2-3 0 0zM0 80c0-5 0-5 0 0zm63 76c-4-1-12-2-4 0h4zM0 71Zm152-21c-1-4-1-3 0 0zM21 24c1-1 3-3 0 0zM55 3c-3 1-5 1 0 0zm20 155h-1ZM31 15c1-1 2-1 0 0zM3 55c1-2 1-3 0 0zm119-43-1-1ZM3 102c0-2-1-1 0 0zm92 55c-2 1-2-1 0 0zM9 40c3-4 3-7 1-1 0 0-2 4-1 1zm129 91zm-119 0c-2-3-3-2 0 0zm31 22zm104-47v-1zm-2 4zm-85 48c-2 0-3 0 0 0z" fill="#2a4365" style="stroke-width:1;fill-opacity:1;fill:url(#b)"/></svg>