<?xml version="1.0" encoding="UTF-8" standalone="no"?>
<svg
   xmlns:dc="http://purl.org/dc/elements/1.1/"
   xmlns:cc="http://creativecommons.org/ns#"
   xmlns:rdf="http://www.w3.org/1999/02/22-rdf-syntax-ns#"
   xmlns:svg="http://www.w3.org/2000/svg"
   xmlns="http://www.w3.org/2000/svg"
   xmlns:sodipodi="http://sodipodi.sourceforge.net/DTD/sodipodi-0.dtd"
   xmlns:inkscape="http://www.inkscape.org/namespaces/inkscape"
   width="1050"
   height="1050"
   viewBox="0 0 277.88085 277.88087"
   version="1.1"
   id="svg15"
   sodipodi:docname="icon.svg"
   inkscape:version="1.0 (4035a4fb49, 2020-05-01)"
   inkscape:export-filename="/home/tobin/workspace/code/geoportal/src/assets/img/icons/maskable-196x196.png"
   inkscape:export-xdpi="17.92"
   inkscape:export-ydpi="17.92">
  <metadata
     id="metadata21">
    <rdf:RDF>
      <cc:Work
         rdf:about="">
        <dc:format>image/svg+xml</dc:format>
        <dc:type
           rdf:resource="http://purl.org/dc/dcmitype/StillImage" />
        <dc:title></dc:title>
      </cc:Work>
    </rdf:RDF>
  </metadata>
  <defs
     id="defs19" />
  <sodipodi:namedview
     pagecolor="#ffffff"
     bordercolor="#666666"
     borderopacity="1"
     objecttolerance="10"
     gridtolerance="10"
     guidetolerance="10"
     inkscape:pageopacity="0"
     inkscape:pageshadow="2"
     inkscape:window-width="1873"
     inkscape:window-height="1201"
     id="namedview17"
     showgrid="false"
     fit-margin-top="40"
     fit-margin-left="40"
     fit-margin-right="40"
     fit-margin-bottom="40"
     inkscape:zoom="0.4609375"
     inkscape:cx="489.14027"
     inkscape:cy="439.07456"
     inkscape:window-x="401"
     inkscape:window-y="71"
     inkscape:window-maximized="0"
     inkscape:current-layer="svg15"
     inkscape:document-rotation="0" />
  <filter
     id="dropShadow">
    <feGaussianBlur
       in="SourceAlpha"
       stdDeviation="3"
       id="feGaussianBlur2" />
    <feOffset
       dx="2"
       dy="4"
       id="feOffset4" />
    <feMerge
       id="feMerge10">
      <feMergeNode
         id="feMergeNode6" />
      <feMergeNode
         in="SourceGraphic"
         id="feMergeNode8" />
    </feMerge>
  </filter>
  <path
     d="m 186.71047,185.68595 a 39.6,39.6 0 0 1 0.2,2.4 l 0.2,2 a 33.5,33.5 0 0 0 0.2,4.4 16,16 0 0 1 -0.1,1.8 l -0.3,2 a 55.6,55.6 0 0 1 -0.3,2 l -0.7,2.8 c -1.2,5 -0.1,0 -0.4,1.2 l 0.2,-1 0.2,-1 a 43.4,43.4 0 0 0 0.3,-2.3 l -0.4,2.6 a 48.5,48.5 0 0 1 -1.8,6.60001 l -1.2,3.2 c -1.1,2.8 -1.9,4.1 -2.1,4.5 -0.5,0.8 0.4,-0.8 1.2,-2.6 0.9,-2 0.3,-0.8 0.2,-0.6 a 93.6,93.6 0 0 0 -2,4.1 78,78 0 0 1 -5.3,8.3 l -3.4,4 c -0.7,0.7 -2,2.1 -4,3.9 a 32,32 0 0 1 -10.3,6.7 50.4,50.4 0 0 1 -5.6,2.2 147.5,147.5 0 0 1 -10.1,2.6 88.8,88.8 0 0 1 -10.3,1.1 c -2,0.1 2.4,0.9 4.1,0.8 h 4.1 l -1.5,0.3 -1.8,0.3 h -0.7 l -3.4,0.2 a 50.8,50.8 0 0 1 -5,-0.2 l -1.3,-0.1 -3.5,-0.5 c -4.2,-0.8 -7.3,-1.7 -9.2,-2.3 -1.4,-0.4 -2.5,-0.6 -1.3,-0.2 a 40,40 0 0 1 2.6,1.2 l -2,-0.5 a 57.7,57.7 0 0 1 -15.800002,-7.6 59,59 0 0 1 -13.8,-13.4 c -2.7,-3.8 -4.2,-6.5 -5,-8 a 37.7,37.7 0 0 1 -2.8,-6.5 67,67 0 0 1 -1.3,-4.10001 l -0.6,-2.3 c -0.1,0 0.6,3.2 1.8,6.60001 a 57.2,57.2 0 0 1 -2.5,-7.40001 c -0.6,-2.4 -1.1,-5.6 -1.1,-5.6 0,0 -0.4,-1.2 -0.4,-2.7 a 50,50 0 0 1 0.3,-11.7 c 0.5,-4.2 2,-9.6 2,-9.6 a 45.8,45.8 0 0 0 -2.1,9.6 l -0.4,3.1 0.1,-1.9 0.1,-1.2 a 92.5,92.5 0 0 1 0.6,-4.2 61,61 0 0 1 3.6,-12.2 c 0.6,-1.5 0.3,-0.7 -0.2,0.7 a 7,7 0 0 0 -0.5,1.9 l -0.1,0.7 0.7,-1.8 c 1,-2.7 2,-4.7 1.9,-4.4 -0.2,0.2 0.3,-1 0.9,-2 l 1.5,-3 2,-3.2 1.4,-2 c 0.5,-0.7 1.4,-2 0,-0.2 v 0.1 l -1.6,2 c -8.8,12.1 7,-9.7 1.4,-2 a 57.9,57.9 0 0 1 12,-12.2 c 2.1,-1.7 2.7,-2 2.7,-2 l -2.2,1.5 c -2.5,1.9 -5,4 -7.6,6.7 -2.3,2.5 -4,4.6 -4.3,5 l -0.7,0.9 -0.6,0.7 -0.7,1 1.2,-1.8 0.4,-0.5 1.8,-2.3 1.2,-1.5 a 60,60 0 0 1 15.200002,-12.4 h 0.2 a 61.1,61.1 0 0 0 -13.700002,10.6 c -1.5,1.5 -2.6,2.8 -2.7,3 l 1,-1.3 1,-1.3 c -4,3.5 4.1,-4.2 5.4,-5.3 5.3,-4.4 10.000002,-6.8 10.200002,-6.9 l 0.7,-0.3 0.2,-0.4 a 58,58 0 0 0 -4.400002,2.4 l -3.7,2.3 -1.4,1 c -0.3,0.3 -0.7,0.4 -4,3.5 a 61.5,61.5 0 0 0 -15.5,22 c 3,-6.5 -3.8,7.6 1.1,-2.8 l 1,-2 c 0,0 -0.6,1 -1.2,2.5 -1.9,4 -2,4.5 -0.7,1.2 a 60.7,60.7 0 0 1 6.9,-12.4 l 0.5,-0.7 c 0.3,-0.5 2.2,-3.2 4.8,-6 l 2.7,-2.8 a 37.8,37.8 0 0 1 2.2,-2 l 1.6,-1.5 c 1.4,-1.3 2.4,-2 3.8,-3 l 2.1,-1.3 1.1,-0.7 1.300002,-0.8 c 0.9,-0.4 -1.400002,0.8 -2.400002,1.4 l -3.2,2 a 13,13 0 0 1 -2,1.2 c 0,0 0.2,-0.4 2.8,-2.1 a 48.6,48.6 0 0 1 5.300002,-3.2 h -0.3 l -1.4,0.8 -3.000002,1.8 -3.1,2.3 -1.7,1.3 a 54.6,54.6 0 0 0 -12.5,12.4 l -1.4,2 a 24.5,24.5 0 0 1 1.4,-2 c 0.6,-0.9 1,-1.3 1,-1.6 0,0 2.6,-3.6 7.7,-8.2 a 65.5,65.5 0 0 1 9.8,-7.2 l 2.300002,-1.3 0.6,-0.4 h -0.1 a 70.3,70.3 0 0 0 -6.000002,3.6 c -0.7,0.5 -3,2 -5.6,4.4 -2.7,2.3 -6,5.7 -5.2,5 -0.4,0.3 -1.5,1.4 0.2,-0.4 3.5,-3.7 6.7,-6.2 7,-6.5 -0.6,0.5 3.3,-2.6 0,0 -0.8,0.5 -1.6,1.2 -2.6,2.2 l -2.1,1.8 c 0.8,-0.7 -1.3,1.1 1.5,-1.5 1.3,-1.2 4.8,-4.3 9.9,-7.4 l 1.4,-0.8 0.900002,-0.5 h -0.4 l -0.300002,0.3 -4.3,2.6 1,-0.7 1,-0.6 -1.5,1 c -3.4,2.1 -4.3,3 -4.4,3 l 1,-0.7 a 71.4,71.4 0 0 1 6.7,-4.6 l -2.5,1.6 -1.6,1 -2,1.4 -1.2,0.9 a 46.4,46.4 0 0 1 6.9,-4.9 h -0.1 l -1.3,0.8 1.1,-0.8 -1,0.6 -4.4,2.9 a 54.6,54.6 0 0 0 -11.4,10.7 149,149 0 0 0 -4.8,6.3 l -0.7,1.2 -1.4,2.4 -1.4,2.6 1,-1.7 0.9,-1.8 0.7,-1.2 c 0.9,-1.4 2.4,-3.7 2,-3.3 0,0.2 0.2,-0.3 0.7,-1 l 2,-2.6 a 68.4,68.4 0 0 1 4,-4.9 c -1.3,1.4 -3.4,3.5 -6.1,7.4 a 82.3,82.3 0 0 0 -2.9,4.2 l -2.2,4 a 63.8,63.8 0 0 0 -5.8,16.4 c -0.6,2.4 -1.2,6.2 -0.8,3.6 0.3,-2.1 0.2,-1.5 -0.2,0.7 l -0.4,2.8 0.3,-3 0.6,-4 1.1,-4.8 c 0.3,-1 0.8,-2.8 1.7,-5.2 0.8,-2.3 1.6,-4.2 2.2,-5.3 0.4,-1 0.7,-1.5 0.5,-1.4 l -1.7,3.5 a 52.8,52.8 0 0 0 -4,12.2 l -0.4,2 c -0.4,2.1 -0.1,1.1 -0.1,1 l -0.2,1.3 c -0.3,2.2 -0.3,2.2 0,0.6 0.4,-2.5 0.3,-2.2 -0.2,1.7 a 58.2,58.2 0 0 0 -0.3,5.2 v 2.5 c 0,1 0,2.3 -0.2,0.5 v -1.2 -2 c 0,-2 0.2,-4.1 0,-3 a 70,70 0 0 0 0.1,11.5 l 0.2,2 a 716.4,716.4 0 0 0 1,6.5 c 1.3,6.30001 -0.4,-2.6 0.2,0.2 l -0.6,-3 c -4,-21.6 3,16.00001 -0.1,-1.2 l 0.5,3 c 0.8,4.2 0,-0.1 0.2,0.4 -0.3,-1.7 -0.1,-0.5 0.2,0.8 l 0.4,1.8 0.1,0.5 0.2,0.7 0.6,2.40001 a 277.7,277.7 0 0 0 0.8,2.9 31.3,31.3 0 0 0 0.5,1.7 l 1.4,3.3 0.8,2 0.5,1.1 1.2,2.2 1.5,2.4 1.3,2 1,1.3 1,1.2 1.7,2.1 a 36.6,36.6 0 0 0 3.4,3.9 c -1.6,-2 3.2,3.8 -2.2,-2.3 a 66,66 0 0 1 -1.3,-1 l -0.4,-0.5 -0.9,-1 -2,-2.5 -1.2,-1.6 c 0.5,0.7 1.8,2.6 3.5,4.6 a 242.1,242.1 0 0 0 3.5,4.2 31.3,31.3 0 0 0 3.4,3.3 l 1.5,1.3 2,1.5 c 0.4,0.3 1,1 3,2.4 a 40.2,40.2 0 0 0 4.8,3.2 c 1.1,0.7 1.4,1 1.7,1.3 l 0.4,0.3 a 66.1,66.1 0 0 1 -7,-4.3 c -1.8,-1.2 -2.8,-2 -3.5,-2.6 l -2.2,-1.6 -2.4,-2.1 -2.6,-2.6 -0.6,-0.5 c -0.2,-0.2 0,0.2 2,2 l 3.3,3.1 c 0.3,0.4 -1,-0.6 -2.1,-1.5 l 0.6,0.6 1,0.9 3.5,2.8 1.6,1.5 c 0.2,0.3 0.1,0.4 -0.3,0 -0.4,-0.2 -0.4,0 -0.3,0.2 a 66.5,66.5 0 0 0 4.9,3.1 c 0.5,0.3 0.7,0.3 0.5,0.1 -0.3,-0.3 0,-0.2 0.7,0.2 l 1.3,0.6 2,1 a 13,13 0 0 0 3.000002,1.3 l 2.6,1 c 1.2,0.6 1.5,0.7 1.6,0.6 l 1,0.3 c 0.8,0.2 0.7,0.2 0.2,0 l -1.2,-0.5 a 27,27 0 0 1 -0.4,-0.2 c 0.4,0 0.8,0.3 3.7,1.3 l 4.3,1.2 0.6,0.2 c 0,0 -0.2,0.1 2,0.5 l 4.2,0.8 3,0.4 a 53.2,53.2 0 0 1 -9.7,-1 l -4,-0.6 a 23.4,23.4 0 0 0 6.7,1.3 c 2,0.2 4,0.4 6.7,0.5 h 1.1 a 103.4,103.4 0 0 1 5.5,0.4 c 1,0 1.3,0.3 0.2,0.3 h 0.1 c 0.6,0.1 0.8,0.2 -0.8,0.2 h -5 c 0,0 0.3,0.3 3.6,0.4 a 67.2,67.2 0 0 0 13.6,-0.8 67.2,67.2 0 0 0 16.8,-5.1 l 3.6,-1.7 0.8,-0.3 a 66.4,66.4 0 0 0 5.6,-3.4 c 0.8,-0.8 2.1,-1.5 5.9,-4.7 1.9,-1.6 4,-3.6 6,-6 3.3,-3.5 5,-5.7 2.4,-2.5 l -2.6,3 a 75.2,75.2 0 0 0 6.8,-8.4 c 0.7,-1.3 0.2,-0.5 -0.6,0.6 a 48.6,48.6 0 0 1 -0.7,1 c 0,-0.2 0.3,-0.5 0.6,-0.9 l 1.9,-2.9 c 0,0 1,-1.4 1.5,-2.4 l 1.5,-3 a 80.4,80.4 0 0 0 2.8,-6.8 69.5,69.5 0 0 0 0.7,-2.2 l -1.3,3.8 a 53,53 0 0 1 -4.5,9.2 c 0,0 -1.5,2.5 -3.4,5 a 73.9,73.9 0 0 1 -6.4,7.6 l -2.5,2.2 -4.4,3.5 -0.5,0.4 c 0.8,-0.5 1.3,-0.9 0.5,-0.2 -0.4,0.3 -1.1,0.9 -2,1.4 0,0 -2.7,2 -5,3.4 a 56,56 0 0 1 -4,2.2 l -2.3,1.1 a 65.8,65.8 0 0 1 0,-0.1 92,92 0 0 0 6.2,-3.5 l 2.1,-1.3 c 0.8,-0.5 1.8,-1 2.5,-1.6 1.6,-1.1 0.6,-0.4 0,0 -1.5,1 -1,0.5 -0.4,0.1 l 3.3,-2.5 3.2,-2.7 2.1,-2 3.9,-4.2 3.2,-4 0.9,-1.2 1,-1.5 2.1,-3.4 a 58.9,58.9 0 0 0 4.6,-9.8 66.5,66.5 0 0 0 4.4,-23.40001 68.1,68.1 0 0 0 -9.9,-34 l 0.8,1.6 c 0.8,1.6 2,3.7 3.3,7 1.1,2.6 1.8,4.8 2.2,6.3 a 85.2,85.2 0 0 1 2.4,18.2 c -0.1,0.5 0,-1 -0.7,-6.7 -0.3,-2.8 -0.8,-5.4 -1,-5.9 a 33.6,33.6 0 0 0 -0.5,-2.3 l -0.3,-1 -0.2,-0.6 -0.3,-0.6 c -0.5,-2 0,-0.2 0.1,0.6 a 5,5 0 0 1 0.3,1.4 l 0.1,1.1 -0.1,-0.4 -1.1,-3.9 a 37.5,37.5 0 0 0 -1.4,-4 c 0.6,1.9 0.4,1.1 0,0.3 l -0.7,-1.9 a 109,109 0 0 1 -1.5,-3.6 c -0.2,-0.8 -0.7,-2 -1.9,-4.1 l -1.4,-2.6 -0.4,-0.6 -1.4,-2.2 -2.1,-3 a 34.3,34.3 0 0 0 -7.3,-8 c 1,1 -2.8,-2.4 -3.8,-3.2 a 64,64 0 0 0 -15.2,-9 l -1.7,-0.7 a 92.8,92.8 0 0 1 9.7,4.8 70.3,70.3 0 0 1 9.8,7.3 c 0.3,0.3 3.9,3.6 6.8,7 a 50.1,50.1 0 0 1 7.3,11.3 l -2.4,-4.1 a 86,86 0 0 0 -3.4,-5 c -0.7,-0.9 -2.5,-3 -5.2,-5.9 -2.4,-2.4 -5,-4.5 -5,-4.5 l -0.9,-0.8 2.2,1.9 a 53,53 0 0 1 2.9,2.7 l 1.8,1.9 a 56,56 0 0 1 7.6,9.8 c 0.3,0.5 0.2,0.4 0,0 -0.4,-0.5 -2,-2.9 -4.3,-5.7 -2,-2.5 -3.6,-4 -4.7,-5 -4.7,-4.4 -1.3,-0.9 -2.1,-1.7 l 1.6,1.5 a 61.4,61.4 0 0 1 11.3,15 c 0,0.5 0,0.3 -0.7,-0.8 a 75.2,75.2 0 0 1 2.9,6.3 51.8,51.8 0 0 0 -5,-8.9 c -1.4,-2 -3.6,-5 -5.6,-7.3 l -2.3,-2.7 -1.4,-1.5 a 67.6,67.6 0 0 0 -7.7,-6.5 c -2,-1.6 -3.7,-2.5 -4.3,-2.9 l -3.4,-2 a 68.1,68.1 0 0 0 -26,-7.2 60,60 0 0 0 -5.5,-0.1 h 4.8 a 69.1,69.1 0 0 1 16.3,3 64.6,64.6 0 0 1 25.8,15.9 l 1.5,1.7 c 1.8,1.9 2.7,3 2.6,3 0,0 -1.5,-1.8 -3.5,-3.8 a 72.3,72.3 0 0 0 -10.1,-8.2 c -2.2,-1.4 -2.2,-1.2 -1.8,-1 a 66.2,66.2 0 0 1 1.2,1 l -3.4,-2 a 74.2,74.2 0 0 0 -7.8,-3.8 c 0,0 -2.3,-0.9 -5,-1.7 a 67.2,67.2 0 0 0 -10.3,-2.2 l -4,-0.4 a 56,56 0 0 0 2.4,0.3 l 5,0.8 a 62.7,62.7 0 0 1 20,7.4 c 0.2,0.2 -0.1,0 -1.2,-0.5 l -1.4,-0.7 -1,-0.5 c -3.8,-1.7 0.7,0.5 2,1.2 a 40,40 0 0 1 5.6,3.4 c 1,0.8 -0.3,0 -2.3,-1.3 -1.4,-0.9 -1.4,-0.9 0,0 a 61,61 0 0 0 -7.5,-3.4 l -1,-0.4 a 26.4,26.4 0 0 0 -0.6,-0.2 l 1.7,0.7 a 56.6,56.6 0 0 1 12.5,7.2 c 0,0 -3,-2.3 -9,-5.2 a 54.5,54.5 0 0 0 -6.6,-2.7 l -1.3,-0.4 a 36.7,36.7 0 0 0 -3.6,-1 l -1.8,-0.5 -4.1,-0.7 c -0.7,0 -1.1,0 -3,-0.3 -2,-0.2 -2.5,-0.2 -3,-0.1 h -5.6 l -2.8,0.2 c -2,0.2 -1.4,0.4 0,0.5 a 61.7,61.7 0 0 1 -1.4,0.2 38.3,38.3 0 0 0 -8,1.4 l -3.3,1 -4.3,1.5 a 56.4,56.4 0 0 0 -1.8,0.7 l 2.6,-0.9 -2.3,1 -0.3,0.2 v 0.2 c 0,0.2 -0.7,0.7 -1,1.1 l -0.2,0.3 -0.3,0.2 h 0.1 l 0.7,-0.4 0.6,-0.3 0.5,-0.3 a 60.5,60.5 0 0 0 2.8,-1.1 c 1.6,-0.7 5.3,-1.8 5.3,-1.8 a 48.6,48.6 0 0 1 15,-2 h 1.4 a 50.7,50.7 0 0 1 13.7,1.9 41.8,41.8 0 0 1 2,0.7 c -0.1,0.1 -0.7,0 -1.8,-0.2 l -0.3,-0.1 -0.9,-0.2 -1,-0.1 a 17.6,17.6 0 0 0 -2.5,-0.5 l -2.2,-0.1 a 550,550 0 0 1 -4.6,-0.1 27,27 0 0 0 -3.3,0.3 h -0.3 l -0.4,0.1 c -0.3,0 -0.3,0 0,0.1 0.5,0.1 0.4,0.1 -0.3,0.1 -1.5,0 -1,0 -0.3,0.1 h 0.2 c -0.6,0 -0.8,0.2 -1.1,0.6 -0.2,0.2 -0.4,0.2 -1.2,0.2 a 48,48 0 0 0 -7.1,1 52,52 0 0 1 12.2,-0.4 c 0.5,0.2 0.3,0.1 -1,0 h -1.1 l 0.4,0.1 1,0.1 a 8.7,8.7 0 0 0 1.7,0 h 2.6 l 1.5,0.1 1.6,0.4 c 0.8,0.3 0.4,0.5 -0.4,0.3 -1.5,-0.2 -0.3,0 1,0.3 1.5,0.4 1.8,0.5 2,0.7 h 0.2 l 0.3,0.1 1.8,0.5 a 60.5,60.5 0 0 1 2.1,0.7 h 0.2 l 0.6,-0.1 h 1 a 455.8,455.8 0 0 0 4,1.1 l 1.7,0.6 c 1.2,0.4 3,1.2 5.4,2.6 a 106.6,106.6 0 0 1 9.4,7 l -3.3,-2.3 c -1.6,-1.3 -0.5,-0.2 -0.5,-0.2 a 24,24 0 0 0 2.1,1.6 l 1,0.8 0.9,0.8 1.3,1.2 a 41,41 0 0 1 7.2,9.5 c -0.2,-0.2 -0.5,-0.3 -0.5,-0.2 0,0.1 -0.2,0 -0.6,-0.6 a 27.8,27.8 0 0 0 -2.3,-3.1 c -1.8,-2.4 -0.6,-0.7 -0.7,-0.8 l 1.9,2.5 a 55.9,55.9 0 0 1 5.7,9.8 21,21 0 0 1 -2,-3 l 1,1.8 a 33.1,33.1 0 0 1 0.7,2 34.3,34.3 0 0 1 2.4,6.6 c 0.2,0.6 0.1,0.6 -0.3,0 l -0.5,-0.5 -0.5,-1.2 -0.7,-1.8 -1.2,-2.9 c 8,19.2 -10.5,-24.4 -0.3,-0.6 0.8,1.9 1.7,4.2 2.5,6.8 a 29.5,29.5 0 0 1 1.8,8 c 0.2,1.9 0.1,1.7 0,1.5 v 0.4 c 0,0.8 0,0.7 0,0 -0.1,-0.7 -0.1,-0.6 0,0 v 0.7 l -0.1,0.6 z m 0,11.1 z m -14.3,-45.6 z m 14.3,24.5 z m 0,-0.6 -0.4,-1.7 0.4,1 a 39,39 0 0 1 0,0.7 z m 0.7,2 a 123,123 0 0 0 -0.1,-1.4 68.3,68.3 0 0 0 1.1,3.6 c 0.4,1.4 0.4,2 0.2,1.8 -0.4,-0.3 -0.6,-1.3 -1.2,-4 z m -56.3,71.20001 z m 22.6,-112.90001 -0.2,-0.1 c 0,0 0.5,0 0.9,0.2 a 16.8,16.8 0 0 1 3.7,1.6 l -3.7,-1.4 z m 5.2,2 z m -80.500002,79.60001 z m 35.500002,30 a 17.8,17.8 0 0 1 -0.4,0 l -2.4,-0.8 z M 71.910468,198.68595 c 0,-0.5 -0.1,-0.9 0,0 0,0.9 0.1,1 0.2,1.2 v -0.5 z m 34.900002,46.00001 0.8,0.4 -2.4,-1 z m -35.700002,-52.00001 -0.1,-2 c 0,-0.6 0,-0.9 0,0 a 32.3,32.3 0 0 0 0.1,3.4 v -1.5 z m 5.8,-29.8 -0.4,0.8 -0.2,0.3 1.8,-3.5 z m 2.1,-4.5 -1,1.7 a 22.7,22.7 0 0 1 1.5,-2.5 z m 83.000002,-22 a 31,31 0 0 1 1,0.5 z m -77.900002,13.3 -1.2,1.4 a 21.5,21.5 0 0 1 2.2,-2.5 l -1,1 z m 20.000002,-15.5 2.1,-1 a 37.4,37.4 0 0 0 -3,1.1 l -0.3,0.4 1.1,-0.5 z m -33.200002,40.4 -0.1,0.3 a 16.2,16.2 0 0 1 0.2,-0.7 v 0.4 z m 1.8,-5.7 -0.5,1.5 c -0.3,0.8 -0.4,1 -0.2,0.3 l 0.7,-2.1 c 0,0 0,0.1 0,0 z m 16.8,-25.4 1.3,-1.2 1.6,-1.4 0.9,-0.7 -1,0.8 a 61,61 0 0 0 -3.6,3.1 z m -12.1,14.7 z m -5.6,51.30001 a 77.2,77.2 0 0 0 0.5,1.5 c -0.7,-1.9 -0.7,-1.9 -0.3,-0.6 -0.2,-0.7 1,3.1 -0.5,-1 a 50,50 0 0 1 1.8,4.5 l 0.5,1.2 0.2,0.4 a 39.2,39.2 0 0 1 -1.5,-3.1 c -1.3,-3.6 -1.8,-5.70001 -2.4,-7.40001 -1.8,-6 1.1,4.40001 0.7,3.20001 l 0.5,1.5 c 0.2,0.5 -1.2,-3.50001 -2,-7.20001 l -0.3,-1.8 0.2,1.5 0.5,2 0.5,2.3 0.4,1.4 -1.2,-4.6 c -0.1,-0.5 -0.6,-2.8 -1,-5.8 a 60,60 0 0 1 -0.5,-5.7 l 0.2,2 c 0,0.8 0.2,2.6 0.7,5.2 -2.3,-12 4,20.50001 0.6,2.6 l -0.2,-0.9 0.9,3.3 0.8,2.9 1,2.70001 z m -2.1,-8.30001 c 0,0.5 0.5,2.6 -0.2,-0.3 a 40.9,40.9 0 0 1 -1,-7.6 c -0.2,-2.2 -0.2,-3.7 -0.1,-5.3 v -0.3 a 70.1,70.1 0 0 0 1.3,13.5 z m 13.4,-51.7 2.6,-3 a 28.1,28.1 0 0 0 -2.6,3 z m 69.400002,-18.9 1,0.4 0.5,0.1 a 61.8,61.8 0 0 1 -2.6,-0.9 z m -73.700002,24.5 c -1,1.4 -3.3,5.5 -3.4,5.5 a 39.8,39.8 0 0 1 4.5,-7.6 l 0.7,-1 2.1,-2.6 -2,2.7 -2,3 z m -9.6,24.8 a 68.5,68.5 0 0 0 -0.5,2.8 l -0.3,2.6 a 15.4,15.4 0 0 0 -0.2,2.4 v 0.7 l -0.2,1.2 v -2.7 a 54,54 0 0 1 1.7,-11.8 c 1.4,-5.8 2.7,-8.3 2.6,-8.3 l -0.3,1 c -1.2,3.2 0.1,-0.1 0.1,0 l 1.8,-4.5 c 0,0 0.8,-2 1.8,-3.9 l 0.6,-1.1 0.3,-0.6 a 35.2,35.2 0 0 1 1.1,-2 c 1,-1.5 0,0.2 -1,2 a 66.3,66.3 0 0 0 -7.6,22.1 z m 0,-2.6 -0.5,3.7 -0.2,1.6 c 0,0.4 -0.1,0.6 0,0 l 0.1,-1.8 0.6,-3.5 0.4,-2.2 c 0.2,-0.7 0.6,-2.6 1.4,-5 l 1.4,-4.2 2.2,-5 c 1.2,-2.4 2.6,-4.6 2.5,-4.7 l -1,1.8 c -1.5,2.5 -0.7,1 1.5,-2.6 1.3,-2.1 2.6,-3.9 2.6,-3.8 0,-0.1 0,-0.1 0,0 l -1.1,1.5 -1.7,2.4 2.7,-4 a 57.8,57.8 0 0 1 3.5,-4.4 l 1.8,-1.9 2,-2 -1.4,1.5 -1,1 -1.2,1.6 a 45.6,45.6 0 0 0 -3.4,4.4 l -0.4,0.7 a 144.4,144.4 0 0 0 -5.2,8.7 c -1,2 -3.9,8 -5.5,16.2 z m 0.2,26.4 0.1,0.6 c 0,0 -0.6,-1.7 -1.2,-6.4 a 68.6,68.6 0 0 1 -0.4,-12.2 c 0,-1 -0.2,3.8 0,7.6 a 62.6,62.6 0 0 0 1.5,10.4 z m 92.500002,-69.8 0.6,0.3 a 33.3,33.3 0 0 0 -2,-1 z m -4.2,-2.1 0.5,0.2 -2.5,-1 z m -90.000002,54.6 c -0.1,2.9 -0.1,2.9 0,0 a 42,42 0 0 1 0.2,-3.8 z m 73.100002,-59.7 z m -38.1,6 c -0.2,0 -0.1,0 0,0 z m -21.400002,17.3 2,-2.5 a 32.2,32.2 0 0 0 -2,2.5 z m 77.000002,-18.3 z m -73.000002,13.4 -0.5,0.5 c -0.3,0.3 -0.6,0.6 0,-0.1 l 1.6,-1.6 -1,1.2 z m -4.8,5.6 -0.3,0.4 0.1,-0.2 3.4,-4.1 c 0,0 -2.3,2.7 -3.2,4 z m -7.2,12 -0.7,1.4 -0.8,2 c -0.4,0.7 -0.6,1.3 -0.3,0.4 a 50.8,50.8 0 0 1 3.4,-7.4 86.7,86.7 0 0 0 -1.7,3.6 z m -1.4,2.7 c 0.2,-0.6 -1.4,3.3 0,-0.3 l 1.2,-2.6 z m 2.7,-6 -0.2,0.3 a 27.7,27.7 0 0 1 0.2,-0.3 z m 51.300002,-34 a 24.7,24.7 0 0 0 -1.1,0.1 l -2.1,0.2 -0.8,0.1 1.5,-0.1 2.5,-0.2 z m 62.7,34.5 a 36.5,36.5 0 0 1 2.8,6 l 0.5,1.6 a 67.9,67.9 0 0 0 -3.3,-7.6 z m -107.700002,-10.6 0.7,-0.8 1.1,-1.4 -0.6,0.8 z m 112.700002,23 -1.5,-4.7 1.2,3.5 0.5,1.7 0.7,3 -0.9,-3.4 z m -118.000002,-15.5 -1.1,2 c 2.1,-3.8 -3.7,6.2 0.5,-1.3 a 66.7,66.7 0 0 1 5.7,-8.4 c 1.2,-1.5 3.6,-4.2 3,-3.7 l 1,-1 c 1.5,-1.7 3,-3 3.6,-3.5 l -0.7,0.6 c -0.8,0.8 -0.2,0 2.8,-2.4 2.9,-2.3 4.5,-3.2 4.3,-3.1 0.3,-0.2 -0.6,0 -5.2,4 a 59.4,59.4 0 0 0 -12.1,13.9 z m 21,-21.8 1.9,-1.1 2.200002,-1.3 a 23,23 0 0 1 -1.600002,0.7 52.7,52.7 0 0 0 -4.7,3.2 z m -27.2,35.3 c 0.2,-0.6 -1,3.5 0,-0.3 a 16.5,16.5 0 0 1 0.4,-0.9 z m 4.7,-11.2 -1,2 1.4,-2.8 c -0.8,1.4 3.7,-6.6 1.2,-2 z m -2,4 -0.4,0.7 a 39,39 0 0 1 3.8,-7.6 c 0.2,-0.4 -0.7,1 -1.5,2.8 l -2,4.1 z m 6.4,64.50001 0.4,0.6 -1,-1.2 -1.2,-1.7 c -0.4,-0.7 0.5,0.5 1.4,1.8 z m 1.4,-77.80001 c -7.2,9.2 5,-6.5 0.6,-0.9 1.7,-2.1 2.6,-3 2.8,-3.2 l -1.6,1.9 -1.8,2.1 z m -13.6,36.1 v -0.5 l 0.1,-1.7 v 2.3 z m 7.4,34.10001 z m 12,-76.80001 -1.1,1.1 c -0.6,0.5 -1,1 0.2,-0.4 a 44.5,44.5 0 0 1 6.6,-5.7 l -0.9,0.7 c -2.5,2 -4.4,4 -4.8,4.3 z m -9.6,11.8 -0.7,1.2 a 48.8,48.8 0 0 1 3.5,-5.5 c 1.6,-2.1 2,-2.5 0,0 a 76.2,76.2 0 0 0 -2.8,4.3 z m 104.500002,-8 a 46.9,46.9 0 0 0 0.4,0.4 21,21 0 0 0 -1.4,-1.5 l 1,1.2 z m 5.7,7.7 0.2,0.3 a 21.3,21.3 0 0 0 -0.2,-0.3 z m -12,-14 c 2,1.6 1.9,1.6 -0.1,-0.2 l -0.9,-0.8 0.8,0.6 a 10.4,10.4 0 0 0 -1.2,-1 l -3.1,-2.4 c 5.3,4 -9.6,-7 -0.8,-0.6 l 1.3,1 4,3.3 z m -98.800002,83.00001 0.2,0.3 a 21.5,21.5 0 0 1 -0.2,-0.3 z m -3.7,-7 0.4,1 -0.4,-0.7 a 28,28 0 0 1 -0.3,-0.8 50.6,50.6 0 0 1 0.3,0.5 z M 189.31047,159.58595 a 145.8,145.8 0 0 0 0.8,1.5 z m -104.700002,76.00001 1.8,1.8 a 25,25 0 0 1 -1.8,-1.8 z m -16.6,-62.40001 a 49.4,49.4 0 0 0 1,-4 c 0,-0.2 0.7,-2.4 1.8,-5.2 l 2,-4.7 -1,2.3 a 88,88 0 0 0 -2.7,6.9 l -0.7,2.6 a 107.3,107.3 0 0 0 -0.4,2 z m 4,44.00001 0.4,1.1 a 19.2,19.2 0 0 1 -1,-2.1 l 0.5,1 z m 16.7,22.3 z m -4.7,-95.40001 2.3,-2.4 -0.5,0.5 a 47.5,47.5 0 0 0 -1.8,1.9 z m 9.4,99.40001 a 54.6,54.6 0 0 0 -0.8,-0.5 16,16 0 0 0 0.8,0.5 z m 96.000002,-23.2 a 66.1,66.1 0 0 0 3.2,-6.8 c 1.4,-3.2 1.5,-3.6 0.6,-1.2 l -0.9,2.4 a 53.7,53.7 0 0 1 -5.7,10.6 c 0,0 1,-1.5 2.8,-5 z m -115.500002,1.4 -1,-1.8 0.2,0.6 1.2,2 z m 120.300002,-12.4 0.3,-1 0.4,-1.10001 a 13,13 0 0 1 -0.7,2.00001 z m -124.300002,-43.60001 2,-4.7 1.6,-3.4 -0.3,0.5 a 49.4,49.4 0 0 0 -2.8,6.1 c 3.4,-8.5 -5.4,14 -0.5,1.5 z m 116.600002,60.00001 c 0.6,-0.8 1.3,-1.9 2.3,-3.7 1,-1.4 1.6,-2.8 1.5,-2.6 -0.5,1.3 -2.2,4.3 -3.7,6.3 -1.2,1.6 -0.6,0.8 -0.1,0 z m -118.000002,-15.8 z m 5.6,-53.00001 z m -8.1,41.8 z m 80.600002,-73.2 c 0.5,0.1 0.6,0.2 0.2,0 a 57.1,57.1 0 0 0 -2.6,-0.5 z m -24.5,-1.1 c 0.2,0 0.8,-0.2 -0.4,0 -0.6,0 -1.5,0.2 -2.3,0.4 l -3.3,0.6 a 66.5,66.5 0 0 0 -10.2,3.1 103.9,103.9 0 0 1 13,-3.6 z m -44.100002,26.3 0.3,-0.5 0.2,-0.2 0.7,-1 a 16.6,16.6 0 0 0 -0.9,1.2 13.6,13.6 0 0 0 -0.3,0.5 z m -12.5,44.3 z m 7.1,25.10001 -1.8,-3.7 -0.3,-0.7 c 0,0 0,0.3 0.3,0.8 a 43,43 0 0 0 1.8,3.6 z m -7.4,-29.00001 v -3.4 -3.2 l -0.1,3.5 v 3.1 z m 52.800002,63.40001 c -1,-0.2 -2,-0.5 -2.1,-0.4 a 39.4,39.4 0 0 1 -4.7,-1 c -0.1,0 1.4,0.6 -1.9,-0.4 l -1.7,-0.4 0.8,0.4 1.4,0.4 a 44.4,44.4 0 0 1 3.1,0.7 l 3,0.5 a 7,7 0 0 0 1.9,0.3 c -0.3,-0.1 0,0 0.8,0 l 0.4,0.1 z M 65.410468,183.48595 v -0.7 0.8 z m 127.800002,-17.4 -0.2,-0.6 -0.5,-1.5 -1.1,-2.5 0.6,1.6 z m -118.500002,-11 z m 8.4,-10.9 1.7,-1.9 a 21.3,21.3 0 0 0 -1.7,2 z m 28.600002,-18 c 1.3,-0.4 -2,0.4 -5.7,2 2.2,-0.9 4.1,-1.5 5.7,-2 z m 16.5,129.90001 h -1 a 28.3,28.3 0 0 0 1.3,0 z M 65.710468,178.28595 Z m 25.4,-41.7 2.2,-1.6 -0.6,0.4 c -1.5,1 -1.7,1.3 -1.8,1.4 z m -23.2,33.1 1.4,-4 a 42.2,42.2 0 0 0 -1.4,4 z m 99.500002,-35.8 a 5.2,5.2 0 0 0 -0.3,-0.2 l -0.6,-0.4 0.6,0.4 z m -99.700002,75.70001 -0.4,-1.3 -0.5,-1.60001 a 49.7,49.7 0 0 0 0.9,3.00001 z m 82.600002,44 z m -5.2,1.3 a 190.4,190.4 0 0 0 -1.7,0.5 c -4,0.7 0.5,-0.2 1.7,-0.5 z m -72.200002,-97.40001 0.4,-0.9 c 0,0.1 0,-0.3 0.9,-1.7 0.8,-1.5 2.5,-4 1.5,-2.4 -0.7,1.1 -0.4,0.7 0,0.2 l 1,-1.8 c 0.7,-1 1,-1.5 -0.4,0.3 l -1.3,1.9 -1.3,2.4 c -1.5,2.8 -1.6,3.3 -1.3,3 z m 108.700002,76.00001 -0.2,0.3 a 29.3,29.3 0 0 0 0.2,-0.2 z m -100.800002,0 -0.5,-0.5 -2.6,-3 a 28.4,28.4 0 0 0 3.1,3.6 z m 26.500002,18.8 -1,-0.3 -2.4,-1 a 39.7,39.7 0 0 0 2.9,1.2 c 7.4,2.8 -1.4,-0.6 1.5,0.5 z m -43.000002,-68.00001 0.2,-2.1 0.3,-2.7 a 36.8,36.8 0 0 1 0.4,-3.3 l 0.5,-3 0.4,-1.8 a 67.5,67.5 0 0 0 -1.5,8 74,74 0 0 0 -0.2,2.8 c -0.2,3.2 0,1.7 0,2.1 z m 130.200002,28.10001 c 0,0.1 -0.4,1.3 0.2,-0.4 l 0.7,-2.1 -0.5,1.5 z m -114.000002,21.3 z m 94.000002,-95.40001 h 0.1 z m 18.9,77.40001 -0.1,0.2 -0.3,0.9 c -0.3,0.5 -0.4,0.8 0,0 l 1.2,-3 c 0.7,-2 0.2,-0.5 -0.3,0.6 z m -72.3,40.5 -2,-0.3 a 29.9,29.9 0 0 0 3.1,0.5 z M 64.210468,182.68595 v -0.6 c 0.1,-0.4 0.1,-0.6 0,0 a 20.4,20.4 0 0 0 -0.2,2.6 l 0.2,-1.4 z m 2,25 z"
     id="path13"
     inkscape:connector-curvature="0"
     style="fill:#dd6b2f;fill-opacity:1;fill-rule:evenodd;filter:url(#dropShadow)"
     transform="matrix(1.5827834,0,0,1.5827834,-69.392848,-164.57203)" />
</svg>
