<?xml version="1.0" encoding="UTF-8" standalone="no"?>
<!-- Created with Inkscape (http://www.inkscape.org/) -->

<svg
   xmlns:dc="http://purl.org/dc/elements/1.1/"
   xmlns:cc="http://creativecommons.org/ns#"
   xmlns:rdf="http://www.w3.org/1999/02/22-rdf-syntax-ns#"
   xmlns:svg="http://www.w3.org/2000/svg"
   xmlns="http://www.w3.org/2000/svg"
   xmlns:xlink="http://www.w3.org/1999/xlink"
   xmlns:sodipodi="http://sodipodi.sourceforge.net/DTD/sodipodi-0.dtd"
   xmlns:inkscape="http://www.inkscape.org/namespaces/inkscape"
   width="57"
   height="57"
   id="svg2"
   version="1.1"
   inkscape:version="0.48.3.1 r9886"
   inkscape:export-filename="/home/gandalf/Dropbox/code/geoportal2/apple-touch-icon.png"
   inkscape:export-xdpi="90"
   inkscape:export-ydpi="90"
   sodipodi:docname="New document 1">
  <defs
     id="defs4">
    <linearGradient
       id="linearGradient3796">
      <stop
         style="stop-color:#7c983d;stop-opacity:1;"
         offset="0"
         id="stop3798" />
      <stop
         style="stop-color:#0c113f;stop-opacity:1;"
         offset="1"
         id="stop3800" />
    </linearGradient>
    <linearGradient
       inkscape:collect="always"
       xlink:href="#linearGradient2165"
       id="linearGradient4966"
       gradientUnits="userSpaceOnUse"
       gradientTransform="matrix(1.3477015,0,0,1.139124,0.13455737,1.2632238)"
       x1="194.68881"
       y1="31.85433"
       x2="194.68881"
       y2="74.711746" />
    <linearGradient
       id="linearGradient2165"
       inkscape:collect="always">
      <stop
         id="stop2167"
         offset="0"
         style="stop-color:#1f2259;stop-opacity:1;" />
      <stop
         id="stop2169"
         offset="1"
         style="stop-color:#2fb5ea;stop-opacity:1" />
    </linearGradient>
    <radialGradient
       inkscape:collect="always"
       xlink:href="#linearGradient2173"
       id="radialGradient4968"
       gradientUnits="userSpaceOnUse"
       gradientTransform="matrix(0.27151723,2.4217793,-2.2612339,0.21415705,341.35089,-385.85643)"
       cx="180.72482"
       cy="38.594139"
       fx="180.72482"
       fy="38.594139"
       r="28.884468" />
    <linearGradient
       id="linearGradient2173"
       inkscape:collect="always">
      <stop
         id="stop2175"
         offset="0"
         style="stop-color:#ffffff;stop-opacity:0.87450981" />
      <stop
         id="stop2177"
         offset="1"
         style="stop-color:#ffffff;stop-opacity:0" />
    </linearGradient>
    <radialGradient
       inkscape:collect="always"
       xlink:href="#linearGradient3598"
       id="radialGradient4972"
       gradientUnits="userSpaceOnUse"
       gradientTransform="matrix(-1.3375513,-0.10680004,-0.06627982,-1.3866644,375.43654,29.201597)"
       cx="194.07924"
       cy="26.293318"
       fx="194.07924"
       fy="26.293318"
       r="28.884468" />
    <linearGradient
       inkscape:collect="always"
       id="linearGradient3598">
      <stop
         style="stop-color:#ffffff;stop-opacity:1"
         offset="0"
         id="stop3600" />
      <stop
         style="stop-color:#ffffff;stop-opacity:0"
         offset="1"
         id="stop3602" />
    </linearGradient>
    <radialGradient
       r="28.884468"
       fy="26.293318"
       fx="194.07924"
       cy="26.293318"
       cx="194.07924"
       gradientTransform="matrix(-1.3375513,-0.10680004,-0.06627982,-1.3866644,375.43654,29.201597)"
       gradientUnits="userSpaceOnUse"
       id="radialGradient5090"
       xlink:href="#linearGradient3598"
       inkscape:collect="always" />
    <linearGradient
       inkscape:collect="always"
       xlink:href="#linearGradient3796"
       id="linearGradient3802"
       x1="29.085449"
       y1="995.94763"
       x2="29.085449"
       y2="1052.4535"
       gradientUnits="userSpaceOnUse" />
  </defs>
  <sodipodi:namedview
     id="base"
     pagecolor="#ffffff"
     bordercolor="#666666"
     borderopacity="1.0"
     inkscape:pageopacity="0.0"
     inkscape:pageshadow="2"
     inkscape:zoom="8.8822536"
     inkscape:cx="13.56621"
     inkscape:cy="28.5"
     inkscape:document-units="px"
     inkscape:current-layer="layer1"
     showgrid="false"
     inkscape:window-width="1211"
     inkscape:window-height="904"
     inkscape:window-x="1973"
     inkscape:window-y="22"
     inkscape:window-maximized="0" />
  <metadata
     id="metadata7">
    <rdf:RDF>
      <cc:Work
         rdf:about="">
        <dc:format>image/svg+xml</dc:format>
        <dc:type
           rdf:resource="http://purl.org/dc/dcmitype/StillImage" />
        <dc:title></dc:title>
      </cc:Work>
    </rdf:RDF>
  </metadata>
  <g
     inkscape:label="Layer 1"
     inkscape:groupmode="layer"
     id="layer1"
     transform="translate(0,-995.36218)">
    <rect
       style="opacity:1;fill:url(#linearGradient3802);fill-opacity:1;stroke:none"
       id="rect3026"
       width="57"
       height="57"
       x="0"
       y="995.36218"
       ry="0"
       rx="0" />
    <g
       transform="matrix(0.46509737,0,0,0.46600544,-228.91709,575.45059)"
       id="g4517"
       style="stroke:none">
      <path
         transform="matrix(2.083575,0,0,2.083512,150.16529,844.55669)"
         d="m 222.44791,56.485737 c 0,15.952451 -12.93201,28.884468 -28.88446,28.884468 -15.95246,0 -28.88447,-12.932017 -28.88447,-28.884468 0,-15.952451 12.93201,-28.884468 28.88447,-28.884468 15.95245,0 28.88446,12.932017 28.88446,28.884468 z"
         sodipodi:ry="28.884468"
         sodipodi:rx="28.884468"
         sodipodi:cy="56.485737"
         sodipodi:cx="193.56345"
         id="path3523"
         style="fill:url(#linearGradient4966);fill-opacity:1;stroke:none;display:inline"
         sodipodi:type="arc" />
      <path
         style="opacity:0.78365383;fill:#ffffff;fill-opacity:1;stroke:none;display:inline"
         id="path3525"
         d="m 548.13006,1020.7712 c -3.68631,-0.4164 -8.02813,-1.27 -8.2451,-1.6211 -0.13162,-0.2129 0.46833,-0.5245 1.33324,-0.6923 2.06873,-0.4015 2.10431,-0.4016 5.26796,-0.015 1.79898,0.22 2.83675,0.1517 3.05471,-0.2009 0.23262,-0.3764 0.89848,-0.3067 2.255,0.2361 1.72603,0.6906 3.07531,0.7229 5.31391,0.127 0.42551,-0.1133 0.66941,0.083 0.58688,0.4725 -0.0993,0.4683 0.11705,0.5573 0.72809,0.2993 0.4781,-0.2018 1.52455,-0.3316 2.32545,-0.2883 l 1.45616,0.079 -1.16977,-0.8239 -1.16978,-0.8239 1.111,-0.411 c 0.7088,-0.2622 1.35595,-0.2077 1.78764,0.1506 0.86846,0.7207 6.84027,0.2065 9.23847,-0.7955 0.95021,-0.397 2.41087,-0.7296 3.2459,-0.7391 0.83503,-0.01 2.0643,-0.3293 2.73171,-0.7108 1.34903,-0.7712 2.42696,-0.927 2.42696,-0.3507 0,0.4374 -4.75883,2.5571 -8.97972,3.9997 -5.73201,1.9592 -16.2185,2.9081 -23.29871,2.1084 z m 12.96515,-7.7894 c -1.74374,-0.7165 -2.71815,-2.4488 -1.92855,-3.4287 0.34488,-0.4279 0.29266,-0.6089 -0.17725,-0.6141 -0.46812,-0.01 -0.49994,-0.1135 -0.10702,-0.3641 0.30753,-0.1961 0.70723,-1.4487 0.88822,-2.7835 0.18099,-1.3349 0.61435,-3.4099 0.96303,-4.6112 0.34867,-1.20138 0.6306,-2.62115 0.6265,-3.15507 -0.008,-1.02838 0.41728,-4.26651 0.91334,-6.95555 0.39747,-2.15468 -0.56008,-3.82605 -2.86597,-5.00242 -1.02281,-0.5218 -1.97848,-1.3211 -2.12372,-1.77623 -0.72153,-2.26095 -2.39977,-5.64554 -3.73717,-7.53693 -1.30557,-1.84639 -0.4143,-5.79192 1.74358,-7.71847 1.30218,-1.16259 1.52469,-1.67091 1.39444,-3.1855 -0.0852,-0.9912 -0.33124,-1.91139 -0.54666,-2.04488 -0.21542,-0.13348 -0.41254,-0.46112 -0.43803,-0.72808 -0.0255,-0.26697 -0.31938,-0.48539 -0.65308,-0.48539 -0.33371,0 -0.55409,0.26719 -0.48973,0.59373 0.15178,0.77017 -2.75816,0.23218 -3.66859,-0.67824 -0.35397,-0.35397 -0.8464,-0.64358 -1.0943,-0.64358 -0.24789,0 -0.45071,-0.28956 -0.45071,-0.64348 0,-1.04005 -2.04957,-2.62188 -3.88312,-2.99694 -0.93438,-0.19113 -2.17762,-0.78691 -2.76277,-1.32397 -0.7132,-0.6546 -1.87521,-1.02025 -3.52522,-1.10927 -2.52895,-0.13646 -5.12983,-1.37454 -4.62011,-2.19929 0.15808,-0.25578 -0.36678,-0.46406 -1.16936,-0.46406 -1.81855,0 -2.37936,-0.81366 -1.19802,-1.7382 0.49392,-0.38655 0.66017,-0.64505 0.36945,-0.57443 -0.44063,0.10701 -2.30631,-1.78789 -3.69683,-3.75475 -0.18873,-0.26696 -1.00688,-1.24988 -1.81809,-2.18426 l -1.47495,-1.69886 0.76109,1.57752 c 0.41859,0.86764 0.95666,1.57752 1.1957,1.57752 0.23903,0 0.31734,0.30554 0.17404,0.67899 -0.1433,0.37344 -0.0272,0.82317 0.25793,0.99942 0.28516,0.17624 0.51848,0.66904 0.51848,1.0951 0,0.67467 -0.12531,0.66127 -0.97078,-0.10387 -0.53393,-0.4832 -0.97078,-1.17918 -0.97078,-1.54663 0,-0.36745 -0.33414,-0.79631 -0.74255,-0.95303 -0.45343,-0.17401 -0.63473,-0.62464 -0.46564,-1.1574 0.1523,-0.47984 0.0496,-1.01293 -0.22823,-1.18463 -0.27782,-0.17172 -0.50514,-0.70426 -0.50514,-1.18345 0,-0.47919 -0.5262,-1.43904 -1.16934,-2.133 -1.78398,-1.92495 -2.27473,-5.03374 -1.2093,-7.66062 0.97823,-2.41185 1.16747,-4.32492 0.42784,-4.32492 -0.27922,0 -0.36778,-0.50541 -0.20337,-1.16052 0.1602,-0.63829 0.0551,-1.30646 -0.23344,-1.48482 -0.29033,-0.17943 -0.52473,0.0137 -0.52473,0.43244 0,0.4162 -0.22669,0.75673 -0.50375,0.75673 -0.27708,0 -0.46153,-0.49146 -0.40991,-1.09213 0.17813,-2.07259 -0.06,-2.79099 -0.92527,-2.79099 -1.10222,0 -4.5262,1.73067 -5.02695,2.5409 -0.20875,0.33778 -0.55134,0.61679 -0.7613,0.62002 -0.20996,0.003 -1.39148,0.70449 -2.62561,1.55836 -1.23412,0.85386 -2.37211,1.42422 -2.52886,1.26747 -0.15675,-0.15675 0.41461,-0.75648 1.26972,-1.33273 0.8551,-0.57626 1.62941,-1.47691 1.72067,-2.00144 0.0913,-0.52454 0.9665,-1.6631 1.94492,-2.53013 0.97843,-0.86703 1.36692,-1.43289 0.86331,-1.25747 -1.39433,0.48566 -0.73483,-0.91947 0.7779,-1.6574 0.6857,-0.3345 1.37732,-1.09899 1.53695,-1.69886 0.38372,-1.44206 3.73673,-3.75591 5.47383,-3.77739 0.75824,-0.009 2.68916,-0.29553 4.29095,-0.63587 1.60179,-0.34035 3.71685,-0.56443 4.70016,-0.49797 1.4693,0.0993 1.77596,-0.0366 1.72126,-0.76263 -0.054,-0.71638 -0.22725,-0.7831 -0.9163,-0.35278 -0.46737,0.29188 -1.00003,0.38041 -1.18369,0.19675 -0.46399,-0.46398 0.73757,-1.81357 1.61462,-1.81357 0.42261,0 0.61136,-0.28464 0.45645,-0.68833 -0.17402,-0.45347 0.34653,-0.95718 1.52558,-1.47624 0.98435,-0.43335 1.35287,-0.6884 0.81895,-0.56679 -1.28116,0.29183 -4.15332,1.298 -5.21137,1.82564 -0.46356,0.23118 -1.28266,0.42033 -1.82021,0.42033 -0.53755,0 -0.97737,0.19253 -0.97737,0.42785 0,0.4218 -3.45978,1.81023 -5.82468,2.33749 -1.0509,0.23429 -0.98587,0.11409 0.4854,-0.89718 5.25593,-3.61266 9.9281,-5.60178 17.12969,-7.29279 3.69224,-0.86698 5.99063,-1.05229 13.20717,-1.06486 8.70704,-0.0152 15.23939,0.76678 13.80604,1.65263 -0.35978,0.22237 -0.83705,0.29126 -1.06058,0.15311 -0.22354,-0.13815 -2.67471,-0.31692 -5.44706,-0.39729 -4.23078,-0.12262 -4.99748,-0.0336 -4.77206,0.55381 0.14773,0.38494 0.54236,0.59485 0.87697,0.46644 0.83343,-0.31981 4.75348,1.7257 7.28934,3.80365 1.14998,0.94232 2.2746,1.71331 2.49916,1.71331 0.22456,0 0.69182,0.45401 1.03837,1.00892 0.55172,0.88345 0.51188,1.03983 -0.32046,1.25749 -1.24981,0.32683 -1.59084,2.29942 -0.78998,4.56932 0.35191,0.99743 0.53417,1.91919 0.40501,2.04835 -0.44378,0.44379 -3.3121,-1.30135 -5.18247,-3.15312 -1.02986,-1.01962 -2.10598,-1.70954 -2.39138,-1.53316 -0.28654,0.17709 -0.37904,0.0944 -0.20656,-0.18469 0.17179,-0.27796 -0.0228,-0.78356 -0.43247,-1.12355 -0.40967,-0.33998 -0.63254,-0.91078 -0.49529,-1.26846 0.14021,-0.36538 -0.0695,-0.65032 -0.47853,-0.65032 -0.40045,0 -0.85381,-0.32764 -1.00748,-0.72808 -0.15367,-0.40045 -0.51185,-0.72809 -0.79598,-0.72809 -0.28412,0 -0.87104,-0.32078 -1.30426,-0.71284 -0.58049,-0.52534 -1.16509,-0.60016 -2.22247,-0.28442 -0.78914,0.23563 -1.14464,0.4472 -0.79,0.47015 1.04643,0.0677 4.52153,3.87118 4.37135,4.7844 -0.0759,0.46163 0.006,1.06816 0.18188,1.34787 0.17594,0.27971 0.12216,0.82578 -0.11952,1.21347 -0.37347,0.59912 -0.7511,0.54081 -2.51627,-0.38857 -1.14226,-0.6014 -2.44621,-1.09286 -2.89764,-1.09212 -1.0997,0.002 -1.60925,-0.90558 -0.70367,-1.25309 0.39672,-0.15224 0.84604,-0.60183 0.99849,-0.99908 0.208,-0.54206 0.0357,-0.64566 -0.69056,-0.41515 -0.71274,0.22621 -0.96772,0.0854 -0.96772,-0.53456 0,-0.46293 -0.14373,-0.69797 -0.31939,-0.52231 -0.17566,0.17566 -0.55791,0.12151 -0.84943,-0.12034 -0.36604,-0.30367 -0.52821,0.0847 -0.5241,1.25515 0.004,1.10821 0.30144,1.86026 0.85964,2.17264 0.46952,0.26277 0.75143,0.64323 0.62642,0.84548 -0.125,0.20225 0.36187,0.28217 1.08192,0.17758 0.8829,-0.12823 2.02041,0.29018 3.49344,1.28501 1.68387,1.13721 2.22021,1.31209 2.34119,0.76336 0.23926,-1.08512 0.69341,-0.88189 2.76102,1.23552 1.04581,1.07101 2.11401,1.87646 2.37376,1.78987 0.54765,-0.18254 1.81445,0.99926 2.98329,2.78313 0.81778,1.24809 2.00448,1.7806 1.42446,0.63919 -0.16957,-0.3337 0.14517,-0.0911 0.69944,0.53917 0.55427,0.63025 1.00441,1.50395 1.00033,1.94155 -0.006,0.69106 -0.0693,0.69994 -0.47796,0.0676 -0.41825,-0.64718 -0.47561,-0.64718 -0.51628,0 -0.0314,0.49969 -0.12255,0.53775 -0.29058,0.12135 -0.39138,-0.96995 -2.49508,-0.75879 -2.41559,0.24246 0.0427,0.53772 -0.33318,0.90617 -1.02471,1.00454 -0.60068,0.0854 -1.09213,0.38733 -1.09213,0.67088 0,0.32128 -0.73162,0.41741 -1.94156,0.25512 -1.58535,-0.21264 -1.94354,-0.11304 -1.95235,0.54283 -0.006,0.44178 -0.43793,1.34931 -0.95999,2.01672 -0.52205,0.66741 -0.95405,1.51325 -0.95999,1.87965 -0.009,0.56463 -0.13898,0.56463 -0.85184,0 -0.78026,-0.61802 -0.7788,-0.56869 0.0202,0.68236 0.94867,1.48544 0.78517,1.97617 -1.22071,3.66403 -1.36936,1.15223 -1.81594,3.14029 -0.84081,3.74295 0.71305,0.44069 1.49582,2.63125 1.1438,3.20083 -0.42087,0.68099 -1.69731,-0.52397 -2.44185,-2.30511 -0.46004,-1.10055 -1.05124,-1.59651 -2.16973,-1.82021 -2.3849,-0.47699 -3.35762,-0.3683 -3.35762,0.37516 0,0.43905 -0.33951,0.59385 -0.95141,0.43385 -1.09906,-0.28742 -4.05174,1.39455 -5.11632,2.91445 -0.93502,1.33492 -0.92282,2.93475 0.0379,4.95922 0.89382,1.88359 1.61778,2.25533 3.61454,1.85598 0.99933,-0.19987 1.54796,-0.65323 1.74617,-1.44298 0.15896,-0.63334 0.53837,-1.16825 0.84313,-1.18867 0.30477,-0.0204 0.9355,-0.11019 1.40162,-0.19947 1.2662,-0.24251 1.4692,0.51408 0.59271,2.20901 -0.43104,0.83355 -0.66028,1.63896 -0.50943,1.78981 0.15085,0.15085 0.0236,0.57631 -0.28276,0.94547 -0.46129,0.55581 -0.24205,0.63648 1.27545,0.46925 3.00559,-0.33121 3.5997,0.0145 3.57122,2.07839 -0.0481,3.48364 1.08355,4.9341 3.0348,3.88983 0.64333,-0.34431 1.2289,-0.34376 1.87449,0.002 1.24881,0.66836 1.3067,0.65656 2.36767,-0.48226 0.50458,-0.5416 1.33218,-1.06886 1.83913,-1.17168 0.50693,-0.10283 1.33977,-0.3521 1.85075,-0.55393 0.65149,-0.25734 0.8242,-0.19731 0.57809,0.2009 -0.19303,0.31234 -0.11965,0.56788 0.16307,0.56788 0.28272,0 0.51404,-0.20547 0.51404,-0.45661 0,-0.25112 0.585,-0.1531 1.30002,0.21786 0.71501,0.37096 1.51324,0.54267 1.77386,0.38161 0.26061,-0.16107 0.33333,-0.0655 0.16161,0.21235 -0.17173,0.27786 0.17677,0.63627 0.77443,0.79645 1.52743,0.40939 1.91472,0.37356 1.5928,-0.14734 -0.1536,-0.24852 -0.0235,-0.6099 0.28904,-0.80308 0.35492,-0.21936 0.43827,-0.14084 0.22196,0.20915 -0.32199,0.52099 0.35394,0.75254 2.01656,0.69079 0.3337,-0.0124 0.61067,0.33544 0.61548,0.77297 0.0123,1.11366 3.3204,3.72712 5.18346,4.09497 1.87786,0.37077 3.54481,1.70964 3.54481,2.84713 0,0.45884 0.23266,0.97805 0.51701,1.15379 0.3383,0.20908 0.2169,0.68039 -0.35116,1.36347 -0.4775,0.57416 -0.55981,0.77346 -0.18293,0.44289 0.55601,-0.48769 1.26624,-0.2817 3.76561,1.09212 1.69419,0.93125 3.47583,1.69317 3.95919,1.69317 0.48337,0 1.26086,0.42213 1.72776,0.93805 0.46691,0.51592 1.15604,0.82019 1.5314,0.67615 0.49366,-0.18944 0.68248,0.14431 0.68248,1.20658 0,1.03523 -0.63715,2.2149 -2.15963,3.99854 -1.18779,1.39154 -2.30753,3.21138 -2.4883,4.04409 -0.49847,2.29623 -2.67638,5.06833 -4.45312,5.66804 -0.86765,0.29287 -1.57753,0.83814 -1.57753,1.21173 0,0.37359 -0.60067,1.06543 -1.33481,1.53742 -0.73416,0.472 -1.72875,1.34541 -2.21018,1.94093 -2.38375,2.9485 -4.98075,5.01657 -6.06121,4.82667 -0.83839,-0.1474 -1.07717,0.01 -0.9708,0.6372 0.15122,0.8926 -0.8944,2.438 -1.64958,2.438 -0.2521,0 -1.64515,1.0246 -3.09568,2.2769 -1.75192,1.5125 -2.44231,2.3974 -2.05643,2.6359 0.40779,0.252 0.22702,0.6583 -0.60666,1.3632 -1.11336,0.9415 -1.13448,1.0455 -0.33811,1.6648 0.46719,0.3633 0.84943,0.7748 0.84943,0.9145 0,0.6155 -1.8338,0.6345 -3.29541,0.034 z m -1.95287,-83.48552 c -0.35039,-0.14021 -0.76903,-0.12297 -0.93033,0.0383 -0.16129,0.1613 0.12539,0.27601 0.63708,0.25494 0.56545,-0.0233 0.68046,-0.1383 0.29325,-0.29326 z m 3.28951,-2.20148 c 0.009,-0.19185 -0.31043,-0.22309 -0.71088,-0.0694 -0.42545,0.16327 -0.73117,0.006 -0.73551,-0.37927 -0.006,-0.53668 -0.0876,-0.5321 -0.44006,0.0247 -0.26239,0.41446 -0.22403,1.14123 0.0975,1.84682 l 0.53009,1.16343 0.62086,-1.11873 c 0.34146,-0.61531 0.62859,-1.2757 0.63804,-1.46754 z m -15.51527,1.36491 c 0,-0.097 -0.49927,-0.5035 -1.10949,-0.90333 -0.99524,-0.65212 -1.21266,-0.64341 -2.11157,0.0845 -0.97459,0.78919 -0.94417,0.81395 1.1095,0.90333 1.16136,0.0505 2.11156,0.0125 2.11156,-0.0845 z m -1.1674,-2.4986 c -0.88078,-0.64405 -0.88291,-0.69049 -0.0463,-1.01154 0.48229,-0.18507 1.69654,-0.11772 2.69834,0.14968 1.54522,0.41244 1.77909,0.37575 1.54208,-0.24188 -0.18085,-0.47126 -0.0804,-0.6051 0.28465,-0.37946 0.31022,0.19173 0.948,0.12499 1.41731,-0.1483 0.77498,-0.45131 0.75863,-0.49826 -0.17817,-0.51166 -0.79065,-0.0113 -1.03146,-0.31756 -1.03146,-1.31173 0,-0.71333 -0.40954,-1.59644 -0.9101,-1.96246 -0.50057,-0.36602 -0.85551,-0.76529 -0.78876,-0.88729 0.33599,-0.61411 0.0417,-1.19258 -0.60674,-1.19258 -0.40045,0 -0.72808,-0.23662 -0.72808,-0.52583 0,-0.28922 -0.27303,-0.42794 -0.60674,-0.30829 -0.33371,0.11965 -0.99425,0.0181 -1.46787,-0.22558 -0.66861,-0.34407 -1.1397,-0.11208 -2.10714,1.03767 -0.68532,0.81444 -1.42166,1.37226 -1.63632,1.2396 -0.21465,-0.13267 -0.51452,0.0826 -0.66637,0.47827 -0.15185,0.39571 -0.12013,0.67103 0.0705,0.61182 0.19062,-0.0592 0.95696,0.50913 1.70299,1.26295 0.84868,0.85757 1.64646,1.25929 2.13129,1.07324 1.00107,-0.38414 2.67739,0.14465 2.31538,0.73039 -0.15311,0.24774 -0.60602,0.45044 -1.00647,0.45044 -0.42675,0 -0.58474,-0.23192 -0.38175,-0.56038 0.2163,-0.34999 0.13296,-0.42852 -0.22196,-0.20916 -0.31257,0.19318 -0.44265,0.55457 -0.28905,0.80308 0.15359,0.24852 0.0479,0.45186 -0.23478,0.45186 -0.28272,0 -0.51403,-0.21843 -0.51403,-0.4854 0,-0.85401 -1.81959,-0.51886 -2.05422,0.37838 -0.26676,1.02008 0.86373,2.31135 1.34368,1.53479 0.21539,-0.3485 0.49934,-0.34831 0.91975,6.1e-4 0.33451,0.27761 0.75191,0.36103 0.92757,0.18537 0.17566,-0.17566 0.31938,-0.0281 0.31938,0.32781 0,0.35594 0.16348,0.4837 0.36329,0.28391 0.19979,-0.19981 -0.0521,-0.66706 -0.55991,-1.03833 z m 3.59436,-2.61467 c 0,-0.25121 0.21592,-0.59019 0.47983,-0.75329 0.27514,-0.17006 0.35652,0.0248 0.19076,0.45674 -0.32268,0.8409 -0.67059,0.99475 -0.67059,0.29655 z m -6.09595,-1.22668 c -0.51822,-0.39196 -0.68704,-0.71959 -0.37517,-0.72809 0.92214,-0.0251 2.1026,0.54041 2.1026,1.00727 0,0.63614 -0.65783,0.52982 -1.72743,-0.27918 z m 16.28913,4.73418 c 0,-0.0573 -0.41391,-0.32579 -0.91981,-0.59653 -0.65579,-0.35097 -1.06192,-0.32104 -1.4149,0.10427 -0.37229,0.44858 -0.14416,0.59654 0.91981,0.59654 0.7782,0 1.4149,-0.0469 1.4149,-0.10428 z m -7.28084,-1.10919 c 0,-0.26697 -0.34054,-0.4854 -0.75674,-0.4854 -0.41621,0 -0.62173,0.21843 -0.45674,0.4854 0.16499,0.26696 0.50552,0.48538 0.75673,0.48538 0.25121,0 0.45675,-0.21842 0.45675,-0.48538 z m 1.69886,0 c -0.16499,-0.26697 -0.39631,-0.4854 -0.51404,-0.4854 -0.11772,0 -0.21404,0.21843 -0.21404,0.4854 0,0.26696 0.23131,0.48538 0.51403,0.48538 0.28272,0 0.37904,-0.21842 0.21405,-0.48538 z m -15.77517,-2.44313 c -0.6158,-0.41163 -0.52223,-0.6689 0.60674,-1.66815 0.73414,-0.64979 1.33482,-1.4521 1.33482,-1.7829 0,-0.33079 -0.30978,-0.17779 -0.6884,0.34 -0.37862,0.5178 -0.85187,0.77797 -1.05168,0.57816 -0.19981,-0.1998 -0.10845,-0.36328 0.203,-0.36328 0.31147,0 0.5663,-0.32763 0.5663,-0.72808 0,-0.94205 -0.91837,-0.94405 -1.27957,-0.003 -0.15308,0.3989 -0.47743,0.60224 -0.72078,0.45184 -0.24334,-0.1504 -0.31677,-0.47677 -0.16318,-0.7253 0.1536,-0.24851 0.0608,-0.45184 -0.20613,-0.45184 -0.26696,0 -0.62258,0.22198 -0.79027,0.4933 -0.16768,0.27132 -0.53154,0.35323 -0.80855,0.18202 -0.32475,-0.2007 -0.26972,-0.45952 0.15489,-0.72856 0.53622,-0.33978 0.52332,-0.41547 -0.0695,-0.40751 -0.92157,0.0123 -3.37781,1.3911 -2.51965,1.41432 0.34947,0.009 0.51297,0.21526 0.36337,0.45733 -0.1496,0.24207 0.21975,0.33759 0.82078,0.21227 l 1.0928,-0.22785 -1.11873,0.66847 -1.11872,0.66848 1.34844,0.61439 c 0.97271,0.4432 1.39901,0.46265 1.52996,0.0698 0.13102,-0.39307 0.3774,-0.38207 0.8854,0.0395 0.56727,0.47078 0.58166,0.66166 0.0742,0.98361 -0.41016,0.26017 -0.12201,0.39945 0.82646,0.39945 1.13386,0 1.29502,-0.10772 0.72808,-0.4867 z m -1.83935,-1.73364 c -0.69357,-0.75038 -0.2252,-0.89397 0.79904,-0.24499 0.36221,0.22951 0.47142,0.53088 0.24269,0.66971 -0.22872,0.13883 -0.6975,-0.0523 -1.04173,-0.42472 z m 19.05403,-0.119 c -0.27351,-0.28791 -1.19681,0.44177 -1.19681,0.94582 0,0.26174 0.3056,0.19424 0.67912,-0.14999 0.37353,-0.34423 0.60648,-0.70236 0.51769,-0.79583 z m -13.81695,0.70728 c 0,-0.10493 -0.33899,-0.32085 -0.7533,-0.47984 -0.43195,-0.16576 -0.62679,-0.0844 -0.45674,0.19076 0.28505,0.46122 1.21004,0.68219 1.21004,0.28908 z m -7.38496,-4.92512 c 0.4195,-0.36531 0.17931,-0.49508 -0.8698,-0.46992 -0.79712,0.0191 -1.83241,0.45737 -2.30062,0.97389 -0.83389,0.91992 -0.82995,0.92143 0.19265,0.0743 1.08574,-0.8995 1.97131,-0.40003 1.37566,0.77588 -0.16903,0.33371 -0.008,0.27911 0.35762,-0.12135 0.36573,-0.40044 0.92575,-0.95518 1.24449,-1.23275 z m 3.98723,0.71872 c 0,-0.28272 -0.21843,-0.37904 -0.48539,-0.21405 -0.26697,0.16499 -0.48539,0.39632 -0.48539,0.51404 0,0.11772 0.21842,0.21404 0.48539,0.21404 0.26696,0 0.48539,-0.23131 0.48539,-0.51403 z m -2.55753,-3.70545 c -0.47228,-0.12307 -1.12755,-0.11498 -1.45618,0.018 -0.32862,0.13296 0.0578,0.23365 0.85867,0.22376 0.80089,-0.01 1.06978,-0.11868 0.59751,-0.24174 z m 3.78384,-0.54067 c -0.14944,-0.14945 -0.5411,-3.1e-4 -0.87036,0.33141 -0.47581,0.47938 -0.42005,0.53514 0.27172,0.27173 0.4787,-0.18228 0.74809,-0.4537 0.59864,-0.60314 z m 5.56914,-0.60778 c 0,-0.25121 -0.18201,-0.45674 -0.40448,-0.45674 -0.22248,0 -0.4045,0.31803 -0.4045,0.70673 0,0.3887 0.18202,0.59424 0.4045,0.45674 0.22247,-0.13749 0.40448,-0.45552 0.40448,-0.70673 z m -1.94692,-0.95216 c -0.28871,-0.53945 -0.36368,-1.24933 -0.1666,-1.57752 0.2255,-0.37552 0.0494,-0.34601 -0.47519,0.0796 -0.78101,0.63374 -0.78214,0.73308 -0.0179,1.57752 1.06283,1.1744 1.31461,1.14402 0.65974,-0.0796 z m -2.46203,0.32101 c -0.11124,-0.0959 -0.85753,-0.32099 -1.65842,-0.50013 -1.06344,-0.23788 -1.25981,-0.19285 -0.72808,0.16697 0.65546,0.44356 2.87357,0.7532 2.3865,0.33316 z m -4.32806,-1.32615 c 0.64718,-0.45769 0.64718,-0.49112 0,-0.30085 -0.40044,0.11773 -1.16494,-0.0106 -1.69886,-0.28521 -0.86782,-0.44631 -0.90013,-0.41361 -0.30461,0.30829 0.77572,0.94036 1.01891,0.97408 2.00347,0.27777 z m 2.42695,-0.66846 c 0,-0.45099 -0.2824,-0.60449 -0.76878,-0.41784 -0.61898,0.23752 -0.64262,0.37498 -0.12135,0.70542 0.86211,0.54649 0.89013,0.53743 0.89013,-0.28758 z m 12.81429,-0.25793 c 1.90695,0 -0.0448,-1.0642 -2.14881,-1.17163 -1.26841,-0.0648 -2.28129,-0.41734 -2.65086,-0.92276 -0.86497,-1.18292 -1.21916,-1.0107 -1.21916,0.59278 0,1.15664 0.1694,1.36642 0.94054,1.16477 0.51729,-0.13528 1.43671,0.10157 2.04313,0.52634 0.72819,0.51003 1.2659,0.60898 1.58349,0.29139 0.26449,-0.26449 0.91775,-0.48089 1.45167,-0.48089 z m -10.87273,0 c 0,-0.26696 -0.23132,-0.48539 -0.51404,-0.48539 -0.28272,0 -0.37904,0.21843 -0.21405,0.48539 0.16499,0.26696 0.39631,0.48539 0.51404,0.48539 0.11773,0 0.21405,-0.21843 0.21405,-0.48539 z m 13.19653,-4.70008 c -0.35038,-0.14021 -0.76904,-0.12297 -0.93032,0.0383 -0.1613,0.16129 0.12539,0.27601 0.63706,0.25493 0.56546,-0.0233 0.68047,-0.13831 0.29326,-0.29325 z m 12.86591,106.32151 c -0.51759,-0.5176 0.14441,-1.1458 1.20746,-1.1458 0.83526,0 0.90122,0.121 0.39731,0.7281 -0.65248,0.7862 -1.11569,0.9068 -1.60477,0.4177 z m -52.03081,-11.8071 c -1.33482,-1.55589 -2.51503,-2.74524 -2.62268,-2.64303 -0.10764,0.1022 -0.71378,-0.51636 -1.34697,-1.3746 -1.17738,-1.59585 -2.81309,-2.74716 -3.94658,-2.77785 -0.34946,-0.009 -0.5058,0.19248 -0.34742,0.44874 0.17203,0.27834 -0.2989,0.26135 -1.16963,-0.0422 -1.13741,-0.39649 -1.79345,-1.21858 -2.98643,-3.7423 -2.45853,-5.201 -2.48791,-5.32905 -1.36087,-5.93222 0.56621,-0.30303 0.8791,-0.82841 0.72793,-1.22232 -0.1458,-0.37997 -0.0535,-0.69086 0.20505,-0.69086 0.25859,0 0.47016,-0.34137 0.47016,-0.75859 0,-0.5081 0.36065,-0.70846 1.09213,-0.60675 0.75761,0.10535 1.09402,-0.0978 1.09831,-0.66331 0.003,-0.44834 0.16723,-0.9762 0.36405,-1.17302 0.19682,-0.19682 0.35785,-0.12038 0.35785,0.16987 0,0.29025 0.65528,0.67164 1.45618,0.84755 0.80089,0.17591 1.45616,0.59505 1.45616,0.93143 0,0.33639 0.60067,0.91269 1.33482,1.28067 0.73416,0.368 1.45522,0.73442 1.60237,0.81429 0.14715,0.0799 0.17785,-0.62301 0.0682,-1.56194 -0.24421,-2.09173 0.67105,-2.29675 1.12038,-0.25098 0.1759,0.8009 0.50395,1.45616 0.729,1.45616 0.22505,0 0.67682,0.8191 1.00394,1.82021 0.32711,1.00113 1.05393,2.2911 1.61515,2.86662 1.46222,1.49947 2.23389,2.50102 2.23389,2.89936 0,0.19047 0.34416,0.72661 0.76481,1.1914 1.02184,1.12913 1.26365,4.76785 0.3989,6.00246 -0.37308,0.53264 -0.67832,1.35253 -0.67832,1.82196 0,0.51008 -0.49804,0.97855 -1.23768,1.16415 -1.22286,0.3069 -1.22577,0.319 -0.24269,1.0076 0.97147,0.6804 1.357,1.6456 0.63093,1.5795 -0.20022,-0.018 -1.45616,-1.3062 -2.79099,-2.862 z m 3.80792,-7.5617 c -0.15808,-0.41196 -0.39152,-0.64491 -0.51875,-0.51768 -0.12724,0.12723 -0.0874,0.4643 0.0886,0.74902 0.47862,0.77442 0.75837,0.62397 0.43015,-0.23134 z m 4.47091,9.53 c -0.28876,-0.4672 3.43348,-2.46571 4.6159,-2.47835 0.5833,-0.006 0.57813,-0.0837 -0.0319,-0.47795 -0.57351,-0.37064 -0.5864,-0.47211 -0.0607,-0.47796 0.48195,-0.005 0.58648,-0.41207 0.37618,-1.4636 -0.16429,-0.82143 -0.0849,-1.45617 0.18202,-1.45617 0.26029,0 0.47325,0.21843 0.47325,0.48539 0,0.26697 0.45687,0.94226 1.01527,1.50066 l 1.01527,1.01527 -1.13662,0.80139 c -0.62514,0.44072 -1.24582,0.80332 -1.3793,0.80572 -0.13349,0 -0.9317,0.4954 -1.7738,1.0957 -1.60971,1.1474 -2.83841,1.3897 -3.2956,0.6499 z m 4.68108,-11.79039 c -0.32036,-0.32036 -0.58246,-0.75721 -0.58246,-0.97078 0,-0.71518 0.73107,-0.39823 1.34351,0.58247 0.66375,1.06283 0.16695,1.31631 -0.76105,0.38831 z m 76.35022,-0.50966 c 0.19485,-0.60068 0.55335,-3.49481 0.79665,-6.43141 0.26177,-3.16103 0.75167,-5.89416 1.20076,-6.69936 0.63865,-1.14507 0.66797,-1.73751 0.1858,-3.74772 -0.31853,-1.32761 -0.42609,-3.25586 -0.24236,-4.34324 0.29816,-1.76497 0.23151,-1.95563 -0.68315,-1.95563 -0.57719,0 -1.01336,-0.31337 -1.01336,-0.72808 0,-0.91753 -0.93229,-0.90988 -2.15878,0.0177 -0.51998,0.39321 -1.33085,0.59259 -1.8019,0.44306 -0.47114,-0.14952 -1.27834,-0.0461 -1.79379,0.22974 -1.21763,0.65161 -3.30788,-0.91691 -4.26063,-3.19705 -0.37122,-0.88851 -0.9454,-1.56172 -1.27599,-1.49603 -0.42947,0.0854 -0.601,-0.80218 -0.601,-3.11035 0,-1.77638 0.17191,-3.12367 0.38193,-2.99398 0.21002,0.12968 0.33606,-0.49195 0.27997,-1.38142 -0.056,-0.88947 0.3157,-2.3817 0.82605,-3.31607 0.51045,-0.93438 0.93079,-2.02651 0.93418,-2.42696 0.003,-0.40044 0.22426,-0.69748 0.49084,-0.66009 0.66807,0.0937 3.27461,-1.80846 2.93856,-2.14445 -0.14942,-0.14944 0.0903,-0.67168 0.53269,-1.16053 0.44239,-0.48886 0.6346,-0.88883 0.42703,-0.88883 -0.20758,0 -0.0776,-0.38223 0.28883,-0.84943 0.60377,-0.76985 0.58662,-0.78702 -0.18325,-0.18325 -0.46719,0.36638 -0.87677,0.53021 -0.91014,0.36404 -0.0334,-0.16618 -0.0928,-0.57517 -0.13226,-0.90887 -0.0393,-0.3337 -0.48019,-0.53537 -0.97961,-0.44814 -0.80494,0.14059 -0.86781,-0.0524 -0.55287,-1.69886 0.19541,-1.02161 0.33653,-2.37081 0.31372,-2.99823 -0.0649,-1.77726 0.37951,-2.07094 1.92463,-1.27194 1.33009,0.68783 1.4286,0.67747 1.4286,-0.15017 0,-0.48892 -0.54599,-1.62909 -1.21349,-2.53372 -1.44425,-1.95765 -1.45047,-1.98562 -0.36396,-1.644 0.76855,0.24168 0.77553,0.20559 0.0731,-0.37928 -0.84189,-0.70103 -0.89477,-0.83422 -0.97895,-2.46657 -0.0423,-0.82185 -0.11124,-0.88191 -0.27827,-0.2427 -0.12208,0.46719 -0.5081,0.84943 -0.85783,0.84943 -0.89213,0 -1.3216,-1.93862 -0.49942,-2.25412 0.36293,-0.13924 0.54005,-0.56521 0.39366,-0.94659 -0.19325,-0.50354 -0.0289,-0.60238 0.60038,-0.36094 0.67937,0.26072 0.79702,0.15172 0.54495,-0.5051 -0.20258,-0.52785 -0.13169,-0.72034 0.19155,-0.52056 0.28204,0.17435 0.38998,0.63727 0.23981,1.02872 -0.15026,0.39144 0.26593,1.67721 0.92475,2.85727 0.65873,1.18006 1.08764,2.5305 0.95303,3.00096 -0.13904,0.48604 -0.003,0.39786 0.31532,-0.20423 0.46303,-0.87595 0.37188,-1.36418 -0.52572,-2.81653 -0.59718,-0.96629 -0.9914,-1.85131 -0.87602,-1.9667 0.28601,-0.28596 3.11682,3.77705 3.52273,5.05617 0.17967,0.56616 0.48575,1.02938 0.68003,1.02938 0.7431,0 5.89134,11.45962 5.89134,13.11379 0,0.42517 -0.35227,0.28202 -0.9897,-0.40213 -0.88902,-0.95432 -1.92265,-1.40983 -1.92265,-0.84736 0,0.33411 2.01503,3.66818 2.21695,3.66818 0.0988,0 0.0421,-0.35812 -0.12584,-0.79582 -0.25056,-0.65305 -0.14536,-0.70626 0.58671,-0.29657 0.49065,0.27459 0.93502,0.90573 0.98753,1.40255 0.0525,0.49682 0.23397,1.55859 0.40327,2.35948 0.1693,0.80089 0.62772,3.69096 1.01883,6.42237 0.76855,5.36825 0.39111,12.29072 -1.00497,18.43227 -0.3766,1.65665 -0.68598,3.73169 -0.68749,4.6112 -0.005,2.67712 -0.95067,5.32588 -2.0006,5.60042 -0.52591,0.13754 -1.49534,1.31396 -2.15426,2.61424 -1.24545,2.45778 -2.04086,3.1673 -1.42597,1.27203 z m 3.24558,-46.58124 c -0.34822,-0.3483 -0.57436,-0.37696 -0.57436,-0.0728 0,0.6479 0.57408,1.22193 0.89798,0.89798 0.13791,-0.13793 -0.008,-0.50925 -0.32362,-0.82516 z m -1.27862,-0.0162 c -0.40591,-1.85072 -2.06631,-4.72333 -2.73277,-4.72761 -0.88789,-0.006 -2.11665,2.02155 -1.80039,2.97035 0.11812,0.35424 0.63498,0.66606 1.14854,0.69292 2.52265,0.13196 3.1136,0.24374 3.06063,0.57895 -0.0887,0.56202 0.0361,1.09212 0.25725,1.09212 0.10982,0 0.13989,-0.27303 0.0667,-0.60673 z m -68.22106,44.49406 c 0,-0.4227 0.25938,-0.68207 0.5764,-0.5764 0.90002,0.3 1.0493,1.34493 0.19213,1.34493 -0.42269,0 -0.76853,-0.34583 -0.76853,-0.76853 z m 1.70376,-0.67971 c -0.16768,-0.27133 0.0356,-0.49332 0.45184,-0.49332 0.85261,0 0.97814,0.29127 0.30489,0.70736 -0.24853,0.15359 -0.58904,0.0573 -0.75673,-0.21404 z m -10.15759,-1.29087 c -0.40635,-1.05895 0.13319,-1.55116 0.70654,-0.64456 0.574,0.90761 0.58621,1.44211 0.033,1.44211 -0.23841,0 -0.57119,-0.3589 -0.73952,-0.79755 z m -4.16631,-5.01189 c 0,-0.25858 -0.32764,-0.34443 -0.72809,-0.19077 -0.88468,0.33949 -0.96471,-0.47999 -0.11569,-1.18461 0.45371,-0.37654 0.75634,-0.20326 1.16781,0.66864 0.30548,0.6473 0.35753,1.1769 0.11568,1.1769 -0.24184,0 -0.43971,-0.21157 -0.43971,-0.47016 z m -9.47548,-0.62451 c -0.52822,-0.29117 -1.24583,-0.92846 -1.59467,-1.41622 -0.67523,-0.94412 -2.03538,-1.2124 -2.03538,-0.40144 0,0.26696 -0.43685,0.48538 -0.97078,0.48538 -0.53393,0 -0.97078,-0.21842 -0.97078,-0.48538 0,-0.26697 -0.43685,-0.4854 -0.97078,-0.4854 -0.53393,0 -0.97078,-0.21842 -0.97078,-0.48538 0,-0.26696 0.22027,-0.4854 0.48951,-0.4854 0.95845,0 -0.66853,-1.84712 -2.32115,-2.6352 -1.10447,-0.5267 -1.56743,-1.02969 -1.38507,-1.5049 0.16274,-0.42409 -0.009,-0.7138 -0.42371,-0.7138 -0.42068,0 -0.5867,0.28903 -0.41823,0.7281 0.2033,0.52978 -0.0574,0.72808 -0.95737,0.72808 -0.68021,0 -1.37175,-0.21843 -1.53674,-0.4854 -0.16499,-0.26696 0.14975,-0.48538 0.69944,-0.48538 0.54968,0 1.02672,-0.21843 1.0601,-0.4854 0.0334,-0.26696 0.088,-0.6856 0.12134,-0.93032 0.0984,-0.7215 0.78876,-1.22749 0.78876,-0.57809 0,0.32722 0.19368,0.47523 0.43039,0.32894 0.23671,-0.14631 0.70031,0.0592 1.03022,0.45674 0.3299,0.3975 0.42018,0.72273 0.20061,0.72273 -0.21956,0 -0.14635,0.25286 0.1627,0.5619 0.42559,0.42561 0.73419,0.41891 1.2722,-0.0276 0.56999,-0.47305 1.17935,-0.35182 3.08474,0.61371 1.30595,0.66178 2.6605,1.54791 3.01012,1.96917 0.34963,0.42128 1.23747,0.76595 1.97299,0.76595 1.35122,0 2.68816,-1.03315 2.09915,-1.62217 -0.17567,-0.17566 -0.0774,-0.31939 0.21825,-0.31939 1.03522,0 1.12143,0.96727 0.1766,1.98142 -0.63916,0.68606 -1.27358,0.92151 -1.92547,0.71462 -1.69787,-0.53888 -1.80077,0.76455 -0.17504,2.21715 1.58816,1.41902 1.49133,2.18387 -0.16117,1.27299 z m 5.77988,-1.42154 c -0.22575,-0.36526 -0.0855,-0.46085 0.40178,-0.27384 0.41171,0.15798 0.96895,0.0669 1.23832,-0.20251 0.32941,-0.32941 0.59652,-0.31699 0.81588,0.0379 0.17937,0.29023 0.25863,0.54391 0.17614,0.56376 -1.54028,0.37039 -2.34955,0.33185 -2.63212,-0.12534 z m -21.85201,-1.44167 c -0.23141,-0.37214 -1.01373,-1.05363 -1.7385,-1.51441 -1.85578,-1.17985 -2.55033,-2.58812 -1.47914,-2.99916 0.45416,-0.17428 0.66811,-0.15924 0.47544,0.0334 -0.49145,0.49144 1.12842,2.17261 1.73323,1.7988 0.27925,-0.17258 0.3482,-0.0679 0.15798,0.23992 -0.20419,0.33037 0.14973,0.66846 0.89578,0.8557 1.32994,0.3338 1.44792,0.57017 0.79721,1.59737 -0.35564,0.56141 -0.48677,0.55959 -0.842,-0.0117 z M 501.1,977.1909 c 0.14575,-0.37981 0.60007,-0.81914 1.00959,-0.97629 0.53377,-0.20482 0.66058,-0.0668 0.44786,0.48756 -0.16321,0.42531 -0.29674,0.86464 -0.29674,0.97629 0,0.11165 -0.32078,0.20299 -0.71285,0.20299 -0.417,0 -0.60287,-0.28659 -0.44786,-0.69055 z m 18.63474,-0.28023 c -0.65463,-1.22318 -0.10759,-1.22318 1.45618,0 1.20064,0.93916 1.2021,0.94931 0.13842,0.95999 -0.59127,0.006 -1.30885,-0.42606 -1.5946,-0.95999 z m -15.53247,-0.21404 c 0,-0.11773 0.21843,-0.34905 0.4854,-0.51404 0.26696,-0.16499 0.48538,-0.0687 0.48538,0.21405 0,0.28272 -0.21842,0.51403 -0.48538,0.51403 -0.26697,0 -0.4854,-0.0963 -0.4854,-0.21404 z m 1.73913,-0.69159 c -0.20909,-0.33832 -0.24908,-0.7462 -0.0889,-0.90642 0.43441,-0.43441 0.90805,0.2045 0.67343,0.90838 -0.16441,0.49324 -0.27875,0.49285 -0.58456,-0.002 z m -6.74753,-1.83761 c -0.18199,-0.18199 -0.35673,-1.33201 -0.38832,-2.55559 -0.0484,-1.87339 -0.10584,-1.9991 -0.36404,-0.79606 -0.16864,0.78575 -0.47043,1.38643 -0.67065,1.33483 -0.20023,-0.0516 -0.55816,-0.0938 -0.79542,-0.0938 -0.986,0 -1.04042,-3.31593 -0.0927,-5.65146 0.93188,-2.29661 1.06102,-2.25944 1.25482,0.36118 0.13778,1.86322 0.69958,2.49607 1.99584,2.24827 0.76038,-0.14535 1.15657,0.005 1.15657,0.43968 0,0.36343 -0.49145,0.67462 -1.09213,0.69155 l -1.09212,0.0308 1.09212,0.43898 c 0.60068,0.24144 1.08879,0.71905 1.08471,1.06137 -0.006,0.47903 -0.10355,0.4707 -0.42472,-0.0362 -0.22951,-0.36221 -0.53939,-0.46099 -0.68863,-0.21952 -0.14923,0.24147 -0.0707,0.75625 0.17459,1.14395 0.24526,0.38771 0.43203,1.03255 0.41504,1.43299 -0.0242,0.57025 -0.0879,0.58465 -0.29401,0.0664 -0.18528,-0.46588 -0.36328,-0.49963 -0.60158,-0.11405 -0.18614,0.30118 -0.48734,0.39871 -0.66933,0.21672 z m 48.28901,-1.62526 c 0.24432,-0.73297 1.02487,-0.8085 1.25392,-0.12135 0.11124,0.3337 -0.16179,0.60673 -0.60674,0.60673 -0.44494,0 -0.73618,-0.21842 -0.64718,-0.48538 z m -40.81534,-0.68764 c -0.0211,-0.51168 0.0937,-0.79836 0.25494,-0.63707 0.16129,0.16129 0.17853,0.57993 0.0383,0.93033 -0.15495,0.3872 -0.26997,0.27219 -0.29326,-0.29326 z m -11.96315,-2.83144 c -0.55602,-4.54908 -0.56401,-4.7564 -0.19194,-4.98635 0.18929,-0.11699 0.49448,1.14821 0.67821,2.81154 0.18371,1.66333 0.45355,3.5157 0.59963,4.11637 0.14608,0.60067 0.0449,1.09212 -0.22475,1.09212 -0.2697,0 -0.65722,-1.36515 -0.86115,-3.03368 z m 7.52026,2.91234 c -0.36506,-1.22814 -0.35739,-2.54895 0.0185,-3.19317 0.3616,-0.6197 0.47689,-0.32411 0.48817,1.25161 0.008,1.1346 -0.0945,2.0629 -0.22794,2.0629 -0.13348,0 -0.25893,-0.0546 -0.27876,-0.12134 z m 21.87861,-4.01487 c 0,-0.40617 -0.54607,-0.98729 -1.21348,-1.29138 -1.05599,-0.48115 -1.68103,-1.36786 -0.96419,-1.36786 0.44757,0 2.41157,1.20151 2.77697,1.69887 0.51732,0.70413 0.45061,1.69886 -0.11392,1.69886 -0.26696,0 -0.48538,-0.33232 -0.48538,-0.73849 z m -24.26949,-3.14463 c -0.35225,-0.65818 -0.35775,-0.97078 -0.0171,-0.97078 0.27636,0 0.50246,-0.34053 0.50246,-0.75673 0,-0.4162 0.21843,-0.62174 0.4854,-0.45674 0.62238,0.38466 0.63738,3.15503 0.0171,3.15503 -0.25757,0 -0.7021,-0.43685 -0.98785,-0.97078 z m -2.41953,-1.54887 c 0.004,-0.34945 0.21917,-0.96303 0.47797,-1.36347 0.38253,-0.59192 0.47191,-0.5292 0.47796,0.33539 0.004,0.58493 -0.211,1.19848 -0.47796,1.36348 -0.26697,0.16499 -0.48205,0.0141 -0.47797,-0.3354 z m -2.9824,-1.48482 c -0.19231,-4.84312 1.52441,-15.94661 2.5203,-16.301 0.25007,-0.089 0.45467,-0.652 0.45467,-1.25115 0,-1.31506 2.25802,-7.06604 3.12867,-7.96845 0.51522,-0.53401 0.67369,-0.50891 0.92522,0.14656 0.19331,0.50377 0.11042,0.6716 -0.22833,0.46224 -0.352,-0.21755 -0.42521,0.007 -0.21652,0.66476 0.21129,0.66573 -10e-4,1.28843 -0.64448,1.88764 -1.02142,0.95159 -1.99378,3.09892 -1.99378,4.403 0,0.65931 0.11735,0.63412 0.71266,-0.15295 0.39194,-0.5182 0.71958,-1.54287 0.72808,-2.27702 0.008,-0.73415 0.23386,-1.33483 0.50082,-1.33483 0.87761,0 0.50695,3.32683 -0.60673,5.4457 -0.9353,1.77946 -1.1144,1.92102 -1.24723,0.98573 -0.0853,-0.60068 -0.33288,-1.09213 -0.55013,-1.09213 -0.94733,0 -1.41223,5.99406 -0.50825,6.55276 0.80741,0.499 0.5933,2.32952 -0.23528,2.01157 -1.06934,-0.41035 -1.56692,0.99444 -1.60849,4.54119 -0.0562,4.79289 -0.0635,4.8539 -0.58317,4.8539 -0.26697,0 -0.51358,-0.70988 -0.54803,-1.57752 z m 4.54148,-0.077 c 0.14913,-0.78017 0.0285,-1.09434 -0.36254,-0.94428 -0.76924,0.29518 -1.43777,-3.67159 -0.73691,-4.37246 0.34803,-0.34803 0.50372,-0.0694 0.50372,0.90163 0,0.85922 0.50032,1.92756 1.28748,2.74917 1.07525,1.12232 1.18546,1.46674 0.66865,2.08947 -0.92495,1.1145 -1.61344,0.90016 -1.3604,-0.42353 z m 57.06859,-8.15033 c 0.45303,-0.45303 0.71191,-0.45303 1.16494,0 0.45302,0.45304 0.3236,0.58247 -0.58247,0.58247 -0.90607,0 -1.03549,-0.12943 -0.58247,-0.58247 z m 3.00942,0.0694 c 0,-0.30887 0.30956,-0.4428 0.68791,-0.29761 0.37836,0.14518 0.81367,-0.0637 0.96736,-0.46423 0.16921,-0.44098 0.52009,-0.57839 0.88959,-0.34837 0.3356,0.20891 1.08077,0.31907 1.65594,0.2448 0.57517,-0.0743 1.18873,0.0963 1.36347,0.37902 0.17725,0.28679 -0.0705,0.5274 -0.56038,0.54424 -0.48295,0.0166 -1.80638,0.13674 -2.94099,0.26696 -1.37472,0.1578 -2.0629,0.0494 -2.0629,-0.32481 z m 6.69838,-0.0694 c 0.45303,-0.45303 0.7119,-0.45303 1.16494,0 0.45302,0.45304 0.32359,0.58247 -0.58247,0.58247 -0.90607,0 -1.0355,-0.12943 -0.58247,-0.58247 z m -11.19975,-2.61353 c -0.74048,-0.4016 -1.59332,-0.57753 -1.89521,-0.39096 -0.33596,0.20764 -0.41452,0.12185 -0.20254,-0.22116 0.22016,-0.35622 -0.0282,-0.56039 -0.68173,-0.56039 -0.56543,0 -0.922,0.17162 -0.79237,0.38138 0.12964,0.20976 -0.18511,0.38138 -0.69943,0.38138 -1.29115,0 -1.1715,-0.67588 0.23294,-1.31578 0.9425,-0.42944 1.73928,-0.31073 4.12581,0.61467 2.90756,1.12743 3.78163,1.89876 2.1083,1.86048 -0.46719,-0.0107 -1.45528,-0.34802 -2.19577,-0.74962 z m 43.33259,-6.48314 c 0,-0.28273 0.21841,-0.51405 0.48538,-0.51405 0.26696,0 0.48537,0.0963 0.48537,0.21405 0,0.11773 -0.21841,0.34905 -0.48537,0.51405 -0.26697,0.16499 -0.48538,0.0687 -0.48538,-0.21405 z m 0.97075,-8.97972 c 0,-0.11773 0.21842,-0.34904 0.48538,-0.51403 0.26696,-0.16499 0.48537,-0.0687 0.48537,0.21404 0,0.28272 -0.21841,0.51404 -0.48537,0.51404 -0.26696,0 -0.48538,-0.0963 -0.48538,-0.21405 z m -96.10719,-2.3983 c 0,-0.40045 0.21842,-0.86308 0.48538,-1.02807 0.26696,-0.165 0.4854,0.0276 0.4854,0.4281 0,0.40044 -0.21844,0.86307 -0.4854,1.02806 -0.26696,0.165 -0.48538,-0.0276 -0.48538,-0.42809 z m 1.94156,-0.0286 c 0,-0.11773 0.21842,-0.34905 0.48538,-0.51404 0.26696,-0.165 0.4854,-0.0687 0.4854,0.21405 0,0.28272 -0.21844,0.51403 -0.4854,0.51403 -0.26696,0 -0.48538,-0.0963 -0.48538,-0.21404 z m 2.91234,-2.66965 c 0,-0.28272 0.21842,-0.51404 0.48538,-0.51404 0.26696,0 0.4854,0.0963 0.4854,0.21405 0,0.11772 -0.21844,0.34904 -0.4854,0.51404 -0.26696,0.16499 -0.48538,0.0687 -0.48538,-0.21405 z m 0.71704,-4.41502 c -0.16431,-0.26585 -0.55668,-0.32866 -0.87193,-0.13957 -0.32655,0.19585 -0.28653,-0.01 0.093,-0.47747 0.69277,-0.85405 2.25483,-1.10724 2.67152,-0.43302 0.13197,0.21353 -0.17265,0.64591 -0.67693,0.96083 -0.59224,0.36986 -1.02266,0.40145 -1.21562,0.0892 z m 64.17436,-6.83297 c -0.48339,-0.28119 -1.20462,-0.38626 -1.60273,-0.2335 -0.40871,0.15684 -0.59471,0.0689 -0.42726,-0.20207 0.16311,-0.26391 0.0288,-0.47983 -0.29838,-0.47983 -1.07607,0 0.0222,-0.64259 1.33802,-0.78289 1.51156,-0.16116 4.21398,1.10134 3.79806,1.77434 -0.37387,0.60492 -1.6987,0.56904 -2.80771,-0.076 z"
         inkscape:connector-curvature="0" />
      <path
         d="m 222.44791,56.485737 c 0,15.952451 -12.93201,28.884468 -28.88446,28.884468 -15.95246,0 -28.88447,-12.932017 -28.88447,-28.884468 0,-15.952451 12.93201,-28.884468 28.88447,-28.884468 15.95245,0 28.88446,12.932017 28.88446,28.884468 z"
         sodipodi:ry="28.884468"
         sodipodi:rx="28.884468"
         sodipodi:cy="56.485737"
         sodipodi:cx="193.56345"
         id="path3527"
         style="opacity:0.7692308;fill:url(#radialGradient4968);fill-opacity:1;stroke:none;display:inline"
         sodipodi:type="arc"
         transform="matrix(1.171988,-0.209572,0.147654,0.825718,311.73769,924.1959)" />
      <path
         transform="matrix(-1.423145,0.623821,-0.45596,-1.040197,866.12839,923.98276)"
         sodipodi:type="arc"
         style="fill:url(#radialGradient5090);fill-opacity:1;stroke:none;display:inline"
         id="path3529"
         sodipodi:cx="193.56345"
         sodipodi:cy="56.485737"
         sodipodi:rx="28.884468"
         sodipodi:ry="28.884468"
         d="m 222.44791,56.485737 c 0,15.952451 -12.93201,28.884468 -28.88446,28.884468 -15.95246,0 -28.88447,-12.932017 -28.88447,-28.884468 0,-15.952451 12.93201,-28.884468 28.88447,-28.884468 15.95245,0 28.88446,12.932017 28.88446,28.884468 z" />
    </g>
  </g>
</svg>
